{"accessors":[{"bufferView":0,"byteOffset":0,"componentType":5123,"count":828,"type":"SCALAR"},{"bufferView":1,"byteOffset":0,"componentType":5126,"count":538,"max":[0.210136339068413,0.440406560897827,0.220950409770012],"min":[-0.21013633906841,0,-0.21904368698597],"type":"VEC3"},{"bufferView":2,"byteOffset":0,"componentType":5126,"count":538,"type":"VEC3"},{"bufferView":3,"byteOffset":0,"componentType":5126,"count":538,"type":"VEC2"},{"bufferView":4,"byteOffset":0,"componentType":5123,"count":240,"type":"SCALAR"},{"bufferView":5,"byteOffset":0,"componentType":5126,"count":160,"max":[0.256229132413864,0.387089520692825,0.0184402968734503],"min":[-0.25622913241386,-0.01696891151369,-0.01844029687345],"type":"VEC3"},{"bufferView":6,"byteOffset":0,"componentType":5126,"count":160,"type":"VEC3"},{"bufferView":7,"byteOffset":0,"componentType":5126,"count":160,"type":"VEC2"}],"asset":{"generator":"FBX2glTF v0.13.1","version":"2.0"},"bufferViews":[{"buffer":0,"byteLength":1656,"byteOffset":0,"target":34963},{"buffer":0,"byteLength":6456,"byteOffset":1656,"target":34962},{"buffer":0,"byteLength":6456,"byteOffset":8112,"target":34962},{"buffer":0,"byteLength":4304,"byteOffset":14568,"target":34962},{"buffer":0,"byteLength":480,"byteOffset":18872,"target":34963},{"buffer":0,"byteLength":1920,"byteOffset":19352,"target":34962},{"buffer":0,"byteLength":1920,"byteOffset":21272,"target":34962},{"buffer":0,"byteLength":1280,"byteOffset":23192,"target":34962}],"buffers":[{"byteLength":24472,"uri":"SM_Bucket.bin"}],"images":[{"name":"New Palitra","uri":"Polygon_Texture2.png"}],"materials":[{"alphaMode":"OPAQUE","doubleSided":false,"extras":{"fromFBX":{"isTruePBR":false,"shadingModel":"Phong"}},"name":"Main","pbrMetallicRoughness":{"baseColorFactor":[1,1,1,1],"baseColorTexture":{"index":0,"texCoord":0},"metallicFactor":0.400000005960464,"roughnessFactor":1}}],"meshes":[{"name":"SM_Bucket","primitives":[{"attributes":{"NORMAL":2,"POSITION":1,"TEXCOORD_0":3},"indices":0,"material":0,"mode":4}]},{"name":"SM_Bucket_Handle","primitives":[{"attributes":{"NORMAL":6,"POSITION":5,"TEXCOORD_0":7},"indices":4,"material":0,"mode":4}]}],"nodes":[{"children":[1],"mesh":0,"name":"SM_Bucket","rotation":[0,0,0,1],"scale":[1,1,1],"translation":[0,0,0]},{"mesh":1,"name":"SM_Bucket_Handle","rotation":[0,0,0,1],"scale":[1,1,1],"translation":[0,0.379983812570572,0]}],"samplers":[{}],"scene":0,"scenes":[{"name":"Root Scene","nodes":[0]}],"textures":[{"name":"base_color_texture","sampler":0,"source":0}]}