{"accessors":[{"bufferView":0,"byteOffset":0,"componentType":5123,"count":5910,"type":"SCALAR"},{"bufferView":1,"byteOffset":0,"componentType":5126,"count":4020,"max":[0.0629505589604378,0.276460826396942,0.235660254955292],"min":[-1.12521827220917,-0.15191268920898,-0.15307427942753],"type":"VEC3"},{"bufferView":2,"byteOffset":0,"componentType":5126,"count":4020,"type":"VEC3"},{"bufferView":3,"byteOffset":0,"componentType":5126,"count":4020,"type":"VEC2"}],"asset":{"generator":"FBX2glTF v0.13.1","version":"2.0"},"bufferViews":[{"buffer":0,"byteLength":11820,"byteOffset":0,"target":34963},{"buffer":0,"byteLength":48240,"byteOffset":11820,"target":34962},{"buffer":0,"byteLength":48240,"byteOffset":60060,"target":34962},{"buffer":0,"byteLength":32160,"byteOffset":108300,"target":34962}],"buffers":[{"byteLength":140460,"uri":"SM_Chainsaw.bin"}],"images":[{"name":"New Palitra","uri":"New Palitra.jpg"}],"materials":[{"alphaMode":"OPAQUE","doubleSided":false,"extras":{"fromFBX":{"isTruePBR":false,"shadingModel":"Phong"}},"name":"Main","pbrMetallicRoughness":{"baseColorFactor":[1,1,1,1],"baseColorTexture":{"index":0,"texCoord":0},"metallicFactor":0.400000005960464,"roughnessFactor":1}}],"meshes":[{"name":"SM_Chainsaw","primitives":[{"attributes":{"NORMAL":2,"POSITION":1,"TEXCOORD_0":3},"indices":0,"material":0,"mode":4}]}],"nodes":[{"mesh":0,"name":"SM_Chainsaw","rotation":[0,0,0,1],"scale":[1,1,1],"translation":[0,0,0]}],"samplers":[{}],"scene":0,"scenes":[{"name":"Root Scene","nodes":[0]}],"textures":[{"name":"base_color_texture","sampler":0,"source":0}]}