{"accessors":[{"bufferView":0,"byteOffset":0,"componentType":5123,"count":2760,"type":"SCALAR"},{"bufferView":1,"byteOffset":0,"componentType":5126,"count":1812,"max":[0.20518833398819,0.560135185718536,0.104850754141808],"min":[-0.21301381289959,0,-0.10219819843769],"type":"VEC3"},{"bufferView":2,"byteOffset":0,"componentType":5126,"count":1812,"type":"VEC3"},{"bufferView":3,"byteOffset":0,"componentType":5126,"count":1812,"type":"VEC2"}],"asset":{"generator":"FBX2glTF v0.13.1","version":"2.0"},"bufferViews":[{"buffer":0,"byteLength":5520,"byteOffset":0,"target":34963},{"buffer":0,"byteLength":21744,"byteOffset":5520,"target":34962},{"buffer":0,"byteLength":21744,"byteOffset":27264,"target":34962},{"buffer":0,"byteLength":14496,"byteOffset":49008,"target":34962}],"buffers":[{"byteLength":63504,"uri":"SM_Canister_B.bin"}],"images":[{"name":"New Palitra","uri":"New Palitra.jpg"}],"materials":[{"alphaMode":"OPAQUE","doubleSided":false,"extras":{"fromFBX":{"isTruePBR":false,"shadingModel":"Phong"}},"name":"Main","pbrMetallicRoughness":{"baseColorFactor":[1,1,1,1],"baseColorTexture":{"index":0,"texCoord":0},"metallicFactor":0.400000005960464,"roughnessFactor":1}}],"meshes":[{"name":"SM_Canister_B","primitives":[{"attributes":{"NORMAL":2,"POSITION":1,"TEXCOORD_0":3},"indices":0,"material":0,"mode":4}]}],"nodes":[{"mesh":0,"name":"SM_Canister_B","rotation":[0,0,0,1],"scale":[1,1,1],"translation":[0,0,0]}],"samplers":[{}],"scene":0,"scenes":[{"name":"Root Scene","nodes":[0]}],"textures":[{"name":"base_color_texture","sampler":0,"source":0}]}