{"accessors":[{"bufferView":0,"byteOffset":0,"componentType":5123,"count":1590,"type":"SCALAR"},{"bufferView":1,"byteOffset":0,"componentType":5126,"count":1060,"max":[0.192614451050758,0.547386765480042,0.0201055258512497],"min":[-0.17393985390663,-0.52010822296143,-0.02010539732873],"type":"VEC3"},{"bufferView":2,"byteOffset":0,"componentType":5126,"count":1060,"type":"VEC3"},{"bufferView":3,"byteOffset":0,"componentType":5126,"count":1060,"type":"VEC2"}],"asset":{"generator":"FBX2glTF v0.13.1","version":"2.0"},"bufferViews":[{"buffer":0,"byteLength":3180,"byteOffset":0,"target":34963},{"buffer":0,"byteLength":12720,"byteOffset":3180,"target":34962},{"buffer":0,"byteLength":12720,"byteOffset":15900,"target":34962},{"buffer":0,"byteLength":8480,"byteOffset":28620,"target":34962}],"buffers":[{"byteLength":37100,"uri":"SM_Fire_Axe.bin"}],"images":[{"name":"New Palitra","uri":"Polygon_Texture2.png"}],"materials":[{"alphaMode":"OPAQUE","doubleSided":false,"extras":{"fromFBX":{"isTruePBR":false,"shadingModel":"Phong"}},"name":"Main","pbrMetallicRoughness":{"baseColorFactor":[1,1,1,1],"baseColorTexture":{"index":0,"texCoord":0},"metallicFactor":0.400000005960464,"roughnessFactor":1}}],"meshes":[{"name":"SM_Fire_Axe","primitives":[{"attributes":{"NORMAL":2,"POSITION":1,"TEXCOORD_0":3},"indices":0,"material":0,"mode":4}]}],"nodes":[{"mesh":0,"name":"SM_Fire_Axe","rotation":[0,0,0,1],"scale":[1,1,1],"translation":[0,0,0]}],"samplers":[{}],"scene":0,"scenes":[{"name":"Root Scene","nodes":[0]}],"textures":[{"name":"base_color_texture","sampler":0,"source":0}]}