{"accessors":[{"bufferView":0,"byteOffset":0,"componentType":5123,"count":1671,"type":"SCALAR"},{"bufferView":1,"byteOffset":0,"componentType":5126,"count":1048,"max":[0.0925261080265045,0.0203263163566589,0.105583615601063],"min":[-0.21734131872654,-0.2596852183342,-0.10558364540339],"type":"VEC3"},{"bufferView":2,"byteOffset":0,"componentType":5126,"count":1048,"type":"VEC3"},{"bufferView":3,"byteOffset":0,"componentType":5126,"count":1048,"type":"VEC2"},{"bufferView":4,"byteOffset":0,"componentType":5123,"count":18,"type":"SCALAR"},{"bufferView":5,"byteOffset":0,"componentType":5126,"count":12,"max":[-0.20149363577366,-0.08198504149914,0.0766775384545326],"min":[-0.20149363577366,-0.22553431987763,-0.07667756825685],"type":"VEC3"},{"bufferView":6,"byteOffset":0,"componentType":5126,"count":12,"type":"VEC3"},{"bufferView":7,"byteOffset":0,"componentType":5126,"count":12,"type":"VEC2"}],"asset":{"generator":"FBX2glTF v0.13.1","version":"2.0"},"bufferViews":[{"buffer":0,"byteLength":3342,"byteOffset":0,"target":34963},{"buffer":0,"byteLength":12576,"byteOffset":3344,"target":34962},{"buffer":0,"byteLength":12576,"byteOffset":15920,"target":34962},{"buffer":0,"byteLength":8384,"byteOffset":28496,"target":34962},{"buffer":0,"byteLength":36,"byteOffset":36880,"target":34963},{"buffer":0,"byteLength":144,"byteOffset":36916,"target":34962},{"buffer":0,"byteLength":144,"byteOffset":37060,"target":34962},{"buffer":0,"byteLength":96,"byteOffset":37204,"target":34962}],"buffers":[{"byteLength":37300,"uri":"SM_Flashlight.bin"}],"images":[{"name":"New Palitra","uri":"../../Textures/Polygon_Texture2.png"}],"materials":[{"alphaMode":"OPAQUE","doubleSided":false,"extras":{"fromFBX":{"isTruePBR":false,"shadingModel":"Phong"}},"name":"Main","pbrMetallicRoughness":{"baseColorFactor":[1,1,1,1],"baseColorTexture":{"index":0,"texCoord":0},"metallicFactor":0.400000005960464,"roughnessFactor":1}},{"alphaMode":"OPAQUE","doubleSided":false,"extras":{"fromFBX":{"isTruePBR":false,"shadingModel":"Phong"}},"name":"Light","pbrMetallicRoughness":{"baseColorFactor":[0.800000011920929,0.800000011920929,0.800000011920929,1],"metallicFactor":0.400000005960464,"roughnessFactor":0.272165536880493}}],"meshes":[{"name":"SM_Flashlight","primitives":[{"attributes":{"NORMAL":2,"POSITION":1,"TEXCOORD_0":3},"indices":0,"material":0,"mode":4},{"attributes":{"NORMAL":6,"POSITION":5,"TEXCOORD_0":7},"indices":4,"material":1,"mode":4}]}],"nodes":[{"mesh":0,"name":"SM_Flashlight","rotation":[0,0,0,1],"scale":[1,1,1],"translation":[0,0,0]}],"samplers":[{}],"scene":0,"scenes":[{"name":"Root Scene","nodes":[0]}],"textures":[{"name":"base_color_texture","sampler":0,"source":0}]}