{"accessors":[{"bufferView":0,"byteOffset":0,"componentType":5123,"count":1461,"type":"SCALAR"},{"bufferView":1,"byteOffset":0,"componentType":5126,"count":969,"max":[0.139105468988419,0.724830329418182,0.10537601262331],"min":[-0.21613612771034,-0.00000008892476,-0.10537600517273],"type":"VEC3"},{"bufferView":2,"byteOffset":0,"componentType":5126,"count":969,"type":"VEC3"},{"bufferView":3,"byteOffset":0,"componentType":5126,"count":969,"type":"VEC2"}],"asset":{"generator":"FBX2glTF v0.13.1","version":"2.0"},"bufferViews":[{"buffer":0,"byteLength":2922,"byteOffset":0,"target":34963},{"buffer":0,"byteLength":11628,"byteOffset":2924,"target":34962},{"buffer":0,"byteLength":11628,"byteOffset":14552,"target":34962},{"buffer":0,"byteLength":7752,"byteOffset":26180,"target":34962}],"buffers":[{"byteLength":33932,"uri":"SM_Fire_Extinguisher.bin"}],"images":[{"name":"New Palitra","uri":"New Palitra.jpg"}],"materials":[{"alphaMode":"OPAQUE","doubleSided":false,"extras":{"fromFBX":{"isTruePBR":false,"shadingModel":"Phong"}},"name":"Main","pbrMetallicRoughness":{"baseColorFactor":[1,1,1,1],"baseColorTexture":{"index":0,"texCoord":0},"metallicFactor":0.400000005960464,"roughnessFactor":1}}],"meshes":[{"name":"SM_Fire_Extinguisher","primitives":[{"attributes":{"NORMAL":2,"POSITION":1,"TEXCOORD_0":3},"indices":0,"material":0,"mode":4}]}],"nodes":[{"mesh":0,"name":"SM_Fire_Extinguisher","rotation":[0,0,0,1],"scale":[1,1,1],"translation":[0,0,0]}],"samplers":[{}],"scene":0,"scenes":[{"name":"Root Scene","nodes":[0]}],"textures":[{"name":"base_color_texture","sampler":0,"source":0}]}