{"accessors":[{"bufferView":0,"byteOffset":0,"componentType":5123,"count":921,"type":"SCALAR"},{"bufferView":1,"byteOffset":0,"componentType":5126,"count":601,"max":[0.0660988166928291,0.618429839611053,0.047404408454895],"min":[-0.11455919593573,-0.00445742579177,-0.04740440845489],"type":"VEC3"},{"bufferView":2,"byteOffset":0,"componentType":5126,"count":601,"type":"VEC3"},{"bufferView":3,"byteOffset":0,"componentType":5126,"count":601,"type":"VEC2"}],"asset":{"generator":"FBX2glTF v0.13.1","version":"2.0"},"bufferViews":[{"buffer":0,"byteLength":1842,"byteOffset":0,"target":34963},{"buffer":0,"byteLength":7212,"byteOffset":1844,"target":34962},{"buffer":0,"byteLength":7212,"byteOffset":9056,"target":34962},{"buffer":0,"byteLength":4808,"byteOffset":16268,"target":34962}],"buffers":[{"byteLength":21076,"uri":"SM_Gas_Burner.bin"}],"images":[{"name":"New Palitra","uri":"New Palitra.jpg"}],"materials":[{"alphaMode":"OPAQUE","doubleSided":false,"extras":{"fromFBX":{"isTruePBR":false,"shadingModel":"Phong"}},"name":"Main","pbrMetallicRoughness":{"baseColorFactor":[1,1,1,1],"baseColorTexture":{"index":0,"texCoord":0},"metallicFactor":0.400000005960464,"roughnessFactor":1}}],"meshes":[{"name":"SM_Gas_Burner","primitives":[{"attributes":{"NORMAL":2,"POSITION":1,"TEXCOORD_0":3},"indices":0,"material":0,"mode":4}]}],"nodes":[{"mesh":0,"name":"SM_Gas_Burner","rotation":[0,0,0,1],"scale":[1,1,1],"translation":[0,0,0]}],"samplers":[{}],"scene":0,"scenes":[{"name":"Root Scene","nodes":[0]}],"textures":[{"name":"base_color_texture","sampler":0,"source":0}]}