{"accessors":[{"bufferView":0,"byteOffset":0,"componentType":5123,"count":498,"type":"SCALAR"},{"bufferView":1,"byteOffset":0,"componentType":5126,"count":326,"max":[0.111924387514591,0.275590986013412,0.0103113558143377],"min":[-0.0771404877305,-0.16009905934334,-0.04383659362793],"type":"VEC3"},{"bufferView":2,"byteOffset":0,"componentType":5126,"count":326,"type":"VEC3"},{"bufferView":3,"byteOffset":0,"componentType":5126,"count":326,"type":"VEC2"}],"asset":{"generator":"FBX2glTF v0.13.1","version":"2.0"},"bufferViews":[{"buffer":0,"byteLength":996,"byteOffset":0,"target":34963},{"buffer":0,"byteLength":3912,"byteOffset":996,"target":34962},{"buffer":0,"byteLength":3912,"byteOffset":4908,"target":34962},{"buffer":0,"byteLength":2608,"byteOffset":8820,"target":34962}],"buffers":[{"byteLength":11428,"uri":"SM_Hammer.bin"}],"images":[{"name":"New Palitra","uri":"New Palitra.jpg"}],"materials":[{"alphaMode":"OPAQUE","doubleSided":false,"extras":{"fromFBX":{"isTruePBR":false,"shadingModel":"Phong"}},"name":"Main","pbrMetallicRoughness":{"baseColorFactor":[1,1,1,1],"baseColorTexture":{"index":0,"texCoord":0},"metallicFactor":0.400000005960464,"roughnessFactor":1}}],"meshes":[{"name":"SM_Hammer","primitives":[{"attributes":{"NORMAL":2,"POSITION":1,"TEXCOORD_0":3},"indices":0,"material":0,"mode":4}]}],"nodes":[{"mesh":0,"name":"SM_Hammer","rotation":[0,0,0,1],"scale":[1,1,1],"translation":[0,0,0]}],"samplers":[{}],"scene":0,"scenes":[{"name":"Root Scene","nodes":[0]}],"textures":[{"name":"base_color_texture","sampler":0,"source":0}]}