{"accessors":[{"bufferView":0,"byteOffset":0,"componentType":5123,"count":1170,"type":"SCALAR"},{"bufferView":1,"byteOffset":0,"componentType":5126,"count":722,"max":[0.0195795316249132,0.0792346522212029,0.0162575151771307],"min":[-0.71710896492004,-0.08984923362732,-0.01625751517713],"type":"VEC3"},{"bufferView":2,"byteOffset":0,"componentType":5126,"count":722,"type":"VEC3"},{"bufferView":3,"byteOffset":0,"componentType":5126,"count":722,"type":"VEC2"}],"asset":{"generator":"FBX2glTF v0.13.1","version":"2.0"},"bufferViews":[{"buffer":0,"byteLength":2340,"byteOffset":0,"target":34963},{"buffer":0,"byteLength":8664,"byteOffset":2340,"target":34962},{"buffer":0,"byteLength":8664,"byteOffset":11004,"target":34962},{"buffer":0,"byteLength":5776,"byteOffset":19668,"target":34962}],"buffers":[{"byteLength":25444,"uri":"SM_Hand_Saw.bin"}],"images":[{"name":"New Palitra","uri":"../../Textures/Polygon_Texture2.png"}],"materials":[{"alphaMode":"OPAQUE","doubleSided":false,"extras":{"fromFBX":{"isTruePBR":false,"shadingModel":"Phong"}},"name":"Main","pbrMetallicRoughness":{"baseColorFactor":[1,1,1,1],"baseColorTexture":{"index":0,"texCoord":0},"metallicFactor":0.400000005960464,"roughnessFactor":1}}],"meshes":[{"name":"SM_Hand_Saw","primitives":[{"attributes":{"NORMAL":2,"POSITION":1,"TEXCOORD_0":3},"indices":0,"material":0,"mode":4}]}],"nodes":[{"mesh":0,"name":"SM_Hand_Saw","rotation":[0,0,0,1],"scale":[1,1,1],"translation":[0,0,0]}],"samplers":[{}],"scene":0,"scenes":[{"name":"Root Scene","nodes":[0]}],"textures":[{"name":"base_color_texture","sampler":0,"source":0}]}