{"accessors":[{"bufferView":0,"byteOffset":0,"componentType":5123,"count":1644,"type":"SCALAR"},{"bufferView":1,"byteOffset":0,"componentType":5126,"count":1096,"max":[0.106174349784851,0.36952131986618,0.0341942310333252],"min":[-0.15883113443851,-0.42756235599518,-0.03634828329086],"type":"VEC3"},{"bufferView":2,"byteOffset":0,"componentType":5126,"count":1096,"type":"VEC3"},{"bufferView":3,"byteOffset":0,"componentType":5126,"count":1096,"type":"VEC2"}],"asset":{"generator":"FBX2glTF v0.13.1","version":"2.0"},"bufferViews":[{"buffer":0,"byteLength":3288,"byteOffset":0,"target":34963},{"buffer":0,"byteLength":13152,"byteOffset":3288,"target":34962},{"buffer":0,"byteLength":13152,"byteOffset":16440,"target":34962},{"buffer":0,"byteLength":8768,"byteOffset":29592,"target":34962}],"buffers":[{"byteLength":38360,"uri":"SM_Mounting_Crowbar.bin"}],"images":[{"name":"New Palitra","uri":"../../Textures/Polygon_Texture2.png"}],"materials":[{"alphaMode":"OPAQUE","doubleSided":false,"extras":{"fromFBX":{"isTruePBR":false,"shadingModel":"Phong"}},"name":"Main","pbrMetallicRoughness":{"baseColorFactor":[1,1,1,1],"baseColorTexture":{"index":0,"texCoord":0},"metallicFactor":0.400000005960464,"roughnessFactor":1}}],"meshes":[{"name":"SM_Mounting_Crowbar","primitives":[{"attributes":{"NORMAL":2,"POSITION":1,"TEXCOORD_0":3},"indices":0,"material":0,"mode":4}]}],"nodes":[{"mesh":0,"name":"SM_Mounting_Crowbar","rotation":[0,0,0,1],"scale":[1,1,1],"translation":[0,0,0]}],"samplers":[{}],"scene":0,"scenes":[{"name":"Root Scene","nodes":[0]}],"textures":[{"name":"base_color_texture","sampler":0,"source":0}]}