{"accessors":[{"bufferView":0,"byteOffset":0,"componentType":5123,"count":483,"type":"SCALAR"},{"bufferView":1,"byteOffset":0,"componentType":5126,"count":325,"max":[0.0282880775630474,0.123847872018814,0.0230002608150244],"min":[-0.05645367130637,-0.26192376017571,-0.02175026573241],"type":"VEC3"},{"bufferView":2,"byteOffset":0,"componentType":5126,"count":325,"type":"VEC3"},{"bufferView":3,"byteOffset":0,"componentType":5126,"count":325,"type":"VEC2"},{"bufferView":4,"byteOffset":0,"componentType":5123,"count":483,"type":"SCALAR"},{"bufferView":5,"byteOffset":0,"componentType":5126,"count":325,"max":[0.0564536936581135,0.123847872018814,0.0230002664029598],"min":[-0.02828807011247,-0.26192376017571,-0.02175025828183],"type":"VEC3"},{"bufferView":6,"byteOffset":0,"componentType":5126,"count":325,"type":"VEC3"},{"bufferView":7,"byteOffset":0,"componentType":5126,"count":325,"type":"VEC2"}],"asset":{"generator":"FBX2glTF v0.13.1","version":"2.0"},"bufferViews":[{"buffer":0,"byteLength":966,"byteOffset":0,"target":34963},{"buffer":0,"byteLength":3900,"byteOffset":968,"target":34962},{"buffer":0,"byteLength":3900,"byteOffset":4868,"target":34962},{"buffer":0,"byteLength":2600,"byteOffset":8768,"target":34962},{"buffer":0,"byteLength":966,"byteOffset":11368,"target":34963},{"buffer":0,"byteLength":3900,"byteOffset":12336,"target":34962},{"buffer":0,"byteLength":3900,"byteOffset":16236,"target":34962},{"buffer":0,"byteLength":2600,"byteOffset":20136,"target":34962}],"buffers":[{"byteLength":22736,"uri":"SM_Pliers_L.bin"}],"images":[{"name":"New Palitra","uri":"../../Textures/Polygon_Texture2.png"}],"materials":[{"alphaMode":"OPAQUE","doubleSided":false,"extras":{"fromFBX":{"isTruePBR":false,"shadingModel":"Phong"}},"name":"Main","pbrMetallicRoughness":{"baseColorFactor":[1,1,1,1],"baseColorTexture":{"index":0,"texCoord":0},"metallicFactor":0.400000005960464,"roughnessFactor":1}}],"meshes":[{"name":"SM_Pliers_L","primitives":[{"attributes":{"NORMAL":2,"POSITION":1,"TEXCOORD_0":3},"indices":0,"material":0,"mode":4}]},{"name":"SM_Pliers_R","primitives":[{"attributes":{"NORMAL":6,"POSITION":5,"TEXCOORD_0":7},"indices":4,"material":0,"mode":4}]}],"nodes":[{"children":[1],"mesh":0,"name":"SM_Pliers_L","rotation":[0,0,0,1],"scale":[1,1,1],"translation":[0,0,0]},{"mesh":1,"name":"SM_Pliers_R","rotation":[0,0,0,1],"scale":[1,1,1],"translation":[0,0,0.0000000182175767804438]}],"samplers":[{}],"scene":0,"scenes":[{"name":"Root Scene","nodes":[0]}],"textures":[{"name":"base_color_texture","sampler":0,"source":0}]}