{"accessors":[{"bufferView":0,"byteOffset":0,"componentType":5123,"count":366,"type":"SCALAR"},{"bufferView":1,"byteOffset":0,"componentType":5126,"count":236,"max":[0.0204079579561949,0.231128036975861,0.00825605820864439],"min":[-0.05723783746362,-0.14953437447548,-0.00693674245849],"type":"VEC3"},{"bufferView":2,"byteOffset":0,"componentType":5126,"count":236,"type":"VEC3"},{"bufferView":3,"byteOffset":0,"componentType":5126,"count":236,"type":"VEC2"},{"bufferView":4,"byteOffset":0,"componentType":5123,"count":414,"type":"SCALAR"},{"bufferView":5,"byteOffset":0,"componentType":5126,"count":270,"max":[0.057237833738327,0.231128558516502,0.00924515072256327],"min":[-0.02040796168149,-0.14953385293484,-0.00924515072256],"type":"VEC3"},{"bufferView":6,"byteOffset":0,"componentType":5126,"count":270,"type":"VEC3"},{"bufferView":7,"byteOffset":0,"componentType":5126,"count":270,"type":"VEC2"}],"asset":{"generator":"FBX2glTF v0.13.1","version":"2.0"},"bufferViews":[{"buffer":0,"byteLength":732,"byteOffset":0,"target":34963},{"buffer":0,"byteLength":2832,"byteOffset":732,"target":34962},{"buffer":0,"byteLength":2832,"byteOffset":3564,"target":34962},{"buffer":0,"byteLength":1888,"byteOffset":6396,"target":34962},{"buffer":0,"byteLength":828,"byteOffset":8284,"target":34963},{"buffer":0,"byteLength":3240,"byteOffset":9112,"target":34962},{"buffer":0,"byteLength":3240,"byteOffset":12352,"target":34962},{"buffer":0,"byteLength":2160,"byteOffset":15592,"target":34962}],"buffers":[{"byteLength":17752,"uri":"SM_Scissors_R.bin"}],"images":[{"name":"New Palitra","uri":"New Palitra.jpg"}],"materials":[{"alphaMode":"OPAQUE","doubleSided":false,"extras":{"fromFBX":{"isTruePBR":false,"shadingModel":"Phong"}},"name":"Main","pbrMetallicRoughness":{"baseColorFactor":[1,1,1,1],"baseColorTexture":{"index":0,"texCoord":0},"metallicFactor":0.400000005960464,"roughnessFactor":1}}],"meshes":[{"name":"SM_Scissors_L","primitives":[{"attributes":{"NORMAL":2,"POSITION":1,"TEXCOORD_0":3},"indices":0,"material":0,"mode":4}]},{"name":"SM_Scissors_R","primitives":[{"attributes":{"NORMAL":6,"POSITION":5,"TEXCOORD_0":7},"indices":4,"material":0,"mode":4}]}],"nodes":[{"children":[1],"mesh":0,"name":"SM_Scissors_L","rotation":[0,0,0,1],"scale":[1,1,1],"translation":[0,0,0]},{"mesh":1,"name":"SM_Scissors_R","rotation":[0,0,0,1],"scale":[1,1,1],"translation":[0.000000238418579101562,-0.00000083446503,0]}],"samplers":[{}],"scene":0,"scenes":[{"name":"Root Scene","nodes":[0]}],"textures":[{"name":"base_color_texture","sampler":0,"source":0}]}