{"accessors":[{"bufferView":0,"byteOffset":0,"componentType":5123,"count":2100,"type":"SCALAR"},{"bufferView":1,"byteOffset":0,"componentType":5126,"count":1374,"max":[0.120527610182762,0.699234664440155,0.0334944576025009],"min":[-0.11912219971418,-0.82620143890381,-0.03349446505308],"type":"VEC3"},{"bufferView":2,"byteOffset":0,"componentType":5126,"count":1374,"type":"VEC3"},{"bufferView":3,"byteOffset":0,"componentType":5126,"count":1374,"type":"VEC2"}],"asset":{"generator":"FBX2glTF v0.13.1","version":"2.0"},"bufferViews":[{"buffer":0,"byteLength":4200,"byteOffset":0,"target":34963},{"buffer":0,"byteLength":16488,"byteOffset":4200,"target":34962},{"buffer":0,"byteLength":16488,"byteOffset":20688,"target":34962},{"buffer":0,"byteLength":10992,"byteOffset":37176,"target":34962}],"buffers":[{"byteLength":48168,"uri":"SM_Shovel.bin"}],"images":[{"name":"New Palitra","uri":"New Palitra.jpg"}],"materials":[{"alphaMode":"OPAQUE","doubleSided":false,"extras":{"fromFBX":{"isTruePBR":false,"shadingModel":"Phong"}},"name":"Main","pbrMetallicRoughness":{"baseColorFactor":[1,1,1,1],"baseColorTexture":{"index":0,"texCoord":0},"metallicFactor":0.400000005960464,"roughnessFactor":1}}],"meshes":[{"name":"SM_Shovel","primitives":[{"attributes":{"NORMAL":2,"POSITION":1,"TEXCOORD_0":3},"indices":0,"material":0,"mode":4}]}],"nodes":[{"mesh":0,"name":"SM_Shovel","rotation":[0,0,0,1],"scale":[1,1,1],"translation":[0,0,0]}],"samplers":[{}],"scene":0,"scenes":[{"name":"Root Scene","nodes":[0]}],"textures":[{"name":"base_color_texture","sampler":0,"source":0}]}