{"accessors":[{"bufferView":0,"byteOffset":0,"componentType":5123,"count":3198,"type":"SCALAR"},{"bufferView":1,"byteOffset":0,"componentType":5126,"count":2076,"max":[0.166871547698975,0.578920900821686,0.0534169040620327],"min":[-0.16249822080135,-0.48003530502319,-0.05341690406203],"type":"VEC3"},{"bufferView":2,"byteOffset":0,"componentType":5126,"count":2076,"type":"VEC3"},{"bufferView":3,"byteOffset":0,"componentType":5126,"count":2076,"type":"VEC2"}],"asset":{"generator":"FBX2glTF v0.13.1","version":"2.0"},"bufferViews":[{"buffer":0,"byteLength":6396,"byteOffset":0,"target":34963},{"buffer":0,"byteLength":24912,"byteOffset":6396,"target":34962},{"buffer":0,"byteLength":24912,"byteOffset":31308,"target":34962},{"buffer":0,"byteLength":16608,"byteOffset":56220,"target":34962}],"buffers":[{"byteLength":72828,"uri":"SM_Sledgehammer.bin"}],"images":[{"name":"New Palitra","uri":"Polygon_Texture2.png"}],"materials":[{"alphaMode":"OPAQUE","doubleSided":false,"extras":{"fromFBX":{"isTruePBR":false,"shadingModel":"Phong"}},"name":"Main","pbrMetallicRoughness":{"baseColorFactor":[1,1,1,1],"baseColorTexture":{"index":0,"texCoord":0},"metallicFactor":0.400000005960464,"roughnessFactor":1}}],"meshes":[{"name":"SM_Sledgehammer","primitives":[{"attributes":{"NORMAL":2,"POSITION":1,"TEXCOORD_0":3},"indices":0,"material":0,"mode":4}]}],"nodes":[{"mesh":0,"name":"SM_Sledgehammer","rotation":[0,0,0,1],"scale":[1,1,1],"translation":[0,0,0]}],"samplers":[{}],"scene":0,"scenes":[{"name":"Root Scene","nodes":[0]}],"textures":[{"name":"base_color_texture","sampler":0,"source":0}]}