{"accessors":[{"bufferView":0,"byteOffset":0,"componentType":5123,"count":300,"type":"SCALAR"},{"bufferView":1,"byteOffset":0,"componentType":5126,"count":200,"max":[0.0269449800252914,0.427315711975098,0.0229207668453455],"min":[-0.02694498188794,-0.05583785101771,-0.02833162806928],"type":"VEC3"},{"bufferView":2,"byteOffset":0,"componentType":5126,"count":200,"type":"VEC3"},{"bufferView":3,"byteOffset":0,"componentType":5126,"count":200,"type":"VEC2"}],"asset":{"generator":"FBX2glTF v0.13.1","version":"2.0"},"bufferViews":[{"buffer":0,"byteLength":600,"byteOffset":0,"target":34963},{"buffer":0,"byteLength":2400,"byteOffset":600,"target":34962},{"buffer":0,"byteLength":2400,"byteOffset":3000,"target":34962},{"buffer":0,"byteLength":1600,"byteOffset":5400,"target":34962}],"buffers":[{"byteLength":7000,"uri":"SM_Turn-Screw_B.bin"}],"images":[{"name":"New Palitra","uri":"New Palitra.jpg"}],"materials":[{"alphaMode":"OPAQUE","doubleSided":false,"extras":{"fromFBX":{"isTruePBR":false,"shadingModel":"Phong"}},"name":"Main","pbrMetallicRoughness":{"baseColorFactor":[1,1,1,1],"baseColorTexture":{"index":0,"texCoord":0},"metallicFactor":0.400000005960464,"roughnessFactor":1}}],"meshes":[{"name":"SM_Turn-Screw_B","primitives":[{"attributes":{"NORMAL":2,"POSITION":1,"TEXCOORD_0":3},"indices":0,"material":0,"mode":4}]}],"nodes":[{"mesh":0,"name":"SM_Turn-Screw_B","rotation":[0,0,0,1],"scale":[1,1,1],"translation":[0,0,0]}],"samplers":[{}],"scene":0,"scenes":[{"name":"Root Scene","nodes":[0]}],"textures":[{"name":"base_color_texture","sampler":0,"source":0}]}