{"asset":{"version":"2.0","generator":"gen_base_piece_models.py"},"scene":0,"scenes":[{"nodes":[0]}],"nodes":[{"mesh":0,"name":"foundation_wood_planks"}],"meshes":[{"name":"foundation_wood_planks","primitives":[{"attributes":{"POSITION":0,"NORMAL":1,"COLOR_0":2},"indices":3,"material":0}]}],"materials":[{"name":"planks","pbrMetallicRoughness":{"baseColorFactor":[1,1,1,1],"metallicFactor":0.0,"roughnessFactor":0.95}}],"buffers":[{"uri":"foundation_wood_planks.bin","byteLength":17784}],"bufferViews":[{"buffer":0,"byteOffset":0,"byteLength":5472},{"buffer":0,"byteOffset":5472,"byteLength":5472},{"buffer":0,"byteOffset":10944,"byteLength":5472},{"buffer":0,"byteOffset":16416,"byteLength":1368}],"accessors":[{"bufferView":0,"componentType":5126,"count":456,"type":"VEC3","min":[0.0,0.0,-3.0],"max":[3.0,0.22,0.0]},{"bufferView":1,"componentType":5126,"count":456,"type":"VEC3"},{"bufferView":2,"componentType":5126,"count":456,"type":"VEC3"},{"bufferView":3,"componentType":5123,"count":684,"type":"SCALAR"}]}