{"asset":{"version":"2.0","generator":"gen_base_piece_models.py"},"scene":0,"scenes":[{"nodes":[0]}],"nodes":[{"mesh":0,"name":"wall_wood_planks"}],"meshes":[{"name":"wall_wood_planks","primitives":[{"attributes":{"POSITION":0,"NORMAL":1,"COLOR_0":2},"indices":3,"material":0}]}],"materials":[{"name":"planks","pbrMetallicRoughness":{"baseColorFactor":[1,1,1,1],"metallicFactor":0.0,"roughnessFactor":0.95}}],"buffers":[{"uri":"wall_wood_planks.bin","byteLength":12480}],"bufferViews":[{"buffer":0,"byteOffset":0,"byteLength":3840},{"buffer":0,"byteOffset":3840,"byteLength":3840},{"buffer":0,"byteOffset":7680,"byteLength":3840},{"buffer":0,"byteOffset":11520,"byteLength":960}],"accessors":[{"bufferView":0,"componentType":5126,"count":320,"type":"VEC3","min":[0.0,0.0,0.0],"max":[3.0,3.0,0.2]},{"bufferView":1,"componentType":5126,"count":320,"type":"VEC3"},{"bufferView":2,"componentType":5126,"count":320,"type":"VEC3"},{"bufferView":3,"componentType":5123,"count":480,"type":"SCALAR"}]}