{"accessors":[{"bufferView":0,"byteOffset":0,"componentType":5123,"count":420,"type":"SCALAR"},{"bufferView":1,"byteOffset":0,"componentType":5126,"count":254,"max":[0.083399161696434,0.0977426692843437,0.163850128650665],"min":[-0.09259586036205,0.000000119209289550781,-0.08859729766846],"type":"VEC3"},{"bufferView":2,"byteOffset":0,"componentType":5126,"count":254,"type":"VEC3"},{"bufferView":3,"byteOffset":0,"componentType":5126,"count":254,"type":"VEC2"}],"asset":{"generator":"FBX2glTF v0.13.1","version":"2.0"},"bufferViews":[{"buffer":0,"byteLength":840,"byteOffset":0,"target":34963},{"buffer":0,"byteLength":3048,"byteOffset":840,"target":34962},{"buffer":0,"byteLength":3048,"byteOffset":3888,"target":34962},{"buffer":0,"byteLength":2032,"byteOffset":6936,"target":34962}],"buffers":[{"byteLength":8968,"uri":"SM_Adhesive_Tape.bin"}],"images":[{"name":"New Palitra","uri":"../../Textures/Polygon_Texture2.png"}],"materials":[{"alphaMode":"OPAQUE","doubleSided":false,"extras":{"fromFBX":{"isTruePBR":false,"shadingModel":"Phong"}},"name":"Main","pbrMetallicRoughness":{"baseColorFactor":[1,1,1,1],"baseColorTexture":{"index":0,"texCoord":0},"metallicFactor":0.400000005960464,"roughnessFactor":1}}],"meshes":[{"name":"SM_Adhesive_Tape","primitives":[{"attributes":{"NORMAL":2,"POSITION":1,"TEXCOORD_0":3},"indices":0,"material":0,"mode":4}]}],"nodes":[{"mesh":0,"name":"SM_Adhesive_Tape","rotation":[0,0,0,1],"scale":[1,1,1],"translation":[0,0,0]}],"samplers":[{}],"scene":0,"scenes":[{"name":"Root Scene","nodes":[0]}],"textures":[{"name":"base_color_texture","sampler":0,"source":0}]}