{"accessors":[{"bufferView":0,"byteOffset":0,"componentType":5123,"count":612,"type":"SCALAR"},{"bufferView":1,"byteOffset":0,"componentType":5126,"count":402,"max":[0.11497350782156,0.110387101769447,0.0541481003165245],"min":[-0.09246419370174,0.00081088737351819,-0.07146959751844],"type":"VEC3"},{"bufferView":2,"byteOffset":0,"componentType":5126,"count":402,"type":"VEC3"},{"bufferView":3,"byteOffset":0,"componentType":5126,"count":402,"type":"VEC2"}],"asset":{"generator":"FBX2glTF v0.13.1","version":"2.0"},"bufferViews":[{"buffer":0,"byteLength":1224,"byteOffset":0,"target":34963},{"buffer":0,"byteLength":4824,"byteOffset":1224,"target":34962},{"buffer":0,"byteLength":4824,"byteOffset":6048,"target":34962},{"buffer":0,"byteLength":3216,"byteOffset":10872,"target":34962}],"buffers":[{"byteLength":14088,"uri":"SM_Battery.bin"}],"images":[{"name":"New Palitra","uri":"New Palitra.jpg"}],"materials":[{"alphaMode":"OPAQUE","doubleSided":false,"extras":{"fromFBX":{"isTruePBR":false,"shadingModel":"Phong"}},"name":"Main","pbrMetallicRoughness":{"baseColorFactor":[1,1,1,1],"baseColorTexture":{"index":0,"texCoord":0},"metallicFactor":0.400000005960464,"roughnessFactor":1}}],"meshes":[{"name":"SM_Battery","primitives":[{"attributes":{"NORMAL":2,"POSITION":1,"TEXCOORD_0":3},"indices":0,"material":0,"mode":4}]}],"nodes":[{"mesh":0,"name":"SM_Battery","rotation":[0,0,0,1],"scale":[1,1,1],"translation":[0,0,0]}],"samplers":[{}],"scene":0,"scenes":[{"name":"Root Scene","nodes":[0]}],"textures":[{"name":"base_color_texture","sampler":0,"source":0}]}