{"accessors":[{"bufferView":0,"byteOffset":0,"componentType":5123,"count":894,"type":"SCALAR"},{"bufferView":1,"byteOffset":0,"componentType":5126,"count":594,"max":[0.0874852761626244,0.168138101696968,0.11961468309164],"min":[-0.10021117329598,-0.00005657213114,-0.08748526126146],"type":"VEC3"},{"bufferView":2,"byteOffset":0,"componentType":5126,"count":594,"type":"VEC3"},{"bufferView":3,"byteOffset":0,"componentType":5126,"count":594,"type":"VEC2"}],"asset":{"generator":"FBX2glTF v0.13.1","version":"2.0"},"bufferViews":[{"buffer":0,"byteLength":1788,"byteOffset":0,"target":34963},{"buffer":0,"byteLength":7128,"byteOffset":1788,"target":34962},{"buffer":0,"byteLength":7128,"byteOffset":8916,"target":34962},{"buffer":0,"byteLength":4752,"byteOffset":16044,"target":34962}],"buffers":[{"byteLength":20796,"uri":"SM_Copper_Coil.bin"}],"images":[{"name":"New Palitra","uri":"New Palitra.jpg"}],"materials":[{"alphaMode":"OPAQUE","doubleSided":false,"extras":{"fromFBX":{"isTruePBR":false,"shadingModel":"Phong"}},"name":"Main","pbrMetallicRoughness":{"baseColorFactor":[1,1,1,1],"baseColorTexture":{"index":0,"texCoord":0},"metallicFactor":0.400000005960464,"roughnessFactor":1}}],"meshes":[{"name":"SM_Copper_Coil","primitives":[{"attributes":{"NORMAL":2,"POSITION":1,"TEXCOORD_0":3},"indices":0,"material":0,"mode":4}]}],"nodes":[{"mesh":0,"name":"SM_Copper_Coil","rotation":[0,0,0,1],"scale":[1,1,1],"translation":[0,0,0]}],"samplers":[{}],"scene":0,"scenes":[{"name":"Root Scene","nodes":[0]}],"textures":[{"name":"base_color_texture","sampler":0,"source":0}]}