{"accessors":[{"bufferView":0,"byteOffset":0,"componentType":5123,"count":1680,"type":"SCALAR"},{"bufferView":1,"byteOffset":0,"componentType":5126,"count":1120,"max":[0.146957099437714,0.0974699780344963,0.201922714710236],"min":[-0.19201144576073,-0.01252158358693,-0.12705628573895],"type":"VEC3"},{"bufferView":2,"byteOffset":0,"componentType":5126,"count":1120,"type":"VEC3"},{"bufferView":3,"byteOffset":0,"componentType":5126,"count":1120,"type":"VEC2"}],"asset":{"generator":"FBX2glTF v0.13.1","version":"2.0"},"bufferViews":[{"buffer":0,"byteLength":3360,"byteOffset":0,"target":34963},{"buffer":0,"byteLength":13440,"byteOffset":3360,"target":34962},{"buffer":0,"byteLength":13440,"byteOffset":16800,"target":34962},{"buffer":0,"byteLength":8960,"byteOffset":30240,"target":34962}],"buffers":[{"byteLength":39200,"uri":"SM_Corrugation.bin"}],"images":[{"name":"New Palitra","uri":"Polygon_Texture2.png"}],"materials":[{"alphaMode":"OPAQUE","doubleSided":false,"extras":{"fromFBX":{"isTruePBR":false,"shadingModel":"Phong"}},"name":"Main","pbrMetallicRoughness":{"baseColorFactor":[1,1,1,1],"baseColorTexture":{"index":0,"texCoord":0},"metallicFactor":0.400000005960464,"roughnessFactor":1}}],"meshes":[{"name":"SM_Corrugation","primitives":[{"attributes":{"NORMAL":2,"POSITION":1,"TEXCOORD_0":3},"indices":0,"material":0,"mode":4}]}],"nodes":[{"mesh":0,"name":"SM_Corrugation","rotation":[0,0,0,1],"scale":[1,1,1],"translation":[0,0,0]}],"samplers":[{}],"scene":0,"scenes":[{"name":"Root Scene","nodes":[0]}],"textures":[{"name":"base_color_texture","sampler":0,"source":0}]}