{"accessors":[{"bufferView":0,"byteOffset":0,"componentType":5123,"count":468,"type":"SCALAR"},{"bufferView":1,"byteOffset":0,"componentType":5126,"count":296,"max":[0.0158450286835432,0.0810081362724304,0.0151346623897552],"min":[-0.02146490290761,-0.08303343504667,-0.01224361360073],"type":"VEC3"},{"bufferView":2,"byteOffset":0,"componentType":5126,"count":296,"type":"VEC3"},{"bufferView":3,"byteOffset":0,"componentType":5126,"count":296,"type":"VEC2"},{"bufferView":4,"byteOffset":0,"componentType":5123,"count":96,"type":"SCALAR"},{"bufferView":5,"byteOffset":0,"componentType":5126,"count":62,"max":[0.0120051242411137,0.0325325764715672,0.0103967413306236],"min":[-0.01200512237847,-0.01836645230651,-0.01039674133062],"type":"VEC3"},{"bufferView":6,"byteOffset":0,"componentType":5126,"count":62,"type":"VEC3"},{"bufferView":7,"byteOffset":0,"componentType":5126,"count":62,"type":"VEC2"}],"asset":{"generator":"FBX2glTF v0.13.1","version":"2.0"},"bufferViews":[{"buffer":0,"byteLength":936,"byteOffset":0,"target":34963},{"buffer":0,"byteLength":3552,"byteOffset":936,"target":34962},{"buffer":0,"byteLength":3552,"byteOffset":4488,"target":34962},{"buffer":0,"byteLength":2368,"byteOffset":8040,"target":34962},{"buffer":0,"byteLength":192,"byteOffset":10408,"target":34963},{"buffer":0,"byteLength":744,"byteOffset":10600,"target":34962},{"buffer":0,"byteLength":744,"byteOffset":11344,"target":34962},{"buffer":0,"byteLength":496,"byteOffset":12088,"target":34962}],"buffers":[{"byteLength":12584,"uri":"SM_Flask_D.bin"}],"images":[{"name":"New Palitra","uri":"Polygon_Texture2.png"}],"materials":[{"alphaMode":"OPAQUE","doubleSided":false,"extras":{"fromFBX":{"isTruePBR":false,"shadingModel":"Phong"}},"name":"Main_Glass","pbrMetallicRoughness":{"baseColorFactor":[1,1,1,1],"baseColorTexture":{"index":0,"texCoord":0},"metallicFactor":0.400000005960464,"roughnessFactor":1}},{"alphaMode":"OPAQUE","doubleSided":false,"extras":{"fromFBX":{"isTruePBR":false,"shadingModel":"Phong"}},"name":"Liquid","pbrMetallicRoughness":{"baseColorFactor":[0.800000011920929,0.800000011920929,0.800000011920929,1],"metallicFactor":0.400000005960464,"roughnessFactor":1}}],"meshes":[{"name":"SM_Flask_D","primitives":[{"attributes":{"NORMAL":2,"POSITION":1,"TEXCOORD_0":3},"indices":0,"material":0,"mode":4}]},{"name":"SM_Flask_D_Liquid","primitives":[{"attributes":{"NORMAL":6,"POSITION":5,"TEXCOORD_0":7},"indices":4,"material":1,"mode":4}]}],"nodes":[{"children":[1],"mesh":0,"name":"SM_Flask_D","rotation":[0,0,0,1],"scale":[1,1,1],"translation":[0,0,0]},{"mesh":1,"name":"SM_Flask_D_Liquid","rotation":[0,0,0,1],"scale":[1,1,1],"translation":[0.00003814697265625,-0.05857872962952,0.00144577026367188]}],"samplers":[{}],"scene":0,"scenes":[{"name":"Root Scene","nodes":[0]}],"textures":[{"name":"base_color_texture","sampler":0,"source":0}]}