{"accessors":[{"bufferView":0,"byteOffset":0,"componentType":5123,"count":384,"type":"SCALAR"},{"bufferView":1,"byteOffset":0,"componentType":5126,"count":252,"max":[0.0633090063929558,0.162505581974983,0.0633090063929558],"min":[-0.0633090287447,-0.00000000651926,-0.0633090287447],"type":"VEC3"},{"bufferView":2,"byteOffset":0,"componentType":5126,"count":252,"type":"VEC3"},{"bufferView":3,"byteOffset":0,"componentType":5126,"count":252,"type":"VEC2"},{"bufferView":4,"byteOffset":0,"componentType":5123,"count":144,"type":"SCALAR"},{"bufferView":5,"byteOffset":0,"componentType":5126,"count":95,"max":[0.0582620799541473,0.0060556810349226,0.0582620836794376],"min":[-0.05826208367944,-0.00726788677275,-0.05826208367944],"type":"VEC3"},{"bufferView":6,"byteOffset":0,"componentType":5126,"count":95,"type":"VEC3"},{"bufferView":7,"byteOffset":0,"componentType":5126,"count":95,"type":"VEC2"}],"asset":{"generator":"FBX2glTF v0.13.1","version":"2.0"},"bufferViews":[{"buffer":0,"byteLength":768,"byteOffset":0,"target":34963},{"buffer":0,"byteLength":3024,"byteOffset":768,"target":34962},{"buffer":0,"byteLength":3024,"byteOffset":3792,"target":34962},{"buffer":0,"byteLength":2016,"byteOffset":6816,"target":34962},{"buffer":0,"byteLength":288,"byteOffset":8832,"target":34963},{"buffer":0,"byteLength":1140,"byteOffset":9120,"target":34962},{"buffer":0,"byteLength":1140,"byteOffset":10260,"target":34962},{"buffer":0,"byteLength":760,"byteOffset":11400,"target":34962}],"buffers":[{"byteLength":12160,"uri":"SM_Flask_C.bin"}],"images":[{"name":"New Palitra","uri":"New Palitra.jpg"}],"materials":[{"alphaMode":"OPAQUE","doubleSided":false,"extras":{"fromFBX":{"isTruePBR":false,"shadingModel":"Phong"}},"name":"Main_Glass","pbrMetallicRoughness":{"baseColorFactor":[1,1,1,1],"baseColorTexture":{"index":0,"texCoord":0},"metallicFactor":0.400000005960464,"roughnessFactor":1}},{"alphaMode":"OPAQUE","doubleSided":false,"extras":{"fromFBX":{"isTruePBR":false,"shadingModel":"Phong"}},"name":"Liquid","pbrMetallicRoughness":{"baseColorFactor":[0.800000011920929,0.800000011920929,0.800000011920929,1],"metallicFactor":0.400000005960464,"roughnessFactor":1}}],"meshes":[{"name":"SM_Flask_C","primitives":[{"attributes":{"NORMAL":2,"POSITION":1,"TEXCOORD_0":3},"indices":0,"material":0,"mode":4}]},{"name":"SM_Flask_C_Liquid","primitives":[{"attributes":{"NORMAL":6,"POSITION":5,"TEXCOORD_0":7},"indices":4,"material":1,"mode":4}]}],"nodes":[{"children":[1],"mesh":0,"name":"SM_Flask_C","rotation":[0,0,0,1],"scale":[1,1,1],"translation":[0,0,0]},{"mesh":1,"name":"SM_Flask_C_Liquid","rotation":[0,0,0,1],"scale":[1,1,1],"translation":[0,0.0123603343963623,0]}],"samplers":[{}],"scene":0,"scenes":[{"name":"Root Scene","nodes":[0]}],"textures":[{"name":"base_color_texture","sampler":0,"source":0}]}