{"accessors":[{"bufferView":0,"byteOffset":0,"componentType":5123,"count":672,"type":"SCALAR"},{"bufferView":1,"byteOffset":0,"componentType":5126,"count":448,"max":[0.0579062178730965,0.159192398190498,0.0579062066972256],"min":[-0.05790619552135,-0.00000001769015,-0.05790620669723],"type":"VEC3"},{"bufferView":2,"byteOffset":0,"componentType":5126,"count":448,"type":"VEC3"},{"bufferView":3,"byteOffset":0,"componentType":5126,"count":448,"type":"VEC2"},{"bufferView":4,"byteOffset":0,"componentType":5123,"count":96,"type":"SCALAR"},{"bufferView":5,"byteOffset":0,"componentType":5126,"count":64,"max":[0.0360026583075523,0.0071560125797987,0.036002654582262],"min":[-0.03600265830755,-0.01168750971556,-0.03600265830755],"type":"VEC3"},{"bufferView":6,"byteOffset":0,"componentType":5126,"count":64,"type":"VEC3"},{"bufferView":7,"byteOffset":0,"componentType":5126,"count":64,"type":"VEC2"}],"asset":{"generator":"FBX2glTF v0.13.1","version":"2.0"},"bufferViews":[{"buffer":0,"byteLength":1344,"byteOffset":0,"target":34963},{"buffer":0,"byteLength":5376,"byteOffset":1344,"target":34962},{"buffer":0,"byteLength":5376,"byteOffset":6720,"target":34962},{"buffer":0,"byteLength":3584,"byteOffset":12096,"target":34962},{"buffer":0,"byteLength":192,"byteOffset":15680,"target":34963},{"buffer":0,"byteLength":768,"byteOffset":15872,"target":34962},{"buffer":0,"byteLength":768,"byteOffset":16640,"target":34962},{"buffer":0,"byteLength":512,"byteOffset":17408,"target":34962}],"buffers":[{"byteLength":17920,"uri":"SM_Flask_A.bin"}],"images":[{"name":"New Palitra","uri":"New Palitra.jpg"}],"materials":[{"alphaMode":"OPAQUE","doubleSided":false,"extras":{"fromFBX":{"isTruePBR":false,"shadingModel":"Phong"}},"name":"Main_Glass","pbrMetallicRoughness":{"baseColorFactor":[1,1,1,1],"baseColorTexture":{"index":0,"texCoord":0},"metallicFactor":0.400000005960464,"roughnessFactor":1}},{"alphaMode":"OPAQUE","doubleSided":false,"extras":{"fromFBX":{"isTruePBR":false,"shadingModel":"Phong"}},"name":"Liquid","pbrMetallicRoughness":{"baseColorFactor":[0.800000011920929,0.800000011920929,0.800000011920929,1],"metallicFactor":0.400000005960464,"roughnessFactor":1}}],"meshes":[{"name":"SM_Flask_A","primitives":[{"attributes":{"NORMAL":2,"POSITION":1,"TEXCOORD_0":3},"indices":0,"material":0,"mode":4}]},{"name":"SM_Flask_A_Liquid","primitives":[{"attributes":{"NORMAL":6,"POSITION":5,"TEXCOORD_0":7},"indices":4,"material":1,"mode":4}]}],"nodes":[{"children":[1],"mesh":0,"name":"SM_Flask_A","rotation":[0,0,0,1],"scale":[1,1,1],"translation":[0,0,0]},{"mesh":1,"name":"SM_Flask_A_Liquid","rotation":[0,0,0,1],"scale":[1,1,1],"translation":[0,0.0169614553451538,0]}],"samplers":[{}],"scene":0,"scenes":[{"name":"Root Scene","nodes":[0]}],"textures":[{"name":"base_color_texture","sampler":0,"source":0}]}