{"accessors":[{"bufferView":0,"byteOffset":0,"componentType":5123,"count":444,"type":"SCALAR"},{"bufferView":1,"byteOffset":0,"componentType":5126,"count":282,"max":[0.024467945098877,0.154030799865723,0.0282531678676605],"min":[-0.02446794509888,0,-0.02825316786766],"type":"VEC3"},{"bufferView":2,"byteOffset":0,"componentType":5126,"count":282,"type":"VEC3"},{"bufferView":3,"byteOffset":0,"componentType":5126,"count":282,"type":"VEC2"},{"bufferView":4,"byteOffset":0,"componentType":5123,"count":384,"type":"SCALAR"},{"bufferView":5,"byteOffset":0,"componentType":5126,"count":256,"max":[0.0143914222717285,0.120690070092678,0.0166178047657013],"min":[-0.01439142227173,0.0333407446742058,-0.0166178047657],"type":"VEC3"},{"bufferView":6,"byteOffset":0,"componentType":5126,"count":256,"type":"VEC3"},{"bufferView":7,"byteOffset":0,"componentType":5126,"count":256,"type":"VEC2"}],"asset":{"generator":"FBX2glTF v0.13.1","version":"2.0"},"bufferViews":[{"buffer":0,"byteLength":888,"byteOffset":0,"target":34963},{"buffer":0,"byteLength":3384,"byteOffset":888,"target":34962},{"buffer":0,"byteLength":3384,"byteOffset":4272,"target":34962},{"buffer":0,"byteLength":2256,"byteOffset":7656,"target":34962},{"buffer":0,"byteLength":768,"byteOffset":9912,"target":34963},{"buffer":0,"byteLength":3072,"byteOffset":10680,"target":34962},{"buffer":0,"byteLength":3072,"byteOffset":13752,"target":34962},{"buffer":0,"byteLength":2048,"byteOffset":16824,"target":34962}],"buffers":[{"byteLength":18872,"uri":"SM_Hourglass.bin"}],"images":[{"name":"New Palitra","uri":"New Palitra.jpg"}],"materials":[{"alphaMode":"OPAQUE","doubleSided":false,"extras":{"fromFBX":{"isTruePBR":false,"shadingModel":"Phong"}},"name":"Main","pbrMetallicRoughness":{"baseColorFactor":[1,1,1,1],"baseColorTexture":{"index":0,"texCoord":0},"metallicFactor":0.400000005960464,"roughnessFactor":1}},{"alphaMode":"OPAQUE","doubleSided":false,"extras":{"fromFBX":{"isTruePBR":false,"shadingModel":"Phong"}},"name":"Main_Glass","pbrMetallicRoughness":{"baseColorFactor":[1,1,1,1],"baseColorTexture":{"index":0,"texCoord":0},"metallicFactor":0.400000005960464,"roughnessFactor":1}}],"meshes":[{"name":"SM_Hourglass","primitives":[{"attributes":{"NORMAL":2,"POSITION":1,"TEXCOORD_0":3},"indices":0,"material":0,"mode":4},{"attributes":{"NORMAL":6,"POSITION":5,"TEXCOORD_0":7},"indices":4,"material":1,"mode":4}]}],"nodes":[{"mesh":0,"name":"SM_Hourglass","rotation":[0,0,0,1],"scale":[1,1,1],"translation":[0,-0.00000000745058,0]}],"samplers":[{}],"scene":0,"scenes":[{"name":"Root Scene","nodes":[0]}],"textures":[{"name":"base_color_texture","sampler":0,"source":0}]}