{"accessors":[{"bufferView":0,"byteOffset":0,"componentType":5123,"count":468,"type":"SCALAR"},{"bufferView":1,"byteOffset":0,"componentType":5126,"count":306,"max":[0.0830545872449875,0.237136319279671,0.0830545574426651],"min":[-0.08305452018976,0.0000000252405722989124,-0.08305455744267],"type":"VEC3"},{"bufferView":2,"byteOffset":0,"componentType":5126,"count":306,"type":"VEC3"},{"bufferView":3,"byteOffset":0,"componentType":5126,"count":306,"type":"VEC2"},{"bufferView":4,"byteOffset":0,"componentType":5123,"count":228,"type":"SCALAR"},{"bufferView":5,"byteOffset":0,"componentType":5126,"count":148,"max":[0.0712265372276306,0.0177671331912279,0.0712265372276306],"min":[-0.07122653722763,-0.01408217754215,-0.07122653722763],"type":"VEC3"},{"bufferView":6,"byteOffset":0,"componentType":5126,"count":148,"type":"VEC3"},{"bufferView":7,"byteOffset":0,"componentType":5126,"count":148,"type":"VEC2"},{"bufferView":8,"byteOffset":0,"componentType":5123,"count":132,"type":"SCALAR"},{"bufferView":9,"byteOffset":0,"componentType":5126,"count":86,"max":[0.0720551684498787,0.118985757231712,0.0720551460981369],"min":[-0.07205511629581,0.0108869867399335,-0.07205513864756],"type":"VEC3"},{"bufferView":10,"byteOffset":0,"componentType":5126,"count":86,"type":"VEC3"},{"bufferView":11,"byteOffset":0,"componentType":5126,"count":86,"type":"VEC2"}],"asset":{"generator":"FBX2glTF v0.13.1","version":"2.0"},"bufferViews":[{"buffer":0,"byteLength":936,"byteOffset":0,"target":34963},{"buffer":0,"byteLength":3672,"byteOffset":936,"target":34962},{"buffer":0,"byteLength":3672,"byteOffset":4608,"target":34962},{"buffer":0,"byteLength":2448,"byteOffset":8280,"target":34962},{"buffer":0,"byteLength":456,"byteOffset":10728,"target":34963},{"buffer":0,"byteLength":1776,"byteOffset":11184,"target":34962},{"buffer":0,"byteLength":1776,"byteOffset":12960,"target":34962},{"buffer":0,"byteLength":1184,"byteOffset":14736,"target":34962},{"buffer":0,"byteLength":264,"byteOffset":15920,"target":34963},{"buffer":0,"byteLength":1032,"byteOffset":16184,"target":34962},{"buffer":0,"byteLength":1032,"byteOffset":17216,"target":34962},{"buffer":0,"byteLength":688,"byteOffset":18248,"target":34962}],"buffers":[{"byteLength":18936,"uri":"SM_Jar.bin"}],"images":[{"name":"New Palitra","uri":"../../Textures/Polygon_Texture2.png"}],"materials":[{"alphaMode":"OPAQUE","doubleSided":false,"extras":{"fromFBX":{"isTruePBR":false,"shadingModel":"Phong"}},"name":"Main_Glass","pbrMetallicRoughness":{"baseColorFactor":[1,1,1,1],"baseColorTexture":{"index":0,"texCoord":0},"metallicFactor":0.400000005960464,"roughnessFactor":1}},{"alphaMode":"OPAQUE","doubleSided":false,"extras":{"fromFBX":{"isTruePBR":false,"shadingModel":"Phong"}},"name":"Main","pbrMetallicRoughness":{"baseColorFactor":[1,1,1,1],"baseColorTexture":{"index":0,"texCoord":0},"metallicFactor":0.400000005960464,"roughnessFactor":1}},{"alphaMode":"OPAQUE","doubleSided":false,"extras":{"fromFBX":{"isTruePBR":false,"shadingModel":"Phong"}},"name":"Main_Color","pbrMetallicRoughness":{"baseColorFactor":[0.800000011920929,0.800000011920929,0.800000011920929,1],"metallicFactor":0.400000005960464,"roughnessFactor":1}}],"meshes":[{"name":"SM_Jar","primitives":[{"attributes":{"NORMAL":2,"POSITION":1,"TEXCOORD_0":3},"indices":0,"material":0,"mode":4}]},{"name":"SM_Jar_Lid","primitives":[{"attributes":{"NORMAL":6,"POSITION":5,"TEXCOORD_0":7},"indices":4,"material":1,"mode":4}]},{"name":"SM_Jar_Filling","primitives":[{"attributes":{"NORMAL":10,"POSITION":9,"TEXCOORD_0":11},"indices":8,"material":2,"mode":4}]}],"nodes":[{"children":[1,2],"mesh":0,"name":"SM_Jar","rotation":[0,0,0,1],"scale":[1,1,1],"translation":[0,0,0]},{"mesh":1,"name":"SM_Jar_Lid","rotation":[0,0,0,1],"scale":[1,1,1],"translation":[0,0.236505270004272,0]},{"mesh":2,"name":"SM_Jar_Filling","rotation":[0,0,0,1],"scale":[1,1,1],"translation":[0,0,0]}],"samplers":[{}],"scene":0,"scenes":[{"name":"Root Scene","nodes":[0]}],"textures":[{"name":"base_color_texture","sampler":0,"source":0}]}