{"accessors":[{"bufferView":0,"byteOffset":0,"componentType":5123,"count":1302,"type":"SCALAR"},{"bufferView":1,"byteOffset":0,"componentType":5126,"count":840,"max":[0.209637299180031,0.212023362517357,0.20571605861187],"min":[-0.20963729918003,0,-0.1993769556284],"type":"VEC3"},{"bufferView":2,"byteOffset":0,"componentType":5126,"count":840,"type":"VEC3"},{"bufferView":3,"byteOffset":0,"componentType":5126,"count":840,"type":"VEC2"},{"bufferView":4,"byteOffset":0,"componentType":5123,"count":576,"type":"SCALAR"},{"bufferView":5,"byteOffset":0,"componentType":5126,"count":368,"max":[0.144275322556496,0.0732874125242233,0.1372140198946],"min":[-0.1442753225565,0.0217047166079283,-0.13721404969692],"type":"VEC3"},{"bufferView":6,"byteOffset":0,"componentType":5126,"count":368,"type":"VEC3"},{"bufferView":7,"byteOffset":0,"componentType":5126,"count":368,"type":"VEC2"},{"bufferView":8,"byteOffset":0,"componentType":5123,"count":636,"type":"SCALAR"},{"bufferView":9,"byteOffset":0,"componentType":5126,"count":424,"max":[0.0156917367130518,0.252420634031296,0.174628019332886],"min":[-0.01569169573486,0.0391093902289867,-0.17462801933289],"type":"VEC3"},{"bufferView":10,"byteOffset":0,"componentType":5126,"count":424,"type":"VEC3"},{"bufferView":11,"byteOffset":0,"componentType":5126,"count":424,"type":"VEC2"},{"bufferView":12,"byteOffset":0,"componentType":5123,"count":24,"type":"SCALAR"},{"bufferView":13,"byteOffset":0,"componentType":5126,"count":10,"max":[0.192630171775818,0.134408637881279,0.177033439278603],"min":[-0.19263017177582,0.134408637881279,-0.17703349888325],"type":"VEC3"},{"bufferView":14,"byteOffset":0,"componentType":5126,"count":10,"type":"VEC3"},{"bufferView":15,"byteOffset":0,"componentType":5126,"count":10,"type":"VEC2"}],"asset":{"generator":"FBX2glTF v0.13.1","version":"2.0"},"bufferViews":[{"buffer":0,"byteLength":2604,"byteOffset":0,"target":34963},{"buffer":0,"byteLength":10080,"byteOffset":2604,"target":34962},{"buffer":0,"byteLength":10080,"byteOffset":12684,"target":34962},{"buffer":0,"byteLength":6720,"byteOffset":22764,"target":34962},{"buffer":0,"byteLength":1152,"byteOffset":29484,"target":34963},{"buffer":0,"byteLength":4416,"byteOffset":30636,"target":34962},{"buffer":0,"byteLength":4416,"byteOffset":35052,"target":34962},{"buffer":0,"byteLength":2944,"byteOffset":39468,"target":34962},{"buffer":0,"byteLength":1272,"byteOffset":42412,"target":34963},{"buffer":0,"byteLength":5088,"byteOffset":43684,"target":34962},{"buffer":0,"byteLength":5088,"byteOffset":48772,"target":34962},{"buffer":0,"byteLength":3392,"byteOffset":53860,"target":34962},{"buffer":0,"byteLength":48,"byteOffset":57252,"target":34963},{"buffer":0,"byteLength":120,"byteOffset":57300,"target":34962},{"buffer":0,"byteLength":120,"byteOffset":57420,"target":34962},{"buffer":0,"byteLength":80,"byteOffset":57540,"target":34962}],"buffers":[{"byteLength":57620,"uri":"SM_Kettle.bin"}],"images":[{"name":"New Palitra","uri":"New Palitra.jpg"}],"materials":[{"alphaMode":"OPAQUE","doubleSided":false,"extras":{"fromFBX":{"isTruePBR":false,"shadingModel":"Phong"}},"name":"Main","pbrMetallicRoughness":{"baseColorFactor":[1,1,1,1],"baseColorTexture":{"index":0,"texCoord":0},"metallicFactor":0.400000005960464,"roughnessFactor":1}}],"meshes":[{"name":"SM_Kettle","primitives":[{"attributes":{"NORMAL":2,"POSITION":1,"TEXCOORD_0":3},"indices":0,"material":0,"mode":4}]},{"name":"SM_Kettle_Lid","primitives":[{"attributes":{"NORMAL":6,"POSITION":5,"TEXCOORD_0":7},"indices":4,"material":0,"mode":4}]},{"name":"SM_Kettle_Handle","primitives":[{"attributes":{"NORMAL":10,"POSITION":9,"TEXCOORD_0":11},"indices":8,"material":0,"mode":4}]},{"name":"SM_Kettle_Watter","primitives":[{"attributes":{"NORMAL":14,"POSITION":13,"TEXCOORD_0":15},"indices":12,"material":0,"mode":4}]}],"nodes":[{"children":[1,2,3],"mesh":0,"name":"SM_Kettle","rotation":[0,0,0,1],"scale":[1,1,1],"translation":[0,0,0]},{"mesh":1,"name":"SM_Kettle_Lid","rotation":[0,0,0,1],"scale":[1,1,1],"translation":[0,0.173145651817322,0]},{"mesh":2,"name":"SM_Kettle_Handle","rotation":[0,0,0,1],"scale":[1,1,1],"translation":[0,0.149152994155884,0]},{"mesh":3,"name":"SM_Kettle_Watter","rotation":[0,0,0,1],"scale":[1,1,1],"translation":[0,0,0]}],"samplers":[{}],"scene":0,"scenes":[{"name":"Root Scene","nodes":[0]}],"textures":[{"name":"base_color_texture","sampler":0,"source":0}]}