{"accessors":[{"bufferView":0,"byteOffset":0,"componentType":5123,"count":468,"type":"SCALAR"},{"bufferView":1,"byteOffset":0,"componentType":5126,"count":302,"max":[0.104459971189499,0.0908603444695473,0.0904649123549461],"min":[-0.11903013288975,-0.0000521056354,-0.09046497941017],"type":"VEC3"},{"bufferView":2,"byteOffset":0,"componentType":5126,"count":302,"type":"VEC3"},{"bufferView":3,"byteOffset":0,"componentType":5126,"count":302,"type":"VEC2"},{"bufferView":4,"byteOffset":0,"componentType":5123,"count":108,"type":"SCALAR"},{"bufferView":5,"byteOffset":0,"componentType":5126,"count":74,"max":[0.040250301361084,0.0776014029979706,0.0410757921636105],"min":[-0.03993578627706,-0.11933859437704,-0.03776341676712],"type":"VEC3"},{"bufferView":6,"byteOffset":0,"componentType":5126,"count":74,"type":"VEC3"},{"bufferView":7,"byteOffset":0,"componentType":5126,"count":74,"type":"VEC2"},{"bufferView":8,"byteOffset":0,"componentType":5123,"count":24,"type":"SCALAR"},{"bufferView":9,"byteOffset":0,"componentType":5126,"count":16,"max":[0.0803073644638062,0.0599669106304646,0.0695481300354004],"min":[-0.08030727505684,0.044494915753603,-0.06954824924469],"type":"VEC3"},{"bufferView":10,"byteOffset":0,"componentType":5126,"count":16,"type":"VEC3"},{"bufferView":11,"byteOffset":0,"componentType":5126,"count":16,"type":"VEC2"}],"asset":{"generator":"FBX2glTF v0.13.1","version":"2.0"},"bufferViews":[{"buffer":0,"byteLength":936,"byteOffset":0,"target":34963},{"buffer":0,"byteLength":3624,"byteOffset":936,"target":34962},{"buffer":0,"byteLength":3624,"byteOffset":4560,"target":34962},{"buffer":0,"byteLength":2416,"byteOffset":8184,"target":34962},{"buffer":0,"byteLength":216,"byteOffset":10600,"target":34963},{"buffer":0,"byteLength":888,"byteOffset":10816,"target":34962},{"buffer":0,"byteLength":888,"byteOffset":11704,"target":34962},{"buffer":0,"byteLength":592,"byteOffset":12592,"target":34962},{"buffer":0,"byteLength":48,"byteOffset":13184,"target":34963},{"buffer":0,"byteLength":192,"byteOffset":13232,"target":34962},{"buffer":0,"byteLength":192,"byteOffset":13424,"target":34962},{"buffer":0,"byteLength":128,"byteOffset":13616,"target":34962}],"buffers":[{"byteLength":13744,"uri":"SM_Mortar.bin"}],"images":[{"name":"New Palitra","uri":"Polygon_Texture2.png"}],"materials":[{"alphaMode":"OPAQUE","doubleSided":false,"extras":{"fromFBX":{"isTruePBR":false,"shadingModel":"Phong"}},"name":"Main","pbrMetallicRoughness":{"baseColorFactor":[1,1,1,1],"baseColorTexture":{"index":0,"texCoord":0},"metallicFactor":0.400000005960464,"roughnessFactor":1}},{"alphaMode":"OPAQUE","doubleSided":false,"extras":{"fromFBX":{"isTruePBR":false,"shadingModel":"Phong"}},"name":"Main_Color","pbrMetallicRoughness":{"baseColorFactor":[0.800000011920929,0.800000011920929,0.800000011920929,1],"metallicFactor":0.400000005960464,"roughnessFactor":1}}],"meshes":[{"name":"SM_Mortar","primitives":[{"attributes":{"NORMAL":2,"POSITION":1,"TEXCOORD_0":3},"indices":0,"material":0,"mode":4}]},{"name":"SM_Pounder","primitives":[{"attributes":{"NORMAL":6,"POSITION":5,"TEXCOORD_0":7},"indices":4,"material":0,"mode":4}]},{"name":"SM_Mortar_Substance","primitives":[{"attributes":{"NORMAL":10,"POSITION":9,"TEXCOORD_0":11},"indices":8,"material":1,"mode":4}]}],"nodes":[{"children":[1,2],"mesh":0,"name":"SM_Mortar","rotation":[0,0,0,1],"scale":[1,1,1],"translation":[0,0,0]},{"mesh":1,"name":"SM_Pounder","rotation":[0,0,0,1],"scale":[1,1,1],"translation":[0.001007080078125,0.130910277366638,-0.00526857376099]},{"mesh":2,"name":"SM_Mortar_Substance","rotation":[0,0,0,1],"scale":[1,1,1],"translation":[0,0,0]}],"samplers":[{}],"scene":0,"scenes":[{"name":"Root Scene","nodes":[0]}],"textures":[{"name":"base_color_texture","sampler":0,"source":0}]}