{"accessors":[{"bufferView":0,"byteOffset":0,"componentType":5123,"count":180,"type":"SCALAR"},{"bufferView":1,"byteOffset":0,"componentType":5126,"count":120,"max":[0.21243804693222,0.028266042470932,0.212438002228737],"min":[-0.21243804693222,0.0000000298023223876953,-0.21243804693222],"type":"VEC3"},{"bufferView":2,"byteOffset":0,"componentType":5126,"count":120,"type":"VEC3"},{"bufferView":3,"byteOffset":0,"componentType":5126,"count":120,"type":"VEC2"}],"asset":{"generator":"FBX2glTF v0.13.1","version":"2.0"},"bufferViews":[{"buffer":0,"byteLength":360,"byteOffset":0,"target":34963},{"buffer":0,"byteLength":1440,"byteOffset":360,"target":34962},{"buffer":0,"byteLength":1440,"byteOffset":1800,"target":34962},{"buffer":0,"byteLength":960,"byteOffset":3240,"target":34962}],"buffers":[{"byteLength":4200,"uri":"SM_Plate_A.bin"}],"images":[{"name":"New Palitra","uri":"../../Textures/Polygon_Texture2.png"}],"materials":[{"alphaMode":"OPAQUE","doubleSided":false,"extras":{"fromFBX":{"isTruePBR":false,"shadingModel":"Phong"}},"name":"Main","pbrMetallicRoughness":{"baseColorFactor":[1,1,1,1],"baseColorTexture":{"index":0,"texCoord":0},"metallicFactor":0.400000005960464,"roughnessFactor":1}}],"meshes":[{"name":"SM_Plates_A","primitives":[{"attributes":{"NORMAL":2,"POSITION":1,"TEXCOORD_0":3},"indices":0,"material":0,"mode":4}]}],"nodes":[{"mesh":0,"name":"SM_Plates_A","rotation":[0,0,0,1],"scale":[1,1,1],"translation":[0,0,0]}],"samplers":[{}],"scene":0,"scenes":[{"name":"Root Scene","nodes":[0]}],"textures":[{"name":"base_color_texture","sampler":0,"source":0}]}