{"accessors":[{"bufferView":0,"byteOffset":0,"componentType":5123,"count":726,"type":"SCALAR"},{"bufferView":1,"byteOffset":0,"componentType":5126,"count":474,"max":[0.232329860329628,0.0842636451125145,0.55333000421524],"min":[-0.2296601831913,0,-0.22093488276005],"type":"VEC3"},{"bufferView":2,"byteOffset":0,"componentType":5126,"count":474,"type":"VEC3"},{"bufferView":3,"byteOffset":0,"componentType":5126,"count":474,"type":"VEC2"},{"bufferView":4,"byteOffset":0,"componentType":5123,"count":693,"type":"SCALAR"},{"bufferView":5,"byteOffset":0,"componentType":5126,"count":549,"max":[0.199231684207916,0.187177136540413,0.203935921192169],"min":[-0.19788710772991,0.140236899256706,-0.19773510098457],"type":"VEC3"},{"bufferView":6,"byteOffset":0,"componentType":5126,"count":549,"type":"VEC3"},{"bufferView":7,"byteOffset":0,"componentType":5126,"count":549,"type":"VEC2"}],"asset":{"generator":"FBX2glTF v0.13.1","version":"2.0"},"bufferViews":[{"buffer":0,"byteLength":1452,"byteOffset":0,"target":34963},{"buffer":0,"byteLength":5688,"byteOffset":1452,"target":34962},{"buffer":0,"byteLength":5688,"byteOffset":7140,"target":34962},{"buffer":0,"byteLength":3792,"byteOffset":12828,"target":34962},{"buffer":0,"byteLength":1386,"byteOffset":16620,"target":34963},{"buffer":0,"byteLength":6588,"byteOffset":18008,"target":34962},{"buffer":0,"byteLength":6588,"byteOffset":24596,"target":34962},{"buffer":0,"byteLength":4392,"byteOffset":31184,"target":34962}],"buffers":[{"byteLength":35576,"uri":"SM_Pan.bin"}],"images":[{"name":"New Palitra","uri":"../../Textures/Polygon_Texture2.png"}],"materials":[{"alphaMode":"OPAQUE","doubleSided":false,"extras":{"fromFBX":{"isTruePBR":false,"shadingModel":"Phong"}},"name":"Main","pbrMetallicRoughness":{"baseColorFactor":[1,1,1,1],"baseColorTexture":{"index":0,"texCoord":0},"metallicFactor":0.400000005960464,"roughnessFactor":1}}],"meshes":[{"name":"SM_Pan","primitives":[{"attributes":{"NORMAL":2,"POSITION":1,"TEXCOORD_0":3},"indices":0,"material":0,"mode":4}]},{"name":"SM_Pan_Food","primitives":[{"attributes":{"NORMAL":6,"POSITION":5,"TEXCOORD_0":7},"indices":4,"material":0,"mode":4}]}],"nodes":[{"children":[1],"mesh":0,"name":"SM_Pan","rotation":[0,0,0,1],"scale":[1,1,1],"translation":[0,0,0]},{"mesh":1,"name":"SM_Pan_Food","rotation":[0,0,0,1],"scale":[1,1,1],"translation":[0,-0.11735416203737,0]}],"samplers":[{}],"scene":0,"scenes":[{"name":"Root Scene","nodes":[0]}],"textures":[{"name":"base_color_texture","sampler":0,"source":0}]}