{"accessors":[{"bufferView":0,"byteOffset":0,"componentType":5123,"count":996,"type":"SCALAR"},{"bufferView":1,"byteOffset":0,"componentType":5126,"count":664,"max":[0.220132932066917,0.152057617902756,0.23162068426609],"min":[-0.26322513818741,0.0000000298023223876953,-0.22826755046844],"type":"VEC3"},{"bufferView":2,"byteOffset":0,"componentType":5126,"count":664,"type":"VEC3"},{"bufferView":3,"byteOffset":0,"componentType":5126,"count":664,"type":"VEC2"}],"asset":{"generator":"FBX2glTF v0.13.1","version":"2.0"},"bufferViews":[{"buffer":0,"byteLength":1992,"byteOffset":0,"target":34963},{"buffer":0,"byteLength":7968,"byteOffset":1992,"target":34962},{"buffer":0,"byteLength":7968,"byteOffset":9960,"target":34962},{"buffer":0,"byteLength":5312,"byteOffset":17928,"target":34962}],"buffers":[{"byteLength":23240,"uri":"SM_Plates.bin"}],"images":[{"name":"New Palitra","uri":"../../Textures/Polygon_Texture2.png"}],"materials":[{"alphaMode":"OPAQUE","doubleSided":false,"extras":{"fromFBX":{"isTruePBR":false,"shadingModel":"Phong"}},"name":"Main","pbrMetallicRoughness":{"baseColorFactor":[1,1,1,1],"baseColorTexture":{"index":0,"texCoord":0},"metallicFactor":0.400000005960464,"roughnessFactor":1}}],"meshes":[{"name":"SM_Plates","primitives":[{"attributes":{"NORMAL":2,"POSITION":1,"TEXCOORD_0":3},"indices":0,"material":0,"mode":4}]}],"nodes":[{"mesh":0,"name":"SM_Plates","rotation":[0,0,0,1],"scale":[1,1,1],"translation":[0,0,0]}],"samplers":[{}],"scene":0,"scenes":[{"name":"Root Scene","nodes":[0]}],"textures":[{"name":"base_color_texture","sampler":0,"source":0}]}