{"accessors":[{"bufferView":0,"byteOffset":0,"componentType":5123,"count":2430,"type":"SCALAR"},{"bufferView":1,"byteOffset":0,"componentType":5126,"count":1582,"max":[0.476301640272141,0.307203978300095,0.204277887940407],"min":[-0.14804896712303,-0.00341965071857,-0.15820772945881],"type":"VEC3"},{"bufferView":2,"byteOffset":0,"componentType":5126,"count":1582,"type":"VEC3"},{"bufferView":3,"byteOffset":0,"componentType":5126,"count":1582,"type":"VEC2"},{"bufferView":4,"byteOffset":0,"componentType":5123,"count":540,"type":"SCALAR"},{"bufferView":5,"byteOffset":0,"componentType":5126,"count":360,"max":[0.394806921482086,0.269388169050217,0.0618412233889103],"min":[0.173778504133224,0.148799374699593,-0.06184129416943],"type":"VEC3"},{"bufferView":6,"byteOffset":0,"componentType":5126,"count":360,"type":"VEC3"},{"bufferView":7,"byteOffset":0,"componentType":5126,"count":360,"type":"VEC2"},{"bufferView":8,"byteOffset":0,"componentType":5123,"count":108,"type":"SCALAR"},{"bufferView":9,"byteOffset":0,"componentType":5126,"count":80,"max":[0.0496855974197388,0.0071280300617218,0.0486678965389729],"min":[-0.06461474299431,-0.03147633373737,-0.04866790771484],"type":"VEC3"},{"bufferView":10,"byteOffset":0,"componentType":5126,"count":80,"type":"VEC3"},{"bufferView":11,"byteOffset":0,"componentType":5126,"count":80,"type":"VEC2"}],"asset":{"generator":"FBX2glTF v0.13.1","version":"2.0"},"bufferViews":[{"buffer":0,"byteLength":4860,"byteOffset":0,"target":34963},{"buffer":0,"byteLength":18984,"byteOffset":4860,"target":34962},{"buffer":0,"byteLength":18984,"byteOffset":23844,"target":34962},{"buffer":0,"byteLength":12656,"byteOffset":42828,"target":34962},{"buffer":0,"byteLength":1080,"byteOffset":55484,"target":34963},{"buffer":0,"byteLength":4320,"byteOffset":56564,"target":34962},{"buffer":0,"byteLength":4320,"byteOffset":60884,"target":34962},{"buffer":0,"byteLength":2880,"byteOffset":65204,"target":34962},{"buffer":0,"byteLength":216,"byteOffset":68084,"target":34963},{"buffer":0,"byteLength":960,"byteOffset":68300,"target":34962},{"buffer":0,"byteLength":960,"byteOffset":69260,"target":34962},{"buffer":0,"byteLength":640,"byteOffset":70220,"target":34962}],"buffers":[{"byteLength":70860,"uri":"SM_Retort.bin"}],"images":[{"name":"New Palitra","uri":"New Palitra.jpg"}],"materials":[{"alphaMode":"OPAQUE","doubleSided":false,"extras":{"fromFBX":{"isTruePBR":false,"shadingModel":"Phong"}},"name":"Main","pbrMetallicRoughness":{"baseColorFactor":[1,1,1,1],"baseColorTexture":{"index":0,"texCoord":0},"metallicFactor":0.400000005960464,"roughnessFactor":1}},{"alphaMode":"OPAQUE","doubleSided":false,"extras":{"fromFBX":{"isTruePBR":false,"shadingModel":"Phong"}},"name":"Main_Glass","pbrMetallicRoughness":{"baseColorFactor":[1,1,1,1],"baseColorTexture":{"index":0,"texCoord":0},"metallicFactor":0.400000005960464,"roughnessFactor":1}}],"meshes":[{"name":"SM_Retort","primitives":[{"attributes":{"NORMAL":2,"POSITION":1,"TEXCOORD_0":3},"indices":0,"material":0,"mode":4},{"attributes":{"NORMAL":6,"POSITION":5,"TEXCOORD_0":7},"indices":4,"material":1,"mode":4}]},{"name":"SM_Retort_Liquid","primitives":[{"attributes":{"NORMAL":10,"POSITION":9,"TEXCOORD_0":11},"indices":8,"material":1,"mode":4}]}],"nodes":[{"children":[1],"mesh":0,"name":"SM_Retort","rotation":[0,0,0,1],"scale":[1,1,1],"translation":[0,0,0]},{"mesh":1,"name":"SM_Retort_Liquid","rotation":[0,0,0,1],"scale":[1,1,1],"translation":[0.338069915771484,0.180275678634644,0]}],"samplers":[{}],"scene":0,"scenes":[{"name":"Root Scene","nodes":[0]}],"textures":[{"name":"base_color_texture","sampler":0,"source":0}]}