{"accessors":[{"bufferView":0,"byteOffset":0,"componentType":5123,"count":534,"type":"SCALAR"},{"bufferView":1,"byteOffset":0,"componentType":5126,"count":306,"max":[0.0771921202540398,0.467567443847656,0.193963557481766],"min":[-0.07719232141972,-0.00040400028229,-0.19396348297596],"type":"VEC3"},{"bufferView":2,"byteOffset":0,"componentType":5126,"count":306,"type":"VEC3"},{"bufferView":3,"byteOffset":0,"componentType":5126,"count":306,"type":"VEC2"},{"bufferView":4,"byteOffset":0,"componentType":5123,"count":288,"type":"SCALAR"},{"bufferView":5,"byteOffset":0,"componentType":5126,"count":192,"max":[0.0593876242637634,0.0637442171573639,0.0593876056373119],"min":[-0.05938762426376,-0.11818291991949,-0.05938763171434],"type":"VEC3"},{"bufferView":6,"byteOffset":0,"componentType":5126,"count":192,"type":"VEC3"},{"bufferView":7,"byteOffset":0,"componentType":5126,"count":192,"type":"VEC2"},{"bufferView":8,"byteOffset":0,"componentType":5123,"count":288,"type":"SCALAR"},{"bufferView":9,"byteOffset":0,"componentType":5126,"count":192,"max":[0.0413410887122154,0.0443939231336117,0.0413410365581512],"min":[-0.04134103283286,-0.08224964141846,-0.04134105145931],"type":"VEC3"},{"bufferView":10,"byteOffset":0,"componentType":5126,"count":192,"type":"VEC3"},{"bufferView":11,"byteOffset":0,"componentType":5126,"count":192,"type":"VEC2"},{"bufferView":12,"byteOffset":0,"componentType":5123,"count":216,"type":"SCALAR"},{"bufferView":13,"byteOffset":0,"componentType":5126,"count":142,"max":[0.0283059943467379,0.0354158468544483,0.0245137810707092],"min":[-0.02830611914396,-0.07790195941925,-0.02451375871897],"type":"VEC3"},{"bufferView":14,"byteOffset":0,"componentType":5126,"count":142,"type":"VEC3"},{"bufferView":15,"byteOffset":0,"componentType":5126,"count":142,"type":"VEC2"},{"bufferView":16,"byteOffset":0,"componentType":5123,"count":180,"type":"SCALAR"},{"bufferView":17,"byteOffset":0,"componentType":5126,"count":120,"max":[0.019014548510313,0.0181934088468552,0.0180839281529188],"min":[-0.01538309641182,-0.08477468043566,-0.01808389648795],"type":"VEC3"},{"bufferView":18,"byteOffset":0,"componentType":5126,"count":120,"type":"VEC3"},{"bufferView":19,"byteOffset":0,"componentType":5126,"count":120,"type":"VEC2"}],"asset":{"generator":"FBX2glTF v0.13.1","version":"2.0"},"bufferViews":[{"buffer":0,"byteLength":1068,"byteOffset":0,"target":34963},{"buffer":0,"byteLength":3672,"byteOffset":1068,"target":34962},{"buffer":0,"byteLength":3672,"byteOffset":4740,"target":34962},{"buffer":0,"byteLength":2448,"byteOffset":8412,"target":34962},{"buffer":0,"byteLength":576,"byteOffset":10860,"target":34963},{"buffer":0,"byteLength":2304,"byteOffset":11436,"target":34962},{"buffer":0,"byteLength":2304,"byteOffset":13740,"target":34962},{"buffer":0,"byteLength":1536,"byteOffset":16044,"target":34962},{"buffer":0,"byteLength":576,"byteOffset":17580,"target":34963},{"buffer":0,"byteLength":2304,"byteOffset":18156,"target":34962},{"buffer":0,"byteLength":2304,"byteOffset":20460,"target":34962},{"buffer":0,"byteLength":1536,"byteOffset":22764,"target":34962},{"buffer":0,"byteLength":432,"byteOffset":24300,"target":34963},{"buffer":0,"byteLength":1704,"byteOffset":24732,"target":34962},{"buffer":0,"byteLength":1704,"byteOffset":26436,"target":34962},{"buffer":0,"byteLength":1136,"byteOffset":28140,"target":34962},{"buffer":0,"byteLength":360,"byteOffset":29276,"target":34963},{"buffer":0,"byteLength":1440,"byteOffset":29636,"target":34962},{"buffer":0,"byteLength":1440,"byteOffset":31076,"target":34962},{"buffer":0,"byteLength":960,"byteOffset":32516,"target":34962}],"buffers":[{"byteLength":33476,"uri":"SM_Rack_For_Chemical_Funnels.bin"}],"images":[{"name":"New Palitra","uri":"New Palitra.jpg"}],"materials":[{"alphaMode":"OPAQUE","doubleSided":false,"extras":{"fromFBX":{"isTruePBR":false,"shadingModel":"Phong"}},"name":"Main","pbrMetallicRoughness":{"baseColorFactor":[1,1,1,1],"baseColorTexture":{"index":0,"texCoord":0},"metallicFactor":0.400000005960464,"roughnessFactor":1}}],"meshes":[{"name":"SM_Rack_For_Chemical_Funnels","primitives":[{"attributes":{"NORMAL":2,"POSITION":1,"TEXCOORD_0":3},"indices":0,"material":0,"mode":4}]},{"name":"SM_Chemical_Funnel_01","primitives":[{"attributes":{"NORMAL":6,"POSITION":5,"TEXCOORD_0":7},"indices":4,"material":0,"mode":4}]},{"name":"SM_Chemical_Funnel_02","primitives":[{"attributes":{"NORMAL":10,"POSITION":9,"TEXCOORD_0":11},"indices":8,"material":0,"mode":4}]},{"name":"SM_Chemical_Funnel_03","primitives":[{"attributes":{"NORMAL":14,"POSITION":13,"TEXCOORD_0":15},"indices":12,"material":0,"mode":4}]},{"name":"SM_Chemical_Funnel_04","primitives":[{"attributes":{"NORMAL":18,"POSITION":17,"TEXCOORD_0":19},"indices":16,"material":0,"mode":4}]}],"nodes":[{"children":[1,2,3,4],"mesh":0,"name":"SM_Rack_For_Chemical_Funnels","rotation":[0,0,0,1],"scale":[1,1,1],"translation":[0,0,0]},{"mesh":1,"name":"SM_Chemical_Funnel_01","rotation":[0,0,0,1],"scale":[1,1,1],"translation":[0,0.28289806842804,0.147631168365479]},{"mesh":2,"name":"SM_Chemical_Funnel_02","rotation":[0,0,0,1],"scale":[1,1,1],"translation":[0,0.277775287628174,0.0672521591186523]},{"mesh":3,"name":"SM_Chemical_Funnel_03","rotation":[0,0,0,1],"scale":[1,1,1],"translation":[0,0.276489019393921,-0.04854774475098]},{"mesh":4,"name":"SM_Chemical_Funnel_04","rotation":[0,0,0,1],"scale":[1,1,1],"translation":[0.0004739761352539,0.273999333381653,-0.15103006362915]}],"samplers":[{}],"scene":0,"scenes":[{"name":"Root Scene","nodes":[0]}],"textures":[{"name":"base_color_texture","sampler":0,"source":0}]}