{"accessors":[{"bufferView":0,"byteOffset":0,"componentType":5123,"count":516,"type":"SCALAR"},{"bufferView":1,"byteOffset":0,"componentType":5126,"count":344,"max":[0.30414554476738,0.0736620724201202,0.283639997243881],"min":[-0.33145374059677,-0.00028415210545,-0.24686618149281],"type":"VEC3"},{"bufferView":2,"byteOffset":0,"componentType":5126,"count":344,"type":"VEC3"},{"bufferView":3,"byteOffset":0,"componentType":5126,"count":344,"type":"VEC2"}],"asset":{"generator":"FBX2glTF v0.13.1","version":"2.0"},"bufferViews":[{"buffer":0,"byteLength":1032,"byteOffset":0,"target":34963},{"buffer":0,"byteLength":4128,"byteOffset":1032,"target":34962},{"buffer":0,"byteLength":4128,"byteOffset":5160,"target":34962},{"buffer":0,"byteLength":2752,"byteOffset":9288,"target":34962}],"buffers":[{"byteLength":12040,"uri":"SM_Rope.bin"}],"images":[{"name":"New Palitra","uri":"New Palitra.jpg"}],"materials":[{"alphaMode":"OPAQUE","doubleSided":false,"extras":{"fromFBX":{"isTruePBR":false,"shadingModel":"Phong"}},"name":"Main","pbrMetallicRoughness":{"baseColorFactor":[1,1,1,1],"baseColorTexture":{"index":0,"texCoord":0},"metallicFactor":0.400000005960464,"roughnessFactor":1}}],"meshes":[{"name":"SM_Rope","primitives":[{"attributes":{"NORMAL":2,"POSITION":1,"TEXCOORD_0":3},"indices":0,"material":0,"mode":4}]}],"nodes":[{"mesh":0,"name":"SM_Rope","rotation":[0,0,0,1],"scale":[1,1,1],"translation":[0,0,0]}],"samplers":[{}],"scene":0,"scenes":[{"name":"Root Scene","nodes":[0]}],"textures":[{"name":"base_color_texture","sampler":0,"source":0}]}