{"accessors":[{"bufferView":0,"byteOffset":0,"componentType":5123,"count":768,"type":"SCALAR"},{"bufferView":1,"byteOffset":0,"componentType":5126,"count":452,"max":[0.172785922884941,0.131678134202957,0.03292316198349],"min":[-0.15802249312401,-0.00000001583248,-0.03292316198349],"type":"VEC3"},{"bufferView":2,"byteOffset":0,"componentType":5126,"count":452,"type":"VEC3"},{"bufferView":3,"byteOffset":0,"componentType":5126,"count":452,"type":"VEC2"}],"asset":{"generator":"FBX2glTF v0.13.1","version":"2.0"},"bufferViews":[{"buffer":0,"byteLength":1536,"byteOffset":0,"target":34963},{"buffer":0,"byteLength":5424,"byteOffset":1536,"target":34962},{"buffer":0,"byteLength":5424,"byteOffset":6960,"target":34962},{"buffer":0,"byteLength":3616,"byteOffset":12384,"target":34962}],"buffers":[{"byteLength":16000,"uri":"SM_Stand_For_Flasks.bin"}],"images":[{"name":"New Palitra","uri":"New Palitra.jpg"}],"materials":[{"alphaMode":"OPAQUE","doubleSided":false,"extras":{"fromFBX":{"isTruePBR":false,"shadingModel":"Phong"}},"name":"Main","pbrMetallicRoughness":{"baseColorFactor":[1,1,1,1],"baseColorTexture":{"index":0,"texCoord":0},"metallicFactor":0.400000005960464,"roughnessFactor":1}}],"meshes":[{"name":"SM_Stand_For_Flasks","primitives":[{"attributes":{"NORMAL":2,"POSITION":1,"TEXCOORD_0":3},"indices":0,"material":0,"mode":4}]}],"nodes":[{"mesh":0,"name":"SM_Stand_For_Flasks","rotation":[0,0,0,1],"scale":[1,1,1],"translation":[0,0,0]}],"samplers":[{}],"scene":0,"scenes":[{"name":"Root Scene","nodes":[0]}],"textures":[{"name":"base_color_texture","sampler":0,"source":0}]}