{"accessors":[{"bufferView":0,"byteOffset":0,"componentType":5123,"count":936,"type":"SCALAR"},{"bufferView":1,"byteOffset":0,"componentType":5126,"count":614,"max":[0.123903818428516,0.0961634442210197,0.11775416880846],"min":[-0.136420160532,0.00838742591440678,-0.0983562245965],"type":"VEC3"},{"bufferView":2,"byteOffset":0,"componentType":5126,"count":614,"type":"VEC3"},{"bufferView":3,"byteOffset":0,"componentType":5126,"count":614,"type":"VEC2"}],"asset":{"generator":"FBX2glTF v0.13.1","version":"2.0"},"bufferViews":[{"buffer":0,"byteLength":1872,"byteOffset":0,"target":34963},{"buffer":0,"byteLength":7368,"byteOffset":1872,"target":34962},{"buffer":0,"byteLength":7368,"byteOffset":9240,"target":34962},{"buffer":0,"byteLength":4912,"byteOffset":16608,"target":34962}],"buffers":[{"byteLength":21520,"uri":"SM_Sewing_Threads.bin"}],"images":[{"name":"New Palitra","uri":"New Palitra.jpg"}],"materials":[{"alphaMode":"OPAQUE","doubleSided":false,"extras":{"fromFBX":{"isTruePBR":false,"shadingModel":"Phong"}},"name":"Main","pbrMetallicRoughness":{"baseColorFactor":[1,1,1,1],"baseColorTexture":{"index":0,"texCoord":0},"metallicFactor":0.400000005960464,"roughnessFactor":1}}],"meshes":[{"name":"SM_Sewing_Threads","primitives":[{"attributes":{"NORMAL":2,"POSITION":1,"TEXCOORD_0":3},"indices":0,"material":0,"mode":4}]}],"nodes":[{"mesh":0,"name":"SM_Sewing_Threads","rotation":[0,0,0,1],"scale":[1,1,1],"translation":[0,0,0]}],"samplers":[{}],"scene":0,"scenes":[{"name":"Root Scene","nodes":[0]}],"textures":[{"name":"base_color_texture","sampler":0,"source":0}]}