{"accessors":[{"bufferView":0,"byteOffset":0,"componentType":5123,"count":5640,"type":"SCALAR"},{"bufferView":1,"byteOffset":0,"componentType":5126,"count":3734,"max":[0.624720573425293,0.723476409912109,0.548656463623047],"min":[-0.69018644094467,0.00351870059967041,-0.53418803215027],"type":"VEC3"},{"bufferView":2,"byteOffset":0,"componentType":5126,"count":3734,"type":"VEC3"},{"bufferView":3,"byteOffset":0,"componentType":5126,"count":3734,"type":"VEC2"}],"asset":{"generator":"FBX2glTF v0.13.1","version":"2.0"},"bufferViews":[{"buffer":0,"byteLength":11280,"byteOffset":0,"target":34963},{"buffer":0,"byteLength":44808,"byteOffset":11280,"target":34962},{"buffer":0,"byteLength":44808,"byteOffset":56088,"target":34962},{"buffer":0,"byteLength":29872,"byteOffset":100896,"target":34962}],"buffers":[{"byteLength":130768,"uri":"SM_Scrap.bin"}],"images":[{"name":"New Palitra","uri":"../../Textures/Polygon_Texture2.png"}],"materials":[{"alphaMode":"OPAQUE","doubleSided":false,"extras":{"fromFBX":{"isTruePBR":false,"shadingModel":"Phong"}},"name":"Main","pbrMetallicRoughness":{"baseColorFactor":[1,1,1,1],"baseColorTexture":{"index":0,"texCoord":0},"metallicFactor":0.400000005960464,"roughnessFactor":1}}],"meshes":[{"name":"SM_Scrap","primitives":[{"attributes":{"NORMAL":2,"POSITION":1,"TEXCOORD_0":3},"indices":0,"material":0,"mode":4}]}],"nodes":[{"mesh":0,"name":"SM_Scrap","rotation":[0,0,0,1],"scale":[1,1,1],"translation":[0,0,0]}],"samplers":[{}],"scene":0,"scenes":[{"name":"Root Scene","nodes":[0]}],"textures":[{"name":"base_color_texture","sampler":0,"source":0}]}