{"accessors":[{"bufferView":0,"byteOffset":0,"componentType":5123,"count":792,"type":"SCALAR"},{"bufferView":1,"byteOffset":0,"componentType":5126,"count":528,"max":[0.0646699592471123,0.11699016392231,0.133304506540298],"min":[-0.08966726064682,-0.0033808669541,-0.11251669377089],"type":"VEC3"},{"bufferView":2,"byteOffset":0,"componentType":5126,"count":528,"type":"VEC3"},{"bufferView":3,"byteOffset":0,"componentType":5126,"count":528,"type":"VEC2"}],"asset":{"generator":"FBX2glTF v0.13.1","version":"2.0"},"bufferViews":[{"buffer":0,"byteLength":1584,"byteOffset":0,"target":34963},{"buffer":0,"byteLength":6336,"byteOffset":1584,"target":34962},{"buffer":0,"byteLength":6336,"byteOffset":7920,"target":34962},{"buffer":0,"byteLength":4224,"byteOffset":14256,"target":34962}],"buffers":[{"byteLength":18480,"uri":"SM_Screw.bin"}],"images":[{"name":"New Palitra","uri":"New Palitra.jpg"}],"materials":[{"alphaMode":"OPAQUE","doubleSided":false,"extras":{"fromFBX":{"isTruePBR":false,"shadingModel":"Phong"}},"name":"Main","pbrMetallicRoughness":{"baseColorFactor":[1,1,1,1],"baseColorTexture":{"index":0,"texCoord":0},"metallicFactor":0.400000005960464,"roughnessFactor":1}}],"meshes":[{"name":"SM_Screw","primitives":[{"attributes":{"NORMAL":2,"POSITION":1,"TEXCOORD_0":3},"indices":0,"material":0,"mode":4}]}],"nodes":[{"mesh":0,"name":"SM_Screw","rotation":[0,0,0,1],"scale":[1,1,1],"translation":[0,0,0]}],"samplers":[{}],"scene":0,"scenes":[{"name":"Root Scene","nodes":[0]}],"textures":[{"name":"base_color_texture","sampler":0,"source":0}]}