{"accessors":[{"bufferView":0,"byteOffset":0,"componentType":5123,"count":924,"type":"SCALAR"},{"bufferView":1,"byteOffset":0,"componentType":5126,"count":610,"max":[0.255860090255737,0.215220764279366,0.219760224223137],"min":[-0.25601094961166,0,-0.2193942964077],"type":"VEC3"},{"bufferView":2,"byteOffset":0,"componentType":5126,"count":610,"type":"VEC3"},{"bufferView":3,"byteOffset":0,"componentType":5126,"count":610,"type":"VEC2"},{"bufferView":4,"byteOffset":0,"componentType":5123,"count":693,"type":"SCALAR"},{"bufferView":5,"byteOffset":0,"componentType":5126,"count":549,"max":[0.185799822211266,0.185431987047195,0.188955813646317],"min":[-0.18335300683975,0.141678288578987,-0.18544772267342],"type":"VEC3"},{"bufferView":6,"byteOffset":0,"componentType":5126,"count":549,"type":"VEC3"},{"bufferView":7,"byteOffset":0,"componentType":5126,"count":549,"type":"VEC2"}],"asset":{"generator":"FBX2glTF v0.13.1","version":"2.0"},"bufferViews":[{"buffer":0,"byteLength":1848,"byteOffset":0,"target":34963},{"buffer":0,"byteLength":7320,"byteOffset":1848,"target":34962},{"buffer":0,"byteLength":7320,"byteOffset":9168,"target":34962},{"buffer":0,"byteLength":4880,"byteOffset":16488,"target":34962},{"buffer":0,"byteLength":1386,"byteOffset":21368,"target":34963},{"buffer":0,"byteLength":6588,"byteOffset":22756,"target":34962},{"buffer":0,"byteLength":6588,"byteOffset":29344,"target":34962},{"buffer":0,"byteLength":4392,"byteOffset":35932,"target":34962}],"buffers":[{"byteLength":40324,"uri":"SM_Saucepan.bin"}],"images":[{"name":"New Palitra","uri":"New Palitra.jpg"}],"materials":[{"alphaMode":"OPAQUE","doubleSided":false,"extras":{"fromFBX":{"isTruePBR":false,"shadingModel":"Phong"}},"name":"Main","pbrMetallicRoughness":{"baseColorFactor":[1,1,1,1],"baseColorTexture":{"index":0,"texCoord":0},"metallicFactor":0.400000005960464,"roughnessFactor":1}}],"meshes":[{"name":"SM_Saucepan","primitives":[{"attributes":{"NORMAL":2,"POSITION":1,"TEXCOORD_0":3},"indices":0,"material":0,"mode":4}]},{"name":"SM_Saucepa_Food","primitives":[{"attributes":{"NORMAL":6,"POSITION":5,"TEXCOORD_0":7},"indices":4,"material":0,"mode":4}]}],"nodes":[{"children":[1],"mesh":0,"name":"SM_Saucepan","rotation":[0,0,0,1],"scale":[1,1,1],"translation":[0,0,0]},{"mesh":1,"name":"SM_Saucepa_Food","rotation":[0,0,0,1],"scale":[1,1,1],"translation":[0,0,0]}],"samplers":[{}],"scene":0,"scenes":[{"name":"Root Scene","nodes":[0]}],"textures":[{"name":"base_color_texture","sampler":0,"source":0}]}