{"accessors":[{"bufferView":0,"byteOffset":0,"componentType":5123,"count":252,"type":"SCALAR"},{"bufferView":1,"byteOffset":0,"componentType":5126,"count":164,"max":[0.0644202008843422,0.32306170463562,0.00916784536093473],"min":[-0.06469797343016,-0.16706249117851,-0.00916784070432],"type":"VEC3"},{"bufferView":2,"byteOffset":0,"componentType":5126,"count":164,"type":"VEC3"},{"bufferView":3,"byteOffset":0,"componentType":5126,"count":164,"type":"VEC2"}],"asset":{"generator":"FBX2glTF v0.13.1","version":"2.0"},"bufferViews":[{"buffer":0,"byteLength":504,"byteOffset":0,"target":34963},{"buffer":0,"byteLength":1968,"byteOffset":504,"target":34962},{"buffer":0,"byteLength":1968,"byteOffset":2472,"target":34962},{"buffer":0,"byteLength":1312,"byteOffset":4440,"target":34962}],"buffers":[{"byteLength":5752,"uri":"SM_Spatula.bin"}],"images":[{"name":"New Palitra","uri":"Polygon_Texture2.png"}],"materials":[{"alphaMode":"OPAQUE","doubleSided":false,"extras":{"fromFBX":{"isTruePBR":false,"shadingModel":"Phong"}},"name":"Main","pbrMetallicRoughness":{"baseColorFactor":[1,1,1,1],"baseColorTexture":{"index":0,"texCoord":0},"metallicFactor":0.400000005960464,"roughnessFactor":1}}],"meshes":[{"name":"SM_Spatula","primitives":[{"attributes":{"NORMAL":2,"POSITION":1,"TEXCOORD_0":3},"indices":0,"material":0,"mode":4}]}],"nodes":[{"mesh":0,"name":"SM_Spatula","rotation":[0,0,0,1],"scale":[1,1,1],"translation":[0,0,0]}],"samplers":[{}],"scene":0,"scenes":[{"name":"Root Scene","nodes":[0]}],"textures":[{"name":"base_color_texture","sampler":0,"source":0}]}