{"accessors":[{"bufferView":0,"byteOffset":0,"componentType":5123,"count":66,"type":"SCALAR"},{"bufferView":1,"byteOffset":0,"componentType":5126,"count":44,"max":[3,3,0.200000017881393],"min":[-0.19999986886978,0,-3],"type":"VEC3"},{"bufferView":2,"byteOffset":0,"componentType":5126,"count":44,"type":"VEC3"},{"bufferView":3,"byteOffset":0,"componentType":5126,"count":44,"type":"VEC2"}],"asset":{"generator":"FBX2glTF v0.13.1","version":"2.0"},"bufferViews":[{"buffer":0,"byteLength":132,"byteOffset":0,"target":34963},{"buffer":0,"byteLength":528,"byteOffset":132,"target":34962},{"buffer":0,"byteLength":528,"byteOffset":660,"target":34962},{"buffer":0,"byteLength":352,"byteOffset":1188,"target":34962}],"buffers":[{"byteLength":1540,"uri":"SM_Wall_Corner_Out.bin"}],"images":[{"name":"New Palitra","uri":"New Palitra.jpg"}],"materials":[{"alphaMode":"OPAQUE","doubleSided":false,"extras":{"fromFBX":{"isTruePBR":false,"shadingModel":"Phong"}},"name":"Main","pbrMetallicRoughness":{"baseColorFactor":[1,1,1,1],"baseColorTexture":{"index":0,"texCoord":0},"metallicFactor":0.400000005960464,"roughnessFactor":1}}],"meshes":[{"name":"SM_Wall_Corner_Out","primitives":[{"attributes":{"NORMAL":2,"POSITION":1,"TEXCOORD_0":3},"indices":0,"material":0,"mode":4}]}],"nodes":[{"mesh":0,"name":"SM_Wall_Corner_Out","rotation":[0,0,0,1],"scale":[1,1,1],"translation":[0,0,0]}],"samplers":[{}],"scene":0,"scenes":[{"name":"Root Scene","nodes":[0]}],"textures":[{"name":"base_color_texture","sampler":0,"source":0}]}