{"accessors":[{"bufferView":0,"byteOffset":0,"componentType":5123,"count":2046,"type":"SCALAR"},{"bufferView":1,"byteOffset":0,"componentType":5126,"count":1336,"max":[0.183686316013336,0.514393925666809,0.192387670278549],"min":[-0.18254791200161,0.00045428198063746,-0.1915452927351],"type":"VEC3"},{"bufferView":2,"byteOffset":0,"componentType":5126,"count":1336,"type":"VEC3"},{"bufferView":3,"byteOffset":0,"componentType":5126,"count":1336,"type":"VEC2"}],"asset":{"generator":"FBX2glTF v0.13.1","version":"2.0"},"bufferViews":[{"buffer":0,"byteLength":4092,"byteOffset":0,"target":34963},{"buffer":0,"byteLength":16032,"byteOffset":4092,"target":34962},{"buffer":0,"byteLength":16032,"byteOffset":20124,"target":34962},{"buffer":0,"byteLength":10688,"byteOffset":36156,"target":34962}],"buffers":[{"byteLength":46844,"uri":"SM_Barrel_B_03.bin"}],"images":[{"name":"New Palitra","uri":"New Palitra.jpg"}],"materials":[{"alphaMode":"OPAQUE","doubleSided":false,"extras":{"fromFBX":{"isTruePBR":false,"shadingModel":"Phong"}},"name":"Main","pbrMetallicRoughness":{"baseColorFactor":[1,1,1,1],"baseColorTexture":{"index":0,"texCoord":0},"metallicFactor":0.400000005960464,"roughnessFactor":1}}],"meshes":[{"name":"SM_Barrel_B_03","primitives":[{"attributes":{"NORMAL":2,"POSITION":1,"TEXCOORD_0":3},"indices":0,"material":0,"mode":4}]}],"nodes":[{"mesh":0,"name":"SM_Barrel_B_03","rotation":[0,0,0,1],"scale":[1,1,1],"translation":[0,0,0]}],"samplers":[{}],"scene":0,"scenes":[{"name":"Root Scene","nodes":[0]}],"textures":[{"name":"base_color_texture","sampler":0,"source":0}]}