{"accessors":[{"bufferView":0,"byteOffset":0,"componentType":5123,"count":1692,"type":"SCALAR"},{"bufferView":1,"byteOffset":0,"componentType":5126,"count":1126,"max":[0.311124414205551,0.899999976158142,0.324938237667084],"min":[-0.3132820725441,0,-0.32692340016365],"type":"VEC3"},{"bufferView":2,"byteOffset":0,"componentType":5126,"count":1126,"type":"VEC3"},{"bufferView":3,"byteOffset":0,"componentType":5126,"count":1126,"type":"VEC2"},{"bufferView":4,"byteOffset":0,"componentType":5123,"count":297,"type":"SCALAR"},{"bufferView":5,"byteOffset":0,"componentType":5126,"count":191,"max":[0.28469654917717,0.0124626690521836,0.229299083352089],"min":[-0.2329817712307,-0.0265085902065,-0.3150200843811],"type":"VEC3"},{"bufferView":6,"byteOffset":0,"componentType":5126,"count":191,"type":"VEC3"},{"bufferView":7,"byteOffset":0,"componentType":5126,"count":191,"type":"VEC2"}],"asset":{"generator":"FBX2glTF v0.13.1","version":"2.0"},"bufferViews":[{"buffer":0,"byteLength":3384,"byteOffset":0,"target":34963},{"buffer":0,"byteLength":13512,"byteOffset":3384,"target":34962},{"buffer":0,"byteLength":13512,"byteOffset":16896,"target":34962},{"buffer":0,"byteLength":9008,"byteOffset":30408,"target":34962},{"buffer":0,"byteLength":594,"byteOffset":39416,"target":34963},{"buffer":0,"byteLength":2292,"byteOffset":40012,"target":34962},{"buffer":0,"byteLength":2292,"byteOffset":42304,"target":34962},{"buffer":0,"byteLength":1528,"byteOffset":44596,"target":34962}],"buffers":[{"byteLength":46124,"uri":"SM_Barrel_A_01.bin"}],"images":[{"name":"New Palitra","uri":"../../Textures/Polygon_Texture2.png"}],"materials":[{"alphaMode":"OPAQUE","doubleSided":false,"extras":{"fromFBX":{"isTruePBR":false,"shadingModel":"Phong"}},"name":"Main","pbrMetallicRoughness":{"baseColorFactor":[1,1,1,1],"baseColorTexture":{"index":0,"texCoord":0},"metallicFactor":0.400000005960464,"roughnessFactor":1}}],"meshes":[{"name":"SM_Barrel_A_01","primitives":[{"attributes":{"NORMAL":2,"POSITION":1,"TEXCOORD_0":3},"indices":0,"material":0,"mode":4}]},{"name":"SM_Lid_01","primitives":[{"attributes":{"NORMAL":6,"POSITION":5,"TEXCOORD_0":7},"indices":4,"material":0,"mode":4}]}],"nodes":[{"children":[1],"mesh":0,"name":"SM_Barrel_A_01","rotation":[0,0,0,1],"scale":[1,1,1],"translation":[0,0,0]},{"mesh":1,"name":"SM_Lid_01","rotation":[0,0,0,1],"scale":[1,1,1],"translation":[-0.02585601806641,0.891051054000854,0.0428605079650879]}],"samplers":[{}],"scene":0,"scenes":[{"name":"Root Scene","nodes":[0]}],"textures":[{"name":"base_color_texture","sampler":0,"source":0}]}