{"accessors":[{"bufferView":0,"byteOffset":0,"componentType":5123,"count":702,"type":"SCALAR"},{"bufferView":1,"byteOffset":0,"componentType":5126,"count":459,"max":[0.408860564231873,0.550373792648315,0.477942258119583],"min":[-0.46375212073326,0,-0.39110761880875],"type":"VEC3"},{"bufferView":2,"byteOffset":0,"componentType":5126,"count":459,"type":"VEC3"},{"bufferView":3,"byteOffset":0,"componentType":5126,"count":459,"type":"VEC2"}],"asset":{"generator":"FBX2glTF v0.13.1","version":"2.0"},"bufferViews":[{"buffer":0,"byteLength":1404,"byteOffset":0,"target":34963},{"buffer":0,"byteLength":5508,"byteOffset":1404,"target":34962},{"buffer":0,"byteLength":5508,"byteOffset":6912,"target":34962},{"buffer":0,"byteLength":3672,"byteOffset":12420,"target":34962}],"buffers":[{"byteLength":16092,"uri":"SM_Cardboard_Box_B.bin"}],"images":[{"name":"New Palitra","uri":"Polygon_Texture2.png"}],"materials":[{"alphaMode":"OPAQUE","doubleSided":false,"extras":{"fromFBX":{"isTruePBR":false,"shadingModel":"Phong"}},"name":"Main","pbrMetallicRoughness":{"baseColorFactor":[1,1,1,1],"baseColorTexture":{"index":0,"texCoord":0},"metallicFactor":0.400000005960464,"roughnessFactor":1}}],"meshes":[{"name":"SM_Cardboard_Box_B","primitives":[{"attributes":{"NORMAL":2,"POSITION":1,"TEXCOORD_0":3},"indices":0,"material":0,"mode":4}]}],"nodes":[{"mesh":0,"name":"SM_Cardboard_Box_B","rotation":[0,0,0,1],"scale":[1,1,1],"translation":[0,0,0]}],"samplers":[{}],"scene":0,"scenes":[{"name":"Root Scene","nodes":[0]}],"textures":[{"name":"base_color_texture","sampler":0,"source":0}]}