{"accessors":[{"bufferView":0,"byteOffset":0,"componentType":5123,"count":576,"type":"SCALAR"},{"bufferView":1,"byteOffset":0,"componentType":5126,"count":380,"max":[0.366689264774323,0.420351564884186,0.231978312134743],"min":[-0.36383128166199,-0.00341790635139,-0.23764155805111],"type":"VEC3"},{"bufferView":2,"byteOffset":0,"componentType":5126,"count":380,"type":"VEC3"},{"bufferView":3,"byteOffset":0,"componentType":5126,"count":380,"type":"VEC2"}],"asset":{"generator":"FBX2glTF v0.13.1","version":"2.0"},"bufferViews":[{"buffer":0,"byteLength":1152,"byteOffset":0,"target":34963},{"buffer":0,"byteLength":4560,"byteOffset":1152,"target":34962},{"buffer":0,"byteLength":4560,"byteOffset":5712,"target":34962},{"buffer":0,"byteLength":3040,"byteOffset":10272,"target":34962}],"buffers":[{"byteLength":13312,"uri":"SM_Cardboard_Box_С.bin"}],"images":[{"name":"New Palitra","uri":"Polygon_Texture2.png"}],"materials":[{"alphaMode":"OPAQUE","doubleSided":false,"extras":{"fromFBX":{"isTruePBR":false,"shadingModel":"Phong"}},"name":"Main","pbrMetallicRoughness":{"baseColorFactor":[1,1,1,1],"baseColorTexture":{"index":0,"texCoord":0},"metallicFactor":0.400000005960464,"roughnessFactor":1}}],"meshes":[{"name":"SM_Cardboard_Box_С","primitives":[{"attributes":{"NORMAL":2,"POSITION":1,"TEXCOORD_0":3},"indices":0,"material":0,"mode":4}]}],"nodes":[{"mesh":0,"name":"SM_Cardboard_Box_С","rotation":[0,0,0,1],"scale":[1,1,1],"translation":[0,0,0]}],"samplers":[{}],"scene":0,"scenes":[{"name":"Root Scene","nodes":[0]}],"textures":[{"name":"base_color_texture","sampler":0,"source":0}]}