{"accessors":[{"bufferView":0,"byteOffset":0,"componentType":5123,"count":276,"type":"SCALAR"},{"bufferView":1,"byteOffset":0,"componentType":5126,"count":180,"max":[0.338880717754364,0.543342173099518,0.268328994512558],"min":[-0.37769594788551,0,-0.25586977601051],"type":"VEC3"},{"bufferView":2,"byteOffset":0,"componentType":5126,"count":180,"type":"VEC3"},{"bufferView":3,"byteOffset":0,"componentType":5126,"count":180,"type":"VEC2"}],"asset":{"generator":"FBX2glTF v0.13.1","version":"2.0"},"bufferViews":[{"buffer":0,"byteLength":552,"byteOffset":0,"target":34963},{"buffer":0,"byteLength":2160,"byteOffset":552,"target":34962},{"buffer":0,"byteLength":2160,"byteOffset":2712,"target":34962},{"buffer":0,"byteLength":1440,"byteOffset":4872,"target":34962}],"buffers":[{"byteLength":6312,"uri":"SM_Cardboard_Box_A.bin"}],"images":[{"name":"New Palitra","uri":"New Palitra.jpg"}],"materials":[{"alphaMode":"OPAQUE","doubleSided":false,"extras":{"fromFBX":{"isTruePBR":false,"shadingModel":"Phong"}},"name":"Main","pbrMetallicRoughness":{"baseColorFactor":[1,1,1,1],"baseColorTexture":{"index":0,"texCoord":0},"metallicFactor":0.400000005960464,"roughnessFactor":1}}],"meshes":[{"name":"SM_Cardboard_Box_A","primitives":[{"attributes":{"NORMAL":2,"POSITION":1,"TEXCOORD_0":3},"indices":0,"material":0,"mode":4}]}],"nodes":[{"mesh":0,"name":"SM_Cardboard_Box_A","rotation":[0,0,0,1],"scale":[1,1,1],"translation":[0,0,0]}],"samplers":[{}],"scene":0,"scenes":[{"name":"Root Scene","nodes":[0]}],"textures":[{"name":"base_color_texture","sampler":0,"source":0}]}