{"accessors":[{"bufferView":0,"byteOffset":0,"componentType":5123,"count":5736,"type":"SCALAR"},{"bufferView":1,"byteOffset":0,"componentType":5126,"count":3695,"max":[0.410375654697418,0.4866923391819,0.275931984186172],"min":[-0.39378118515015,-0.00012099742889,-0.25768405199051],"type":"VEC3"},{"bufferView":2,"byteOffset":0,"componentType":5126,"count":3695,"type":"VEC3"},{"bufferView":3,"byteOffset":0,"componentType":5126,"count":3695,"type":"VEC2"}],"asset":{"generator":"FBX2glTF v0.13.1","version":"2.0"},"bufferViews":[{"buffer":0,"byteLength":11472,"byteOffset":0,"target":34963},{"buffer":0,"byteLength":44340,"byteOffset":11472,"target":34962},{"buffer":0,"byteLength":44340,"byteOffset":55812,"target":34962},{"buffer":0,"byteLength":29560,"byteOffset":100152,"target":34962}],"buffers":[{"byteLength":129712,"uri":"SM_Diesel_Generator.bin"}],"images":[{"name":"New Palitra","uri":"../../Textures/Polygon_Texture2.png"}],"materials":[{"alphaMode":"OPAQUE","doubleSided":false,"extras":{"fromFBX":{"isTruePBR":false,"shadingModel":"Phong"}},"name":"Main","pbrMetallicRoughness":{"baseColorFactor":[1,1,1,1],"baseColorTexture":{"index":0,"texCoord":0},"metallicFactor":0.400000005960464,"roughnessFactor":1}}],"meshes":[{"name":"SM_Diesel_Generator","primitives":[{"attributes":{"NORMAL":2,"POSITION":1,"TEXCOORD_0":3},"indices":0,"material":0,"mode":4}]}],"nodes":[{"mesh":0,"name":"SM_Diesel_Generator","rotation":[0,0,0,1],"scale":[1,1,1],"translation":[0,0,0]}],"samplers":[{}],"scene":0,"scenes":[{"name":"Root Scene","nodes":[0]}],"textures":[{"name":"base_color_texture","sampler":0,"source":0}]}