{"accessors":[{"bufferView":0,"byteOffset":0,"componentType":5123,"count":528,"type":"SCALAR"},{"bufferView":1,"byteOffset":0,"componentType":5126,"count":350,"max":[0.317130923271179,0.828316926956177,-0.01018142700195],"min":[-0.31713080406189,-0.81172722578049,-0.04715495929122],"type":"VEC3"},{"bufferView":2,"byteOffset":0,"componentType":5126,"count":350,"type":"VEC3"},{"bufferView":3,"byteOffset":0,"componentType":5126,"count":350,"type":"VEC2"}],"asset":{"generator":"FBX2glTF v0.13.1","version":"2.0"},"bufferViews":[{"buffer":0,"byteLength":1056,"byteOffset":0,"target":34963},{"buffer":0,"byteLength":4200,"byteOffset":1056,"target":34962},{"buffer":0,"byteLength":4200,"byteOffset":5256,"target":34962},{"buffer":0,"byteLength":2800,"byteOffset":9456,"target":34962}],"buffers":[{"byteLength":12256,"uri":"SM_Metal_Sheet_C.bin"}],"images":[{"name":"New Palitra","uri":"../../Textures/Polygon_Texture2.png"}],"materials":[{"alphaMode":"OPAQUE","doubleSided":false,"extras":{"fromFBX":{"isTruePBR":false,"shadingModel":"Phong"}},"name":"Main","pbrMetallicRoughness":{"baseColorFactor":[1,1,1,1],"baseColorTexture":{"index":0,"texCoord":0},"metallicFactor":0.400000005960464,"roughnessFactor":1}}],"meshes":[{"name":"SM_Metal_Sheet_C","primitives":[{"attributes":{"NORMAL":2,"POSITION":1,"TEXCOORD_0":3},"indices":0,"material":0,"mode":4}]}],"nodes":[{"mesh":0,"name":"SM_Metal_Sheet_C","rotation":[0,0,0,1],"scale":[1,1,1],"translation":[0,0,0]}],"samplers":[{}],"scene":0,"scenes":[{"name":"Root Scene","nodes":[0]}],"textures":[{"name":"base_color_texture","sampler":0,"source":0}]}