{"accessors":[{"bufferView":0,"byteOffset":0,"componentType":5123,"count":282,"type":"SCALAR"},{"bufferView":1,"byteOffset":0,"componentType":5126,"count":188,"max":[0.481787532567978,0.757910549640656,-0.01662665605545],"min":[-0.48178741335869,-0.6861509680748,-0.04751002788544],"type":"VEC3"},{"bufferView":2,"byteOffset":0,"componentType":5126,"count":188,"type":"VEC3"},{"bufferView":3,"byteOffset":0,"componentType":5126,"count":188,"type":"VEC2"}],"asset":{"generator":"FBX2glTF v0.13.1","version":"2.0"},"bufferViews":[{"buffer":0,"byteLength":564,"byteOffset":0,"target":34963},{"buffer":0,"byteLength":2256,"byteOffset":564,"target":34962},{"buffer":0,"byteLength":2256,"byteOffset":2820,"target":34962},{"buffer":0,"byteLength":1504,"byteOffset":5076,"target":34962}],"buffers":[{"byteLength":6580,"uri":"SM_Metal_Sheet_B.bin"}],"images":[{"name":"New Palitra","uri":"../../Textures/Polygon_Texture2.png"}],"materials":[{"alphaMode":"OPAQUE","doubleSided":false,"extras":{"fromFBX":{"isTruePBR":false,"shadingModel":"Phong"}},"name":"Main","pbrMetallicRoughness":{"baseColorFactor":[1,1,1,1],"baseColorTexture":{"index":0,"texCoord":0},"metallicFactor":0.400000005960464,"roughnessFactor":1}}],"meshes":[{"name":"SM_Metal_Sheet_B","primitives":[{"attributes":{"NORMAL":2,"POSITION":1,"TEXCOORD_0":3},"indices":0,"material":0,"mode":4}]}],"nodes":[{"mesh":0,"name":"SM_Metal_Sheet_B","rotation":[0,0,0,1],"scale":[1,1,1],"translation":[0,0,0]}],"samplers":[{}],"scene":0,"scenes":[{"name":"Root Scene","nodes":[0]}],"textures":[{"name":"base_color_texture","sampler":0,"source":0}]}