{"accessors":[{"bufferView":0,"byteOffset":0,"componentType":5123,"count":456,"type":"SCALAR"},{"bufferView":1,"byteOffset":0,"componentType":5126,"count":229,"max":[0.241861686110497,0.209578007459641,0.128872692584991],"min":[-0.24186164140701,0,-0.12887269258499],"type":"VEC3"},{"bufferView":2,"byteOffset":0,"componentType":5126,"count":229,"type":"VEC3"},{"bufferView":3,"byteOffset":0,"componentType":5126,"count":229,"type":"VEC2"},{"bufferView":4,"byteOffset":0,"componentType":5123,"count":426,"type":"SCALAR"},{"bufferView":5,"byteOffset":0,"componentType":5126,"count":244,"max":[0.252045184373856,0.0517156161367893,0.271616786718369],"min":[-0.25204515457153,-0.00941527448595,-0.01387139875442],"type":"VEC3"},{"bufferView":6,"byteOffset":0,"componentType":5126,"count":244,"type":"VEC3"},{"bufferView":7,"byteOffset":0,"componentType":5126,"count":244,"type":"VEC2"},{"bufferView":8,"byteOffset":0,"componentType":5123,"count":120,"type":"SCALAR"},{"bufferView":9,"byteOffset":0,"componentType":5126,"count":80,"max":[0.108476534485817,0.010310378856957,0.0706561133265495],"min":[-0.10847653448582,-0.01031037513167,-0.00729054724798],"type":"VEC3"},{"bufferView":10,"byteOffset":0,"componentType":5126,"count":80,"type":"VEC3"},{"bufferView":11,"byteOffset":0,"componentType":5126,"count":80,"type":"VEC2"}],"asset":{"generator":"FBX2glTF v0.13.1","version":"2.0"},"bufferViews":[{"buffer":0,"byteLength":912,"byteOffset":0,"target":34963},{"buffer":0,"byteLength":2748,"byteOffset":912,"target":34962},{"buffer":0,"byteLength":2748,"byteOffset":3660,"target":34962},{"buffer":0,"byteLength":1832,"byteOffset":6408,"target":34962},{"buffer":0,"byteLength":852,"byteOffset":8240,"target":34963},{"buffer":0,"byteLength":2928,"byteOffset":9092,"target":34962},{"buffer":0,"byteLength":2928,"byteOffset":12020,"target":34962},{"buffer":0,"byteLength":1952,"byteOffset":14948,"target":34962},{"buffer":0,"byteLength":240,"byteOffset":16900,"target":34963},{"buffer":0,"byteLength":960,"byteOffset":17140,"target":34962},{"buffer":0,"byteLength":960,"byteOffset":18100,"target":34962},{"buffer":0,"byteLength":640,"byteOffset":19060,"target":34962}],"buffers":[{"byteLength":19700,"uri":"SM_Metall_Box.bin"}],"images":[{"name":"New Palitra","uri":"New Palitra.jpg"}],"materials":[{"alphaMode":"OPAQUE","doubleSided":false,"extras":{"fromFBX":{"isTruePBR":false,"shadingModel":"Phong"}},"name":"Main","pbrMetallicRoughness":{"baseColorFactor":[1,1,1,1],"baseColorTexture":{"index":0,"texCoord":0},"metallicFactor":0.400000005960464,"roughnessFactor":1}}],"meshes":[{"name":"SM_Metall_Box","primitives":[{"attributes":{"NORMAL":2,"POSITION":1,"TEXCOORD_0":3},"indices":0,"material":0,"mode":4}]},{"name":"SM_Metall_Box_Lid","primitives":[{"attributes":{"NORMAL":6,"POSITION":5,"TEXCOORD_0":7},"indices":4,"material":0,"mode":4}]},{"name":"SM_Metall_Box_Handle","primitives":[{"attributes":{"NORMAL":10,"POSITION":9,"TEXCOORD_0":11},"indices":8,"material":0,"mode":4}]}],"nodes":[{"children":[1,2],"mesh":0,"name":"SM_Metall_Box","rotation":[0,0,0,1],"scale":[1,1,1],"translation":[0,0,0]},{"mesh":1,"name":"SM_Metall_Box_Lid","rotation":[0,0,0,1],"scale":[1,1,1],"translation":[0,0.206575751304626,-0.12887239456177]},{"mesh":2,"name":"SM_Metall_Box_Handle","rotation":[0,0,0,1],"scale":[1,1,1],"translation":[0,0.247590646147728,0]}],"samplers":[{}],"scene":0,"scenes":[{"name":"Root Scene","nodes":[0]}],"textures":[{"name":"base_color_texture","sampler":0,"source":0}]}