{"accessors":[{"bufferView":0,"byteOffset":0,"componentType":5123,"count":354,"type":"SCALAR"},{"bufferView":1,"byteOffset":0,"componentType":5126,"count":238,"max":[0.18918476998806,0.936553537845612,0.0417690798640251],"min":[-0.18918476998806,-1.06344652175903,-0.00000018432047],"type":"VEC3"},{"bufferView":2,"byteOffset":0,"componentType":5126,"count":238,"type":"VEC3"},{"bufferView":3,"byteOffset":0,"componentType":5126,"count":238,"type":"VEC2"}],"asset":{"generator":"FBX2glTF v0.13.1","version":"2.0"},"bufferViews":[{"buffer":0,"byteLength":708,"byteOffset":0,"target":34963},{"buffer":0,"byteLength":2856,"byteOffset":708,"target":34962},{"buffer":0,"byteLength":2856,"byteOffset":3564,"target":34962},{"buffer":0,"byteLength":1904,"byteOffset":6420,"target":34962}],"buffers":[{"byteLength":8324,"uri":"SM_Plywood_Board_C.bin"}],"images":[{"name":"New Palitra","uri":"Polygon_Texture2.png"}],"materials":[{"alphaMode":"OPAQUE","doubleSided":false,"extras":{"fromFBX":{"isTruePBR":false,"shadingModel":"Phong"}},"name":"Main","pbrMetallicRoughness":{"baseColorFactor":[1,1,1,1],"baseColorTexture":{"index":0,"texCoord":0},"metallicFactor":0.400000005960464,"roughnessFactor":1}}],"meshes":[{"name":"SM_Plywood_Board_C","primitives":[{"attributes":{"NORMAL":2,"POSITION":1,"TEXCOORD_0":3},"indices":0,"material":0,"mode":4}]}],"nodes":[{"mesh":0,"name":"SM_Plywood_Board_C","rotation":[0,0,0,1],"scale":[1,1,1],"translation":[0,0,0]}],"samplers":[{}],"scene":0,"scenes":[{"name":"Root Scene","nodes":[0]}],"textures":[{"name":"base_color_texture","sampler":0,"source":0}]}