{"accessors":[{"bufferView":0,"byteOffset":0,"componentType":5123,"count":414,"type":"SCALAR"},{"bufferView":1,"byteOffset":0,"componentType":5126,"count":280,"max":[0.695186138153076,0.278784811496735,0.0114988274872303],"min":[-0.62946546077728,-0.35026377439499,-0.011824157089],"type":"VEC3"},{"bufferView":2,"byteOffset":0,"componentType":5126,"count":280,"type":"VEC3"},{"bufferView":3,"byteOffset":0,"componentType":5126,"count":280,"type":"VEC2"}],"asset":{"generator":"FBX2glTF v0.13.1","version":"2.0"},"bufferViews":[{"buffer":0,"byteLength":828,"byteOffset":0,"target":34963},{"buffer":0,"byteLength":3360,"byteOffset":828,"target":34962},{"buffer":0,"byteLength":3360,"byteOffset":4188,"target":34962},{"buffer":0,"byteLength":2240,"byteOffset":7548,"target":34962}],"buffers":[{"byteLength":9788,"uri":"SM_Plywood_Board_A.bin"}],"images":[{"name":"New Palitra","uri":"Polygon_Texture2.png"}],"materials":[{"alphaMode":"OPAQUE","doubleSided":false,"extras":{"fromFBX":{"isTruePBR":false,"shadingModel":"Phong"}},"name":"Main","pbrMetallicRoughness":{"baseColorFactor":[1,1,1,1],"baseColorTexture":{"index":0,"texCoord":0},"metallicFactor":0.400000005960464,"roughnessFactor":1}}],"meshes":[{"name":"SM_Plywood_Board_A","primitives":[{"attributes":{"NORMAL":2,"POSITION":1,"TEXCOORD_0":3},"indices":0,"material":0,"mode":4}]}],"nodes":[{"mesh":0,"name":"SM_Plywood_Board_A","rotation":[0,0,0,1],"scale":[1,1,1],"translation":[0,0,0]}],"samplers":[{}],"scene":0,"scenes":[{"name":"Root Scene","nodes":[0]}],"textures":[{"name":"base_color_texture","sampler":0,"source":0}]}