{"accessors":[{"bufferView":0,"byteOffset":0,"componentType":5123,"count":648,"type":"SCALAR"},{"bufferView":1,"byteOffset":0,"componentType":5126,"count":341,"max":[0.357682108879089,0.37523478269577,0.212286829948425],"min":[-0.3338730931282,0,-0.20127332210541],"type":"VEC3"},{"bufferView":2,"byteOffset":0,"componentType":5126,"count":341,"type":"VEC3"},{"bufferView":3,"byteOffset":0,"componentType":5126,"count":341,"type":"VEC2"}],"asset":{"generator":"FBX2glTF v0.13.1","version":"2.0"},"bufferViews":[{"buffer":0,"byteLength":1296,"byteOffset":0,"target":34963},{"buffer":0,"byteLength":4092,"byteOffset":1296,"target":34962},{"buffer":0,"byteLength":4092,"byteOffset":5388,"target":34962},{"buffer":0,"byteLength":2728,"byteOffset":9480,"target":34962}],"buffers":[{"byteLength":12208,"uri":"SM_Rack.bin"}],"images":[{"name":"New Palitra","uri":"New Palitra.jpg"}],"materials":[{"alphaMode":"OPAQUE","doubleSided":false,"extras":{"fromFBX":{"isTruePBR":false,"shadingModel":"Phong"}},"name":"Main","pbrMetallicRoughness":{"baseColorFactor":[1,1,1,1],"baseColorTexture":{"index":0,"texCoord":0},"metallicFactor":0.400000005960464,"roughnessFactor":1}}],"meshes":[{"name":"SM_Rack","primitives":[{"attributes":{"NORMAL":2,"POSITION":1,"TEXCOORD_0":3},"indices":0,"material":0,"mode":4}]}],"nodes":[{"mesh":0,"name":"SM_Rack","rotation":[0,0,0,1],"scale":[1,1,1],"translation":[0,0,0]}],"samplers":[{}],"scene":0,"scenes":[{"name":"Root Scene","nodes":[0]}],"textures":[{"name":"base_color_texture","sampler":0,"source":0}]}