{"accessors":[{"bufferView":0,"byteOffset":0,"componentType":5123,"count":1032,"type":"SCALAR"},{"bufferView":1,"byteOffset":0,"componentType":5126,"count":654,"max":[0.186444729566574,0.287536144256592,0.149074599146843],"min":[-0.18644472956657,0,-0.14907459914684],"type":"VEC3"},{"bufferView":2,"byteOffset":0,"componentType":5126,"count":654,"type":"VEC3"},{"bufferView":3,"byteOffset":0,"componentType":5126,"count":654,"type":"VEC2"},{"bufferView":4,"byteOffset":0,"componentType":5123,"count":606,"type":"SCALAR"},{"bufferView":5,"byteOffset":0,"componentType":5126,"count":386,"max":[0.0955052226781845,0.174007385969162,0.226894423365593],"min":[-0.09535703808069,-0.05635142326355,-0.32029739022255],"type":"VEC3"},{"bufferView":6,"byteOffset":0,"componentType":5126,"count":386,"type":"VEC3"},{"bufferView":7,"byteOffset":0,"componentType":5126,"count":386,"type":"VEC2"},{"bufferView":8,"byteOffset":0,"componentType":5123,"count":252,"type":"SCALAR"},{"bufferView":9,"byteOffset":0,"componentType":5126,"count":164,"max":[0.200029537081718,0.0165722500532866,0.0431596040725708],"min":[-0.06019448116422,-0.01657232642174,-0.00000001490116],"type":"VEC3"},{"bufferView":10,"byteOffset":0,"componentType":5126,"count":164,"type":"VEC3"},{"bufferView":11,"byteOffset":0,"componentType":5126,"count":164,"type":"VEC2"}],"asset":{"generator":"FBX2glTF v0.13.1","version":"2.0"},"bufferViews":[{"buffer":0,"byteLength":2064,"byteOffset":0,"target":34963},{"buffer":0,"byteLength":7848,"byteOffset":2064,"target":34962},{"buffer":0,"byteLength":7848,"byteOffset":9912,"target":34962},{"buffer":0,"byteLength":5232,"byteOffset":17760,"target":34962},{"buffer":0,"byteLength":1212,"byteOffset":22992,"target":34963},{"buffer":0,"byteLength":4632,"byteOffset":24204,"target":34962},{"buffer":0,"byteLength":4632,"byteOffset":28836,"target":34962},{"buffer":0,"byteLength":3088,"byteOffset":33468,"target":34962},{"buffer":0,"byteLength":504,"byteOffset":36556,"target":34963},{"buffer":0,"byteLength":1968,"byteOffset":37060,"target":34962},{"buffer":0,"byteLength":1968,"byteOffset":39028,"target":34962},{"buffer":0,"byteLength":1312,"byteOffset":40996,"target":34962}],"buffers":[{"byteLength":42308,"uri":"SM_Vise.bin"}],"images":[{"name":"New Palitra","uri":"Polygon_Texture2.png"}],"materials":[{"alphaMode":"OPAQUE","doubleSided":false,"extras":{"fromFBX":{"isTruePBR":false,"shadingModel":"Phong"}},"name":"Main","pbrMetallicRoughness":{"baseColorFactor":[1,1,1,1],"baseColorTexture":{"index":0,"texCoord":0},"metallicFactor":0.400000005960464,"roughnessFactor":1}}],"meshes":[{"name":"SM_Vise","primitives":[{"attributes":{"NORMAL":2,"POSITION":1,"TEXCOORD_0":3},"indices":0,"material":0,"mode":4}]},{"name":"SM_Vise_Bracket","primitives":[{"attributes":{"NORMAL":6,"POSITION":5,"TEXCOORD_0":7},"indices":4,"material":0,"mode":4}]},{"name":"SM_Vise_Arm","primitives":[{"attributes":{"NORMAL":10,"POSITION":9,"TEXCOORD_0":11},"indices":8,"material":0,"mode":4}]}],"nodes":[{"children":[1,2],"mesh":0,"name":"SM_Vise","rotation":[0,0,0,1],"scale":[1,1,1],"translation":[0,0,0]},{"mesh":1,"name":"SM_Vise_Bracket","rotation":[0,0,0,1],"scale":[1,1,1],"translation":[0,0.108031272888184,0.0216987133026123]},{"mesh":2,"name":"SM_Vise_Arm","rotation":[0,0,0,1],"scale":[1,1,1],"translation":[0,0.113094806671143,0.248593091964722]}],"samplers":[{}],"scene":0,"scenes":[{"name":"Root Scene","nodes":[0]}],"textures":[{"name":"base_color_texture","sampler":0,"source":0}]}