{"accessors":[{"bufferView":0,"byteOffset":0,"componentType":5123,"count":576,"type":"SCALAR"},{"bufferView":1,"byteOffset":0,"componentType":5126,"count":364,"max":[0.1209876537323,0.887059986591339,0.0270904805511236],"min":[-0.08969497680664,-1.09742331504822,-0.02678303606808],"type":"VEC3"},{"bufferView":2,"byteOffset":0,"componentType":5126,"count":364,"type":"VEC3"},{"bufferView":3,"byteOffset":0,"componentType":5126,"count":364,"type":"VEC2"}],"asset":{"generator":"FBX2glTF v0.13.1","version":"2.0"},"bufferViews":[{"buffer":0,"byteLength":1152,"byteOffset":0,"target":34963},{"buffer":0,"byteLength":4368,"byteOffset":1152,"target":34962},{"buffer":0,"byteLength":4368,"byteOffset":5520,"target":34962},{"buffer":0,"byteLength":2912,"byteOffset":9888,"target":34962}],"buffers":[{"byteLength":12800,"uri":"SM_Wooden_Plank_C.bin"}],"images":[{"name":"New Palitra","uri":"Polygon_Texture2.png"}],"materials":[{"alphaMode":"OPAQUE","doubleSided":false,"extras":{"fromFBX":{"isTruePBR":false,"shadingModel":"Phong"}},"name":"Main","pbrMetallicRoughness":{"baseColorFactor":[1,1,1,1],"baseColorTexture":{"index":0,"texCoord":0},"metallicFactor":0.400000005960464,"roughnessFactor":1}}],"meshes":[{"name":"SM_Wooden_Plank_C","primitives":[{"attributes":{"NORMAL":2,"POSITION":1,"TEXCOORD_0":3},"indices":0,"material":0,"mode":4}]}],"nodes":[{"mesh":0,"name":"SM_Wooden_Plank_C","rotation":[0,0,0,1],"scale":[1,1,1],"translation":[0,0,0]}],"samplers":[{}],"scene":0,"scenes":[{"name":"Root Scene","nodes":[0]}],"textures":[{"name":"base_color_texture","sampler":0,"source":0}]}