{"accessors":[{"bufferView":0,"byteOffset":0,"componentType":5123,"count":1158,"type":"SCALAR"},{"bufferView":1,"byteOffset":0,"componentType":5126,"count":707,"max":[0.558763027191162,0.228366240859032,0.698561787605286],"min":[-0.55876308679581,0,-0.85134708881378],"type":"VEC3"},{"bufferView":2,"byteOffset":0,"componentType":5126,"count":707,"type":"VEC3"},{"bufferView":3,"byteOffset":0,"componentType":5126,"count":707,"type":"VEC2"}],"asset":{"generator":"FBX2glTF v0.13.1","version":"2.0"},"bufferViews":[{"buffer":0,"byteLength":2316,"byteOffset":0,"target":34963},{"buffer":0,"byteLength":8484,"byteOffset":2316,"target":34962},{"buffer":0,"byteLength":8484,"byteOffset":10800,"target":34962},{"buffer":0,"byteLength":5656,"byteOffset":19284,"target":34962}],"buffers":[{"byteLength":24940,"uri":"SM_Wooden_Pallet_A.bin"}],"images":[{"name":"New Palitra","uri":"../../Textures/Polygon_Texture2.png"}],"materials":[{"alphaMode":"OPAQUE","doubleSided":false,"extras":{"fromFBX":{"isTruePBR":false,"shadingModel":"Phong"}},"name":"Main","pbrMetallicRoughness":{"baseColorFactor":[1,1,1,1],"baseColorTexture":{"index":0,"texCoord":0},"metallicFactor":0.400000005960464,"roughnessFactor":1}}],"meshes":[{"name":"SM_Wooden_Pallet_A","primitives":[{"attributes":{"NORMAL":2,"POSITION":1,"TEXCOORD_0":3},"indices":0,"material":0,"mode":4}]}],"nodes":[{"mesh":0,"name":"SM_Wooden_Pallet_A","rotation":[0,0,0,1],"scale":[1,1,1],"translation":[0,0,0]}],"samplers":[{}],"scene":0,"scenes":[{"name":"Root Scene","nodes":[0]}],"textures":[{"name":"base_color_texture","sampler":0,"source":0}]}