{"accessors":[{"bufferView":0,"byteOffset":0,"componentType":5123,"count":135,"type":"SCALAR"},{"bufferView":1,"byteOffset":0,"componentType":5126,"count":78,"max":[0.264497578144073,0.0285110175609589,0.193197280168533],"min":[-0.26449757814407,0,-0.19319728016853],"type":"VEC3"},{"bufferView":2,"byteOffset":0,"componentType":5126,"count":78,"type":"VEC3"},{"bufferView":3,"byteOffset":0,"componentType":5126,"count":78,"type":"VEC2"}],"asset":{"generator":"FBX2glTF v0.13.1","version":"2.0"},"bufferViews":[{"buffer":0,"byteLength":270,"byteOffset":0,"target":34963},{"buffer":0,"byteLength":936,"byteOffset":272,"target":34962},{"buffer":0,"byteLength":936,"byteOffset":1208,"target":34962},{"buffer":0,"byteLength":624,"byteOffset":2144,"target":34962}],"buffers":[{"byteLength":2768,"uri":"SM_Working_Board.bin"}],"images":[{"name":"New Palitra","uri":"New Palitra.jpg"}],"materials":[{"alphaMode":"OPAQUE","doubleSided":false,"extras":{"fromFBX":{"isTruePBR":false,"shadingModel":"Phong"}},"name":"Main","pbrMetallicRoughness":{"baseColorFactor":[1,1,1,1],"baseColorTexture":{"index":0,"texCoord":0},"metallicFactor":0.400000005960464,"roughnessFactor":1}}],"meshes":[{"name":"SM_Working_Board","primitives":[{"attributes":{"NORMAL":2,"POSITION":1,"TEXCOORD_0":3},"indices":0,"material":0,"mode":4}]}],"nodes":[{"mesh":0,"name":"SM_Working_Board","rotation":[0,0,0,1],"scale":[1,1,1],"translation":[0.0000000596046447753906,0.0000000353902578353882,-0.02094067446887]}],"samplers":[{}],"scene":0,"scenes":[{"name":"Root Scene","nodes":[0]}],"textures":[{"name":"base_color_texture","sampler":0,"source":0}]}