{"accessors":[{"bufferView":0,"byteOffset":0,"componentType":5123,"count":1422,"type":"SCALAR"},{"bufferView":1,"byteOffset":0,"componentType":5126,"count":896,"max":[1.02334237098694,0.228366255760193,0.781256020069122],"min":[-1.03220736980438,0,-0.78693240880966],"type":"VEC3"},{"bufferView":2,"byteOffset":0,"componentType":5126,"count":896,"type":"VEC3"},{"bufferView":3,"byteOffset":0,"componentType":5126,"count":896,"type":"VEC2"}],"asset":{"generator":"FBX2glTF v0.13.1","version":"2.0"},"bufferViews":[{"buffer":0,"byteLength":2844,"byteOffset":0,"target":34963},{"buffer":0,"byteLength":10752,"byteOffset":2844,"target":34962},{"buffer":0,"byteLength":10752,"byteOffset":13596,"target":34962},{"buffer":0,"byteLength":7168,"byteOffset":24348,"target":34962}],"buffers":[{"byteLength":31516,"uri":"SM_Wooden_Pallet_B.bin"}],"images":[{"name":"New Palitra","uri":"../../Textures/Polygon_Texture2.png"}],"materials":[{"alphaMode":"OPAQUE","doubleSided":false,"extras":{"fromFBX":{"isTruePBR":false,"shadingModel":"Phong"}},"name":"Main","pbrMetallicRoughness":{"baseColorFactor":[1,1,1,1],"baseColorTexture":{"index":0,"texCoord":0},"metallicFactor":0.400000005960464,"roughnessFactor":1}}],"meshes":[{"name":"SM_Wooden_Pallet_B","primitives":[{"attributes":{"NORMAL":2,"POSITION":1,"TEXCOORD_0":3},"indices":0,"material":0,"mode":4}]}],"nodes":[{"mesh":0,"name":"SM_Wooden_Pallet_B","rotation":[0,0,0,1],"scale":[1,1,1],"translation":[0,0,0]}],"samplers":[{}],"scene":0,"scenes":[{"name":"Root Scene","nodes":[0]}],"textures":[{"name":"base_color_texture","sampler":0,"source":0}]}