{"accessors":[{"bufferView":0,"byteOffset":0,"componentType":5123,"count":552,"type":"SCALAR"},{"bufferView":1,"byteOffset":0,"componentType":5126,"count":374,"max":[0.111679762601852,1,0.0282691325992346],"min":[-0.11167974025011,-1,-0.02629606239498],"type":"VEC3"},{"bufferView":2,"byteOffset":0,"componentType":5126,"count":374,"type":"VEC3"},{"bufferView":3,"byteOffset":0,"componentType":5126,"count":374,"type":"VEC2"}],"asset":{"generator":"FBX2glTF v0.13.1","version":"2.0"},"bufferViews":[{"buffer":0,"byteLength":1104,"byteOffset":0,"target":34963},{"buffer":0,"byteLength":4488,"byteOffset":1104,"target":34962},{"buffer":0,"byteLength":4488,"byteOffset":5592,"target":34962},{"buffer":0,"byteLength":2992,"byteOffset":10080,"target":34962}],"buffers":[{"byteLength":13072,"uri":"SM_Wooden_Plank_B.bin"}],"images":[{"name":"New Palitra","uri":"New Palitra.jpg"}],"materials":[{"alphaMode":"OPAQUE","doubleSided":false,"extras":{"fromFBX":{"isTruePBR":false,"shadingModel":"Phong"}},"name":"Main","pbrMetallicRoughness":{"baseColorFactor":[1,1,1,1],"baseColorTexture":{"index":0,"texCoord":0},"metallicFactor":0.400000005960464,"roughnessFactor":1}}],"meshes":[{"name":"SM_Wooden_Plank_B","primitives":[{"attributes":{"NORMAL":2,"POSITION":1,"TEXCOORD_0":3},"indices":0,"material":0,"mode":4}]}],"nodes":[{"mesh":0,"name":"SM_Wooden_Plank_B","rotation":[0,0,0,1],"scale":[1,1,1],"translation":[0,0,0]}],"samplers":[{}],"scene":0,"scenes":[{"name":"Root Scene","nodes":[0]}],"textures":[{"name":"base_color_texture","sampler":0,"source":0}]}