{"accessors":[{"bufferView":0,"byteOffset":0,"componentType":5123,"count":3357,"type":"SCALAR"},{"bufferView":1,"byteOffset":0,"componentType":5126,"count":2237,"max":[0.446364194154739,2.70710444450378,0.722173929214478],"min":[-0.52344870567322,1.50537550449371,0.192314296960831],"type":"VEC3"},{"bufferView":2,"byteOffset":0,"componentType":5126,"count":2237,"type":"VEC3"},{"bufferView":3,"byteOffset":0,"componentType":5126,"count":2237,"type":"VEC2"}],"asset":{"generator":"FBX2glTF v0.13.1","version":"2.0"},"bufferViews":[{"buffer":0,"byteLength":6714,"byteOffset":0,"target":34963},{"buffer":0,"byteLength":26844,"byteOffset":6716,"target":34962},{"buffer":0,"byteLength":26844,"byteOffset":33560,"target":34962},{"buffer":0,"byteLength":17896,"byteOffset":60404,"target":34962}],"buffers":[{"byteLength":78300,"uri":"SM_Air_Conditioner.bin"}],"images":[{"name":"New Palitra","uri":"Polygon_Texture2.png"}],"materials":[{"alphaMode":"OPAQUE","doubleSided":false,"extras":{"fromFBX":{"isTruePBR":false,"shadingModel":"Phong"}},"name":"Main","pbrMetallicRoughness":{"baseColorFactor":[1,1,1,1],"baseColorTexture":{"index":0,"texCoord":0},"metallicFactor":0.400000005960464,"roughnessFactor":1}}],"meshes":[{"name":"SM_Air_Conditioner","primitives":[{"attributes":{"NORMAL":2,"POSITION":1,"TEXCOORD_0":3},"indices":0,"material":0,"mode":4}]}],"nodes":[{"mesh":0,"name":"SM_Air_Conditioner","rotation":[0,0,0,1],"scale":[1,1,1],"translation":[0,0,0]}],"samplers":[{}],"scene":0,"scenes":[{"name":"Root Scene","nodes":[0]}],"textures":[{"name":"base_color_texture","sampler":0,"source":0}]}