{"accessors":[{"bufferView":0,"byteOffset":0,"componentType":5123,"count":594,"type":"SCALAR"},{"bufferView":1,"byteOffset":0,"componentType":5126,"count":402,"max":[0.372703492641449,0.659361243247986,0.024204608052969],"min":[-0.39969995617866,-0.78768980503082,-0.02400498278439],"type":"VEC3"},{"bufferView":2,"byteOffset":0,"componentType":5126,"count":402,"type":"VEC3"},{"bufferView":3,"byteOffset":0,"componentType":5126,"count":402,"type":"VEC2"}],"asset":{"generator":"FBX2glTF v0.13.1","version":"2.0"},"bufferViews":[{"buffer":0,"byteLength":1188,"byteOffset":0,"target":34963},{"buffer":0,"byteLength":4824,"byteOffset":1188,"target":34962},{"buffer":0,"byteLength":4824,"byteOffset":6012,"target":34962},{"buffer":0,"byteLength":3216,"byteOffset":10836,"target":34962}],"buffers":[{"byteLength":14052,"uri":"SM_Bullet_Hole_D.bin"}],"images":[{"name":"New Palitra","uri":"../../Textures/Polygon_Texture2.png"}],"materials":[{"alphaMode":"OPAQUE","doubleSided":false,"extras":{"fromFBX":{"isTruePBR":false,"shadingModel":"Phong"}},"name":"Main","pbrMetallicRoughness":{"baseColorFactor":[1,1,1,1],"baseColorTexture":{"index":0,"texCoord":0},"metallicFactor":0.400000005960464,"roughnessFactor":1}}],"meshes":[{"name":"SM_Bullet_Hole_D","primitives":[{"attributes":{"NORMAL":2,"POSITION":1,"TEXCOORD_0":3},"indices":0,"material":0,"mode":4}]}],"nodes":[{"mesh":0,"name":"SM_Bullet_Hole_D","rotation":[0,0,0,1],"scale":[1,1,1],"translation":[0,0,0]}],"samplers":[{}],"scene":0,"scenes":[{"name":"Root Scene","nodes":[0]}],"textures":[{"name":"base_color_texture","sampler":0,"source":0}]}