{"accessors":[{"bufferView":0,"byteOffset":0,"componentType":5123,"count":792,"type":"SCALAR"},{"bufferView":1,"byteOffset":0,"componentType":5126,"count":536,"max":[0.676646769046783,0.840404331684113,0.0240315645933151],"min":[-0.54737967252731,-0.88755756616592,-0.02417804114521],"type":"VEC3"},{"bufferView":2,"byteOffset":0,"componentType":5126,"count":536,"type":"VEC3"},{"bufferView":3,"byteOffset":0,"componentType":5126,"count":536,"type":"VEC2"}],"asset":{"generator":"FBX2glTF v0.13.1","version":"2.0"},"bufferViews":[{"buffer":0,"byteLength":1584,"byteOffset":0,"target":34963},{"buffer":0,"byteLength":6432,"byteOffset":1584,"target":34962},{"buffer":0,"byteLength":6432,"byteOffset":8016,"target":34962},{"buffer":0,"byteLength":4288,"byteOffset":14448,"target":34962}],"buffers":[{"byteLength":18736,"uri":"SM_Bullet_Hole_E.bin"}],"images":[{"name":"New Palitra","uri":"../../Textures/Polygon_Texture2.png"}],"materials":[{"alphaMode":"OPAQUE","doubleSided":false,"extras":{"fromFBX":{"isTruePBR":false,"shadingModel":"Phong"}},"name":"Main","pbrMetallicRoughness":{"baseColorFactor":[1,1,1,1],"baseColorTexture":{"index":0,"texCoord":0},"metallicFactor":0.400000005960464,"roughnessFactor":1}}],"meshes":[{"name":"SM_Bullet_Hole_E","primitives":[{"attributes":{"NORMAL":2,"POSITION":1,"TEXCOORD_0":3},"indices":0,"material":0,"mode":4}]}],"nodes":[{"mesh":0,"name":"SM_Bullet_Hole_E","rotation":[0,0,0,1],"scale":[1,1,1],"translation":[0,0,0]}],"samplers":[{}],"scene":0,"scenes":[{"name":"Root Scene","nodes":[0]}],"textures":[{"name":"base_color_texture","sampler":0,"source":0}]}