{"accessors":[{"bufferView":0,"byteOffset":0,"componentType":5123,"count":99,"type":"SCALAR"},{"bufferView":1,"byteOffset":0,"componentType":5126,"count":67,"max":[0.12417109310627,0.122285723686218,0.0237711630761623],"min":[-0.12124594300985,-0.13272684812546,-0.02443826384842],"type":"VEC3"},{"bufferView":2,"byteOffset":0,"componentType":5126,"count":67,"type":"VEC3"},{"bufferView":3,"byteOffset":0,"componentType":5126,"count":67,"type":"VEC2"}],"asset":{"generator":"FBX2glTF v0.13.1","version":"2.0"},"bufferViews":[{"buffer":0,"byteLength":198,"byteOffset":0,"target":34963},{"buffer":0,"byteLength":804,"byteOffset":200,"target":34962},{"buffer":0,"byteLength":804,"byteOffset":1004,"target":34962},{"buffer":0,"byteLength":536,"byteOffset":1808,"target":34962}],"buffers":[{"byteLength":2344,"uri":"SM_Bullet_Hole_C.bin"}],"images":[{"name":"New Palitra","uri":"../../Textures/Polygon_Texture2.png"}],"materials":[{"alphaMode":"OPAQUE","doubleSided":false,"extras":{"fromFBX":{"isTruePBR":false,"shadingModel":"Phong"}},"name":"Main","pbrMetallicRoughness":{"baseColorFactor":[1,1,1,1],"baseColorTexture":{"index":0,"texCoord":0},"metallicFactor":0.400000005960464,"roughnessFactor":1}}],"meshes":[{"name":"SM_Bullet_Hole_C","primitives":[{"attributes":{"NORMAL":2,"POSITION":1,"TEXCOORD_0":3},"indices":0,"material":0,"mode":4}]}],"nodes":[{"mesh":0,"name":"SM_Bullet_Hole_C","rotation":[0,0,0,1],"scale":[1,1,1],"translation":[0,0,0]}],"samplers":[{}],"scene":0,"scenes":[{"name":"Root Scene","nodes":[0]}],"textures":[{"name":"base_color_texture","sampler":0,"source":0}]}