{"accessors":[{"bufferView":0,"byteOffset":0,"componentType":5123,"count":336,"type":"SCALAR"},{"bufferView":1,"byteOffset":0,"componentType":5126,"count":224,"max":[3,0.0922226905822754,0.301848471164703],"min":[0,-0.00000000448199,-0.51318919658661],"type":"VEC3"},{"bufferView":2,"byteOffset":0,"componentType":5126,"count":224,"type":"VEC3"},{"bufferView":3,"byteOffset":0,"componentType":5126,"count":224,"type":"VEC2"}],"asset":{"generator":"FBX2glTF v0.13.1","version":"2.0"},"bufferViews":[{"buffer":0,"byteLength":672,"byteOffset":0,"target":34963},{"buffer":0,"byteLength":2688,"byteOffset":672,"target":34962},{"buffer":0,"byteLength":2688,"byteOffset":3360,"target":34962},{"buffer":0,"byteLength":1792,"byteOffset":6048,"target":34962}],"buffers":[{"byteLength":7840,"uri":"SM_Floor_Cable_E.bin"}],"materials":[{"alphaMode":"OPAQUE","doubleSided":false,"extras":{"fromFBX":{"isTruePBR":false,"shadingModel":"Phong"}},"name":"Main_Color","pbrMetallicRoughness":{"baseColorFactor":[0.800000011920929,0.800000011920929,0.800000011920929,1],"metallicFactor":0.400000005960464,"roughnessFactor":1}}],"meshes":[{"name":"SM_Floor_Cable_E","primitives":[{"attributes":{"NORMAL":2,"POSITION":1,"TEXCOORD_0":3},"indices":0,"material":0,"mode":4}]}],"nodes":[{"mesh":0,"name":"SM_Floor_Cable_E","rotation":[0,0,0,1],"scale":[1,1,1],"translation":[0,0,0]}],"samplers":[{}],"scene":0,"scenes":[{"name":"Root Scene","nodes":[0]}]}