{"accessors":[{"bufferView":0,"byteOffset":0,"componentType":5123,"count":216,"type":"SCALAR"},{"bufferView":1,"byteOffset":0,"componentType":5126,"count":144,"max":[3,0.0500000081956387,0.141916692256927],"min":[-0.00000000372529,-0.00000000448199,-0.11657256633043],"type":"VEC3"},{"bufferView":2,"byteOffset":0,"componentType":5126,"count":144,"type":"VEC3"},{"bufferView":3,"byteOffset":0,"componentType":5126,"count":144,"type":"VEC2"}],"asset":{"generator":"FBX2glTF v0.13.1","version":"2.0"},"bufferViews":[{"buffer":0,"byteLength":432,"byteOffset":0,"target":34963},{"buffer":0,"byteLength":1728,"byteOffset":432,"target":34962},{"buffer":0,"byteLength":1728,"byteOffset":2160,"target":34962},{"buffer":0,"byteLength":1152,"byteOffset":3888,"target":34962}],"buffers":[{"byteLength":5040,"uri":"SM_Floor_Cable_A.bin"}],"materials":[{"alphaMode":"OPAQUE","doubleSided":false,"extras":{"fromFBX":{"isTruePBR":false,"shadingModel":"Phong"}},"name":"Main_Color","pbrMetallicRoughness":{"baseColorFactor":[0.800000011920929,0.800000011920929,0.800000011920929,1],"metallicFactor":0.400000005960464,"roughnessFactor":1}}],"meshes":[{"name":"SM_Floor_Cable_A","primitives":[{"attributes":{"NORMAL":2,"POSITION":1,"TEXCOORD_0":3},"indices":0,"material":0,"mode":4}]}],"nodes":[{"mesh":0,"name":"SM_Floor_Cable_A","rotation":[0,0,0,1],"scale":[1,1,1],"translation":[0,0,0]}],"samplers":[{}],"scene":0,"scenes":[{"name":"Root Scene","nodes":[0]}]}