{"accessors":[{"bufferView":0,"byteOffset":0,"componentType":5123,"count":552,"type":"SCALAR"},{"bufferView":1,"byteOffset":0,"componentType":5126,"count":368,"max":[3,0.10087113827467,0.337658226490021],"min":[0,-0.00000000448199,-0.60997623205185],"type":"VEC3"},{"bufferView":2,"byteOffset":0,"componentType":5126,"count":368,"type":"VEC3"},{"bufferView":3,"byteOffset":0,"componentType":5126,"count":368,"type":"VEC2"}],"asset":{"generator":"FBX2glTF v0.13.1","version":"2.0"},"bufferViews":[{"buffer":0,"byteLength":1104,"byteOffset":0,"target":34963},{"buffer":0,"byteLength":4416,"byteOffset":1104,"target":34962},{"buffer":0,"byteLength":4416,"byteOffset":5520,"target":34962},{"buffer":0,"byteLength":2944,"byteOffset":9936,"target":34962}],"buffers":[{"byteLength":12880,"uri":"SM_Floor_Cable_C.bin"}],"materials":[{"alphaMode":"OPAQUE","doubleSided":false,"extras":{"fromFBX":{"isTruePBR":false,"shadingModel":"Phong"}},"name":"Main_Color","pbrMetallicRoughness":{"baseColorFactor":[0.800000011920929,0.800000011920929,0.800000011920929,1],"metallicFactor":0.400000005960464,"roughnessFactor":1}}],"meshes":[{"name":"SM_Floor_Cable_C","primitives":[{"attributes":{"NORMAL":2,"POSITION":1,"TEXCOORD_0":3},"indices":0,"material":0,"mode":4}]}],"nodes":[{"mesh":0,"name":"SM_Floor_Cable_C","rotation":[0,0,0,1],"scale":[1,1,1],"translation":[0,0,0]}],"samplers":[{}],"scene":0,"scenes":[{"name":"Root Scene","nodes":[0]}]}