{"accessors":[{"bufferView":0,"byteOffset":0,"componentType":5123,"count":2061,"type":"SCALAR"},{"bufferView":1,"byteOffset":0,"componentType":5126,"count":1102,"max":[3,3.04999995231628,4.92222213745117],"min":[1,0.0500011444091797,0.199999809265137],"type":"VEC3"},{"bufferView":2,"byteOffset":0,"componentType":5126,"count":1102,"type":"VEC3"},{"bufferView":3,"byteOffset":0,"componentType":5126,"count":1102,"type":"VEC2"},{"bufferView":4,"byteOffset":0,"componentType":5123,"count":1704,"type":"SCALAR"},{"bufferView":5,"byteOffset":0,"componentType":5126,"count":1136,"max":[1.12697768211365,4.13183355331421,4.84515571594238],"min":[1.01268994808197,0.226471662521362,0.302866280078888],"type":"VEC3"},{"bufferView":6,"byteOffset":0,"componentType":5126,"count":1136,"type":"VEC3"},{"bufferView":7,"byteOffset":0,"componentType":5126,"count":1136,"type":"VEC2"},{"bufferView":8,"byteOffset":0,"componentType":5123,"count":3132,"type":"SCALAR"},{"bufferView":9,"byteOffset":0,"componentType":5126,"count":2088,"max":[2.98909473419189,4.13183355331421,4.84515571594238],"min":[2.80138850212097,0.226471662521362,0.302866280078888],"type":"VEC3"},{"bufferView":10,"byteOffset":0,"componentType":5126,"count":2088,"type":"VEC3"},{"bufferView":11,"byteOffset":0,"componentType":5126,"count":2088,"type":"VEC2"}],"asset":{"generator":"FBX2glTF v0.13.1","version":"2.0"},"bufferViews":[{"buffer":0,"byteLength":4122,"byteOffset":0,"target":34963},{"buffer":0,"byteLength":13224,"byteOffset":4124,"target":34962},{"buffer":0,"byteLength":13224,"byteOffset":17348,"target":34962},{"buffer":0,"byteLength":8816,"byteOffset":30572,"target":34962},{"buffer":0,"byteLength":3408,"byteOffset":39388,"target":34963},{"buffer":0,"byteLength":13632,"byteOffset":42796,"target":34962},{"buffer":0,"byteLength":13632,"byteOffset":56428,"target":34962},{"buffer":0,"byteLength":9088,"byteOffset":70060,"target":34962},{"buffer":0,"byteLength":6264,"byteOffset":79148,"target":34963},{"buffer":0,"byteLength":25056,"byteOffset":85412,"target":34962},{"buffer":0,"byteLength":25056,"byteOffset":110468,"target":34962},{"buffer":0,"byteLength":16704,"byteOffset":135524,"target":34962}],"buffers":[{"byteLength":152228,"uri":"SM_Stairs.bin"}],"images":[{"name":"New Palitra","uri":"../../Textures/Polygon_Texture2.png"}],"materials":[{"alphaMode":"OPAQUE","doubleSided":false,"extras":{"fromFBX":{"isTruePBR":false,"shadingModel":"Phong"}},"name":"Main","pbrMetallicRoughness":{"baseColorFactor":[1,1,1,1],"baseColorTexture":{"index":0,"texCoord":0},"metallicFactor":0.400000005960464,"roughnessFactor":1}}],"meshes":[{"name":"SM_Stairs","primitives":[{"attributes":{"NORMAL":2,"POSITION":1,"TEXCOORD_0":3},"indices":0,"material":0,"mode":4}]},{"name":"SM_Stairs_Railing_L","primitives":[{"attributes":{"NORMAL":6,"POSITION":5,"TEXCOORD_0":7},"indices":4,"material":0,"mode":4}]},{"name":"SM_Stairs_Railing_R","primitives":[{"attributes":{"NORMAL":10,"POSITION":9,"TEXCOORD_0":11},"indices":8,"material":0,"mode":4}]}],"nodes":[{"children":[1,2],"mesh":0,"name":"SM_Stairs","rotation":[0,0,0,1],"scale":[1,1,1],"translation":[0,0,0]},{"mesh":1,"name":"SM_Stairs_Railing_L","rotation":[0,0,0,1],"scale":[1,1,1],"translation":[0,0,0]},{"mesh":2,"name":"SM_Stairs_Railing_R","rotation":[0,0,0,1],"scale":[1,1,1],"translation":[0,0,0]}],"samplers":[{}],"scene":0,"scenes":[{"name":"Root Scene","nodes":[0]}],"textures":[{"name":"base_color_texture","sampler":0,"source":0}]}