{"accessors":[{"bufferView":0,"byteOffset":0,"componentType":5123,"count":240,"type":"SCALAR"},{"bufferView":1,"byteOffset":0,"componentType":5126,"count":160,"max":[0.123000256717205,0.5,-0.00000011774252],"min":[-0.12300002574921,-0.12299999594688,-0.62300002574921],"type":"VEC3"},{"bufferView":2,"byteOffset":0,"componentType":5126,"count":160,"type":"VEC3"},{"bufferView":3,"byteOffset":0,"componentType":5126,"count":160,"type":"VEC2"}],"asset":{"generator":"FBX2glTF v0.13.1","version":"2.0"},"bufferViews":[{"buffer":0,"byteLength":480,"byteOffset":0,"target":34963},{"buffer":0,"byteLength":1920,"byteOffset":480,"target":34962},{"buffer":0,"byteLength":1920,"byteOffset":2400,"target":34962},{"buffer":0,"byteLength":1280,"byteOffset":4320,"target":34962}],"buffers":[{"byteLength":5600,"uri":"SM_Stove_Pipe_B_02.bin"}],"images":[{"name":"New Palitra","uri":"../../Textures/Polygon_Texture2.png"}],"materials":[{"alphaMode":"OPAQUE","doubleSided":false,"extras":{"fromFBX":{"isTruePBR":false,"shadingModel":"Phong"}},"name":"Main","pbrMetallicRoughness":{"baseColorFactor":[1,1,1,1],"baseColorTexture":{"index":0,"texCoord":0},"metallicFactor":0.400000005960464,"roughnessFactor":1}}],"meshes":[{"name":"SM_Stove_Pipe_B_02","primitives":[{"attributes":{"NORMAL":2,"POSITION":1,"TEXCOORD_0":3},"indices":0,"material":0,"mode":4}]}],"nodes":[{"mesh":0,"name":"SM_Stove_Pipe_B_02","rotation":[0,0,0,1],"scale":[1,1,1],"translation":[0,0,0]}],"samplers":[{}],"scene":0,"scenes":[{"name":"Root Scene","nodes":[0]}],"textures":[{"name":"base_color_texture","sampler":0,"source":0}]}