{"accessors":[{"bufferView":0,"byteOffset":0,"componentType":5123,"count":360,"type":"SCALAR"},{"bufferView":1,"byteOffset":0,"componentType":5126,"count":240,"max":[0.141769886016846,0.99999988079071,0.141769826412201],"min":[-0.1417698264122,0.0000000149011611938477,-0.14176988601685],"type":"VEC3"},{"bufferView":2,"byteOffset":0,"componentType":5126,"count":240,"type":"VEC3"},{"bufferView":3,"byteOffset":0,"componentType":5126,"count":240,"type":"VEC2"}],"asset":{"generator":"FBX2glTF v0.13.1","version":"2.0"},"bufferViews":[{"buffer":0,"byteLength":720,"byteOffset":0,"target":34963},{"buffer":0,"byteLength":2880,"byteOffset":720,"target":34962},{"buffer":0,"byteLength":2880,"byteOffset":3600,"target":34962},{"buffer":0,"byteLength":1920,"byteOffset":6480,"target":34962}],"buffers":[{"byteLength":8400,"uri":"SM_Stove_Pipe_A.bin"}],"images":[{"name":"New Palitra","uri":"Polygon_Texture2.png"}],"materials":[{"alphaMode":"OPAQUE","doubleSided":false,"extras":{"fromFBX":{"isTruePBR":false,"shadingModel":"Phong"}},"name":"Main","pbrMetallicRoughness":{"baseColorFactor":[1,1,1,1],"baseColorTexture":{"index":0,"texCoord":0},"metallicFactor":0.400000005960464,"roughnessFactor":1}}],"meshes":[{"name":"SM_Stove_Pipe_A","primitives":[{"attributes":{"NORMAL":2,"POSITION":1,"TEXCOORD_0":3},"indices":0,"material":0,"mode":4}]}],"nodes":[{"mesh":0,"name":"SM_Stove_Pipe_A","rotation":[0,0,0,1],"scale":[1,1,1],"translation":[0,0,0]}],"samplers":[{}],"scene":0,"scenes":[{"name":"Root Scene","nodes":[0]}],"textures":[{"name":"base_color_texture","sampler":0,"source":0}]}