{"accessors":[{"bufferView":0,"byteOffset":0,"componentType":5123,"count":3642,"type":"SCALAR"},{"bufferView":1,"byteOffset":0,"componentType":5126,"count":2359,"max":[0.515115022659302,1.83909642696381,0.390937805175781],"min":[-0.20209529995918,-0.00149643421173,0.198932260274887],"type":"VEC3"},{"bufferView":2,"byteOffset":0,"componentType":5126,"count":2359,"type":"VEC3"},{"bufferView":3,"byteOffset":0,"componentType":5126,"count":2359,"type":"VEC2"},{"bufferView":4,"byteOffset":0,"componentType":5123,"count":291,"type":"SCALAR"},{"bufferView":5,"byteOffset":0,"componentType":5126,"count":193,"max":[0.47359961271286,0.328521996736526,0.111909627914429],"min":[-0.0190000385046,-0.38131883740425,-0.0007803440094],"type":"VEC3"},{"bufferView":6,"byteOffset":0,"componentType":5126,"count":193,"type":"VEC3"},{"bufferView":7,"byteOffset":0,"componentType":5126,"count":193,"type":"VEC2"}],"asset":{"generator":"FBX2glTF v0.13.1","version":"2.0"},"bufferViews":[{"buffer":0,"byteLength":7284,"byteOffset":0,"target":34963},{"buffer":0,"byteLength":28308,"byteOffset":7284,"target":34962},{"buffer":0,"byteLength":28308,"byteOffset":35592,"target":34962},{"buffer":0,"byteLength":18872,"byteOffset":63900,"target":34962},{"buffer":0,"byteLength":582,"byteOffset":82772,"target":34963},{"buffer":0,"byteLength":2316,"byteOffset":83356,"target":34962},{"buffer":0,"byteLength":2316,"byteOffset":85672,"target":34962},{"buffer":0,"byteLength":1544,"byteOffset":87988,"target":34962}],"buffers":[{"byteLength":89532,"uri":"SM_Switch_Box.bin"}],"images":[{"name":"New Palitra","uri":"Polygon_Texture2.png"}],"materials":[{"alphaMode":"OPAQUE","doubleSided":false,"extras":{"fromFBX":{"isTruePBR":false,"shadingModel":"Phong"}},"name":"Main","pbrMetallicRoughness":{"baseColorFactor":[1,1,1,1],"baseColorTexture":{"index":0,"texCoord":0},"metallicFactor":0.400000005960464,"roughnessFactor":1}}],"meshes":[{"name":"SM_Switch_Box","primitives":[{"attributes":{"NORMAL":2,"POSITION":1,"TEXCOORD_0":3},"indices":0,"material":0,"mode":4}]},{"name":"SM_Switch_Box_Door","primitives":[{"attributes":{"NORMAL":6,"POSITION":5,"TEXCOORD_0":7},"indices":4,"material":0,"mode":4}]}],"nodes":[{"children":[1],"mesh":0,"name":"SM_Switch_Box","rotation":[0,0,0,1],"scale":[1,1,1],"translation":[0,0,0]},{"mesh":1,"name":"SM_Switch_Box_Door","rotation":[0,0,0,1],"scale":[1,1,1],"translation":[-0.18020439147949,1.52289390563965,0.372961044311523]}],"samplers":[{}],"scene":0,"scenes":[{"name":"Root Scene","nodes":[0]}],"textures":[{"name":"base_color_texture","sampler":0,"source":0}]}