{"accessors":[{"bufferView":0,"byteOffset":0,"componentType":5123,"count":54,"type":"SCALAR"},{"bufferView":1,"byteOffset":0,"componentType":5126,"count":36,"max":[0.0633585453033447,1.06387197971344,0.231648877263069],"min":[-0.06364560127258,0.840035557746887,0.199999988079071],"type":"VEC3"},{"bufferView":2,"byteOffset":0,"componentType":5126,"count":36,"type":"VEC3"},{"bufferView":3,"byteOffset":0,"componentType":5126,"count":36,"type":"VEC2"},{"bufferView":4,"byteOffset":0,"componentType":5123,"count":108,"type":"SCALAR"},{"bufferView":5,"byteOffset":0,"componentType":5126,"count":70,"max":[0.0129125714302063,0.0420695543289185,0.0606109164655209],"min":[-0.01291257143021,-0.03670418262482,0.0028837975114584],"type":"VEC3"},{"bufferView":6,"byteOffset":0,"componentType":5126,"count":70,"type":"VEC3"},{"bufferView":7,"byteOffset":0,"componentType":5126,"count":70,"type":"VEC2"}],"asset":{"generator":"FBX2glTF v0.13.1","version":"2.0"},"bufferViews":[{"buffer":0,"byteLength":108,"byteOffset":0,"target":34963},{"buffer":0,"byteLength":432,"byteOffset":108,"target":34962},{"buffer":0,"byteLength":432,"byteOffset":540,"target":34962},{"buffer":0,"byteLength":288,"byteOffset":972,"target":34962},{"buffer":0,"byteLength":216,"byteOffset":1260,"target":34963},{"buffer":0,"byteLength":840,"byteOffset":1476,"target":34962},{"buffer":0,"byteLength":840,"byteOffset":2316,"target":34962},{"buffer":0,"byteLength":560,"byteOffset":3156,"target":34962}],"buffers":[{"byteLength":3716,"uri":"SM_Switch_B.bin"}],"images":[{"name":"New Palitra","uri":"New Palitra.jpg"}],"materials":[{"alphaMode":"OPAQUE","doubleSided":false,"extras":{"fromFBX":{"isTruePBR":false,"shadingModel":"Phong"}},"name":"Main","pbrMetallicRoughness":{"baseColorFactor":[1,1,1,1],"baseColorTexture":{"index":0,"texCoord":0},"metallicFactor":0.400000005960464,"roughnessFactor":1}}],"meshes":[{"name":"SM_Switch_B","primitives":[{"attributes":{"NORMAL":2,"POSITION":1,"TEXCOORD_0":3},"indices":0,"material":0,"mode":4}]},{"name":"SM_Switch_B_Button","primitives":[{"attributes":{"NORMAL":6,"POSITION":5,"TEXCOORD_0":7},"indices":4,"material":0,"mode":4}]}],"nodes":[{"children":[1],"mesh":0,"name":"SM_Switch_B","rotation":[0,0,0,1],"scale":[1,1,1],"translation":[0,0,0]},{"mesh":1,"name":"SM_Switch_B_Button","rotation":[0,0,0,1],"scale":[1,1,1],"translation":[-0.00014346837997,0.963822543621063,0.204949647188187]}],"samplers":[{}],"scene":0,"scenes":[{"name":"Root Scene","nodes":[0]}],"textures":[{"name":"base_color_texture","sampler":0,"source":0}]}