{"accessors":[{"bufferView":0,"byteOffset":0,"componentType":5123,"count":2937,"type":"SCALAR"},{"bufferView":1,"byteOffset":0,"componentType":5126,"count":1949,"max":[0.67612087726593,2.12322378158569,0.576120913028717],"min":[-0.67612087726593,0,-0.57612091302872],"type":"VEC3"},{"bufferView":2,"byteOffset":0,"componentType":5126,"count":1949,"type":"VEC3"},{"bufferView":3,"byteOffset":0,"componentType":5126,"count":1949,"type":"VEC2"},{"bufferView":4,"byteOffset":0,"componentType":5123,"count":522,"type":"SCALAR"},{"bufferView":5,"byteOffset":0,"componentType":5126,"count":308,"max":[0,0.352852314710617,0.0460244119167328],"min":[-0.81102412939072,-0.2972991168499,0],"type":"VEC3"},{"bufferView":6,"byteOffset":0,"componentType":5126,"count":308,"type":"VEC3"},{"bufferView":7,"byteOffset":0,"componentType":5126,"count":308,"type":"VEC2"},{"bufferView":8,"byteOffset":0,"componentType":5123,"count":114,"type":"SCALAR"},{"bufferView":9,"byteOffset":0,"componentType":5126,"count":72,"max":[0.0287129282951355,0.0235172510147095,0.0242306888103485],"min":[-0.14724397659302,-0.02351725101471,-0.02455685287714],"type":"VEC3"},{"bufferView":10,"byteOffset":0,"componentType":5126,"count":72,"type":"VEC3"},{"bufferView":11,"byteOffset":0,"componentType":5126,"count":72,"type":"VEC2"}],"asset":{"generator":"FBX2glTF v0.13.1","version":"2.0"},"bufferViews":[{"buffer":0,"byteLength":5874,"byteOffset":0,"target":34963},{"buffer":0,"byteLength":23388,"byteOffset":5876,"target":34962},{"buffer":0,"byteLength":23388,"byteOffset":29264,"target":34962},{"buffer":0,"byteLength":15592,"byteOffset":52652,"target":34962},{"buffer":0,"byteLength":1044,"byteOffset":68244,"target":34963},{"buffer":0,"byteLength":3696,"byteOffset":69288,"target":34962},{"buffer":0,"byteLength":3696,"byteOffset":72984,"target":34962},{"buffer":0,"byteLength":2464,"byteOffset":76680,"target":34962},{"buffer":0,"byteLength":228,"byteOffset":79144,"target":34963},{"buffer":0,"byteLength":864,"byteOffset":79372,"target":34962},{"buffer":0,"byteLength":864,"byteOffset":80236,"target":34962},{"buffer":0,"byteLength":576,"byteOffset":81100,"target":34962}],"buffers":[{"byteLength":81676,"uri":"SM_Stove.bin"}],"images":[{"name":"New Palitra","uri":"New Palitra.jpg"}],"materials":[{"alphaMode":"OPAQUE","doubleSided":false,"extras":{"fromFBX":{"isTruePBR":false,"shadingModel":"Phong"}},"name":"Main","pbrMetallicRoughness":{"baseColorFactor":[1,1,1,1],"baseColorTexture":{"index":0,"texCoord":0},"metallicFactor":0.400000005960464,"roughnessFactor":1}}],"meshes":[{"name":"SM_Stove","primitives":[{"attributes":{"NORMAL":2,"POSITION":1,"TEXCOORD_0":3},"indices":0,"material":0,"mode":4}]},{"name":"SM_Stove_Door","primitives":[{"attributes":{"NORMAL":6,"POSITION":5,"TEXCOORD_0":7},"indices":4,"material":0,"mode":4}]},{"name":"SM_Stove_Handle","primitives":[{"attributes":{"NORMAL":10,"POSITION":9,"TEXCOORD_0":11},"indices":8,"material":0,"mode":4}]}],"nodes":[{"children":[1,2],"mesh":0,"name":"SM_Stove","rotation":[0,0,0,1],"scale":[1,1,1],"translation":[0,0,0]},{"mesh":1,"name":"SM_Stove_Door","rotation":[0,0,0,1],"scale":[1,1,1],"translation":[0.405511856079102,0.648005723953247,0.450000762939453]},{"mesh":2,"name":"SM_Stove_Handle","rotation":[0,0,0,1],"scale":[1,1,1],"translation":[-0.3592586517334,0.659722030162811,0.496025085449219]}],"samplers":[{}],"scene":0,"scenes":[{"name":"Root Scene","nodes":[0]}],"textures":[{"name":"base_color_texture","sampler":0,"source":0}]}