{"accessors":[{"bufferView":0,"byteOffset":0,"componentType":5123,"count":672,"type":"SCALAR"},{"bufferView":1,"byteOffset":0,"componentType":5126,"count":466,"max":[0.15370799601078,3.17935276031494,0.153708234429359],"min":[-0.1537077575922,0.000000119209289550781,-0.15370751917362],"type":"VEC3"},{"bufferView":2,"byteOffset":0,"componentType":5126,"count":466,"type":"VEC3"},{"bufferView":3,"byteOffset":0,"componentType":5126,"count":466,"type":"VEC2"}],"asset":{"generator":"FBX2glTF v0.13.1","version":"2.0"},"bufferViews":[{"buffer":0,"byteLength":1344,"byteOffset":0,"target":34963},{"buffer":0,"byteLength":5592,"byteOffset":1344,"target":34962},{"buffer":0,"byteLength":5592,"byteOffset":6936,"target":34962},{"buffer":0,"byteLength":3728,"byteOffset":12528,"target":34962}],"buffers":[{"byteLength":16256,"uri":"SM_Stove_Pipe_D.bin"}],"images":[{"name":"New Palitra","uri":"New Palitra.jpg"}],"materials":[{"alphaMode":"OPAQUE","doubleSided":false,"extras":{"fromFBX":{"isTruePBR":false,"shadingModel":"Phong"}},"name":"Main","pbrMetallicRoughness":{"baseColorFactor":[1,1,1,1],"baseColorTexture":{"index":0,"texCoord":0},"metallicFactor":0.400000005960464,"roughnessFactor":1}}],"meshes":[{"name":"SM_Stove_Pipe_D","primitives":[{"attributes":{"NORMAL":2,"POSITION":1,"TEXCOORD_0":3},"indices":0,"material":0,"mode":4}]}],"nodes":[{"mesh":0,"name":"SM_Stove_Pipe_D","rotation":[0,0,0,1],"scale":[1,1,1],"translation":[0,0,0]}],"samplers":[{}],"scene":0,"scenes":[{"name":"Root Scene","nodes":[0]}],"textures":[{"name":"base_color_texture","sampler":0,"source":0}]}