{"accessors":[{"bufferView":0,"byteOffset":0,"componentType":5123,"count":132,"type":"SCALAR"},{"bufferView":1,"byteOffset":0,"componentType":5126,"count":84,"max":[0.0443779230117798,2.31940698623657,0.304918169975281],"min":[-0.04437792301178,0.680593073368073,0.197892814874649],"type":"VEC3"},{"bufferView":2,"byteOffset":0,"componentType":5126,"count":84,"type":"VEC3"},{"bufferView":3,"byteOffset":0,"componentType":5126,"count":84,"type":"VEC2"},{"bufferView":4,"byteOffset":0,"componentType":5123,"count":336,"type":"SCALAR"},{"bufferView":5,"byteOffset":0,"componentType":5126,"count":224,"max":[0.346026182174683,3,0.291557908058167],"min":[-0.05360019207001,0,0.224952593445778],"type":"VEC3"},{"bufferView":6,"byteOffset":0,"componentType":5126,"count":224,"type":"VEC3"},{"bufferView":7,"byteOffset":0,"componentType":5126,"count":224,"type":"VEC2"}],"asset":{"generator":"FBX2glTF v0.13.1","version":"2.0"},"bufferViews":[{"buffer":0,"byteLength":264,"byteOffset":0,"target":34963},{"buffer":0,"byteLength":1008,"byteOffset":264,"target":34962},{"buffer":0,"byteLength":1008,"byteOffset":1272,"target":34962},{"buffer":0,"byteLength":672,"byteOffset":2280,"target":34962},{"buffer":0,"byteLength":672,"byteOffset":2952,"target":34963},{"buffer":0,"byteLength":2688,"byteOffset":3624,"target":34962},{"buffer":0,"byteLength":2688,"byteOffset":6312,"target":34962},{"buffer":0,"byteLength":1792,"byteOffset":9000,"target":34962}],"buffers":[{"byteLength":10792,"uri":"SM_Wall_Cable_Vertical_B.bin"}],"images":[{"name":"New Palitra","uri":"../../Textures/Polygon_Texture2.png"}],"materials":[{"alphaMode":"OPAQUE","doubleSided":false,"extras":{"fromFBX":{"isTruePBR":false,"shadingModel":"Phong"}},"name":"Main_Color","pbrMetallicRoughness":{"baseColorFactor":[0.800000011920929,0.800000011920929,0.800000011920929,1],"metallicFactor":0.400000005960464,"roughnessFactor":1}},{"alphaMode":"OPAQUE","doubleSided":false,"extras":{"fromFBX":{"isTruePBR":false,"shadingModel":"Phong"}},"name":"Main","pbrMetallicRoughness":{"baseColorFactor":[1,1,1,1],"baseColorTexture":{"index":0,"texCoord":0},"metallicFactor":0.400000005960464,"roughnessFactor":1}}],"meshes":[{"name":"SM_Wall_Cable_Vertical_B","primitives":[{"attributes":{"NORMAL":2,"POSITION":1,"TEXCOORD_0":3},"indices":0,"material":1,"mode":4},{"attributes":{"NORMAL":6,"POSITION":5,"TEXCOORD_0":7},"indices":4,"material":0,"mode":4}]}],"nodes":[{"mesh":0,"name":"SM_Wall_Cable_Vertical_B","rotation":[0,0,0,1],"scale":[1,1,1],"translation":[0,0,0]}],"samplers":[{}],"scene":0,"scenes":[{"name":"Root Scene","nodes":[0]}],"textures":[{"name":"base_color_texture","sampler":0,"source":0}]}