{"accessors":[{"bufferView":0,"byteOffset":0,"componentType":5123,"count":156,"type":"SCALAR"},{"bufferView":1,"byteOffset":0,"componentType":5126,"count":104,"max":[0.775373458862305,0.0482141971588135,0.0603636205196381],"min":[-0.7753741145134,-0.06877088546753,-0.06036362051964],"type":"VEC3"},{"bufferView":2,"byteOffset":0,"componentType":5126,"count":104,"type":"VEC3"},{"bufferView":3,"byteOffset":0,"componentType":5126,"count":104,"type":"VEC2"},{"bufferView":4,"byteOffset":0,"componentType":5123,"count":156,"type":"SCALAR"},{"bufferView":5,"byteOffset":0,"componentType":5126,"count":104,"max":[0.06036376953125,0.0482141971588135,0.775374114513397],"min":[-0.06036341190338,-0.06877088546753,-0.77537357807159],"type":"VEC3"},{"bufferView":6,"byteOffset":0,"componentType":5126,"count":104,"type":"VEC3"},{"bufferView":7,"byteOffset":0,"componentType":5126,"count":104,"type":"VEC2"},{"bufferView":8,"byteOffset":0,"componentType":5123,"count":456,"type":"SCALAR"},{"bufferView":9,"byteOffset":0,"componentType":5126,"count":304,"max":[2.96897268295288,2.65117955207825,3.19893193244934],"min":[-0.00000000232831,2.45733857154846,0.234301790595055],"type":"VEC3"},{"bufferView":10,"byteOffset":0,"componentType":5126,"count":304,"type":"VEC3"},{"bufferView":11,"byteOffset":0,"componentType":5126,"count":304,"type":"VEC2"}],"asset":{"generator":"FBX2glTF v0.13.1","version":"2.0"},"bufferViews":[{"buffer":0,"byteLength":312,"byteOffset":0,"target":34963},{"buffer":0,"byteLength":1248,"byteOffset":312,"target":34962},{"buffer":0,"byteLength":1248,"byteOffset":1560,"target":34962},{"buffer":0,"byteLength":832,"byteOffset":2808,"target":34962},{"buffer":0,"byteLength":312,"byteOffset":3640,"target":34963},{"buffer":0,"byteLength":1248,"byteOffset":3952,"target":34962},{"buffer":0,"byteLength":1248,"byteOffset":5200,"target":34962},{"buffer":0,"byteLength":832,"byteOffset":6448,"target":34962},{"buffer":0,"byteLength":912,"byteOffset":7280,"target":34963},{"buffer":0,"byteLength":3648,"byteOffset":8192,"target":34962},{"buffer":0,"byteLength":3648,"byteOffset":11840,"target":34962},{"buffer":0,"byteLength":2432,"byteOffset":15488,"target":34962}],"buffers":[{"byteLength":17920,"uri":"SM_Wall_Cable_Horizontal_E_Corner.bin"}],"images":[{"name":"New Palitra","uri":"New Palitra.jpg"}],"materials":[{"alphaMode":"OPAQUE","doubleSided":false,"extras":{"fromFBX":{"isTruePBR":false,"shadingModel":"Phong"}},"name":"Main_Color","pbrMetallicRoughness":{"baseColorFactor":[0.800000011920929,0.800000011920929,0.800000011920929,1],"metallicFactor":0.400000005960464,"roughnessFactor":1}},{"alphaMode":"OPAQUE","doubleSided":false,"extras":{"fromFBX":{"isTruePBR":false,"shadingModel":"Phong"}},"name":"Main","pbrMetallicRoughness":{"baseColorFactor":[1,1,1,1],"baseColorTexture":{"index":0,"texCoord":0},"metallicFactor":0.400000005960464,"roughnessFactor":1}}],"meshes":[{"name":"SM_Wall_Fastening_Horizontal_E_Corner_L","primitives":[{"attributes":{"NORMAL":2,"POSITION":1,"TEXCOORD_0":3},"indices":0,"material":1,"mode":4}]},{"name":"SM_Wall_Fastening_Horizontal_E_Corner_R","primitives":[{"attributes":{"NORMAL":6,"POSITION":5,"TEXCOORD_0":7},"indices":4,"material":1,"mode":4}]},{"name":"SM_Wall_Cable_Horizontal_E_Corner","primitives":[{"attributes":{"NORMAL":10,"POSITION":9,"TEXCOORD_0":11},"indices":8,"material":0,"mode":4}]}],"nodes":[{"children":[1,2],"mesh":2,"name":"SM_Wall_Cable_Horizontal_E_Corner","rotation":[0,0,0,1],"scale":[1,1,1],"translation":[-0.00000000139698,-0.02499877847731,0.00011062100384151]},{"mesh":0,"name":"SM_Wall_Fastening_Horizontal_E_Corner_L","rotation":[0,0,0,1],"scale":[1,1,1],"translation":[1.50000023841858,2.62883424758911,0.259295463562012]},{"mesh":1,"name":"SM_Wall_Fastening_Horizontal_E_Corner_R","rotation":[0,0,0,1],"scale":[1,1,1],"translation":[2.93963623046875,2.62883424758911,1.7592945098877]}],"samplers":[{}],"scene":0,"scenes":[{"name":"Root Scene","nodes":[0]}],"textures":[{"name":"base_color_texture","sampler":0,"source":0}]}