{"accessors":[{"bufferView":0,"byteOffset":0,"componentType":5123,"count":156,"type":"SCALAR"},{"bufferView":1,"byteOffset":0,"componentType":5126,"count":104,"max":[0.775373458862305,0.0482141971588135,0.0603636503219604],"min":[-0.7753741145134,-0.06877088546753,-0.06036358699203],"type":"VEC3"},{"bufferView":2,"byteOffset":0,"componentType":5126,"count":104,"type":"VEC3"},{"bufferView":3,"byteOffset":0,"componentType":5126,"count":104,"type":"VEC2"},{"bufferView":4,"byteOffset":0,"componentType":5123,"count":240,"type":"SCALAR"},{"bufferView":5,"byteOffset":0,"componentType":5126,"count":160,"max":[3,2.65117955207825,0.284295648336411],"min":[-0.0000000060536,2.52025532722473,0.234295651316643],"type":"VEC3"},{"bufferView":6,"byteOffset":0,"componentType":5126,"count":160,"type":"VEC3"},{"bufferView":7,"byteOffset":0,"componentType":5126,"count":160,"type":"VEC2"}],"asset":{"generator":"FBX2glTF v0.13.1","version":"2.0"},"bufferViews":[{"buffer":0,"byteLength":312,"byteOffset":0,"target":34963},{"buffer":0,"byteLength":1248,"byteOffset":312,"target":34962},{"buffer":0,"byteLength":1248,"byteOffset":1560,"target":34962},{"buffer":0,"byteLength":832,"byteOffset":2808,"target":34962},{"buffer":0,"byteLength":480,"byteOffset":3640,"target":34963},{"buffer":0,"byteLength":1920,"byteOffset":4120,"target":34962},{"buffer":0,"byteLength":1920,"byteOffset":6040,"target":34962},{"buffer":0,"byteLength":1280,"byteOffset":7960,"target":34962}],"buffers":[{"byteLength":9240,"uri":"SM_Wall_Cable_Horizontal_D.bin"}],"images":[{"name":"New Palitra","uri":"Polygon_Texture2.png"}],"materials":[{"alphaMode":"OPAQUE","doubleSided":false,"extras":{"fromFBX":{"isTruePBR":false,"shadingModel":"Phong"}},"name":"Main_Color","pbrMetallicRoughness":{"baseColorFactor":[0.800000011920929,0.800000011920929,0.800000011920929,1],"metallicFactor":0.400000005960464,"roughnessFactor":1}},{"alphaMode":"OPAQUE","doubleSided":false,"extras":{"fromFBX":{"isTruePBR":false,"shadingModel":"Phong"}},"name":"Main","pbrMetallicRoughness":{"baseColorFactor":[1,1,1,1],"baseColorTexture":{"index":0,"texCoord":0},"metallicFactor":0.400000005960464,"roughnessFactor":1}}],"meshes":[{"name":"SM_Wall_Fastening_Horizontal_D","primitives":[{"attributes":{"NORMAL":2,"POSITION":1,"TEXCOORD_0":3},"indices":0,"material":1,"mode":4}]},{"name":"SM_Wall_Cable_Horizontal_D","primitives":[{"attributes":{"NORMAL":6,"POSITION":5,"TEXCOORD_0":7},"indices":4,"material":0,"mode":4}]}],"nodes":[{"children":[1],"mesh":1,"name":"SM_Wall_Cable_Horizontal_D","rotation":[0,0,0,1],"scale":[1,1,1],"translation":[-0.00000000139698,-0.02499877847731,0.00011062100384151]},{"mesh":0,"name":"SM_Wall_Fastening_Horizontal_D","rotation":[0,0,0,1],"scale":[1,1,1],"translation":[1.50000023841858,2.62883424758911,0.259295433759689]}],"samplers":[{}],"scene":0,"scenes":[{"name":"Root Scene","nodes":[0]}],"textures":[{"name":"base_color_texture","sampler":0,"source":0}]}