{"accessors":[{"bufferView":0,"byteOffset":0,"componentType":5123,"count":1002,"type":"SCALAR"},{"bufferView":1,"byteOffset":0,"componentType":5126,"count":572,"max":[2.11575412750244,2.3178539276123,0.498079746961594],"min":[0.885004162788391,0,-0.07000001519918],"type":"VEC3"},{"bufferView":2,"byteOffset":0,"componentType":5126,"count":572,"type":"VEC3"},{"bufferView":3,"byteOffset":0,"componentType":5126,"count":572,"type":"VEC2"},{"bufferView":4,"byteOffset":0,"componentType":5123,"count":3066,"type":"SCALAR"},{"bufferView":5,"byteOffset":0,"componentType":5126,"count":1985,"max":[1,2.1300003528595,0.169343903660774],"min":[0,0,-0.16879606246948],"type":"VEC3"},{"bufferView":6,"byteOffset":0,"componentType":5126,"count":1985,"type":"VEC3"},{"bufferView":7,"byteOffset":0,"componentType":5126,"count":1985,"type":"VEC2"}],"asset":{"generator":"FBX2glTF v0.13.1","version":"2.0"},"bufferViews":[{"buffer":0,"byteLength":2004,"byteOffset":0,"target":34963},{"buffer":0,"byteLength":6864,"byteOffset":2004,"target":34962},{"buffer":0,"byteLength":6864,"byteOffset":8868,"target":34962},{"buffer":0,"byteLength":4576,"byteOffset":15732,"target":34962},{"buffer":0,"byteLength":6132,"byteOffset":20308,"target":34963},{"buffer":0,"byteLength":23820,"byteOffset":26440,"target":34962},{"buffer":0,"byteLength":23820,"byteOffset":50260,"target":34962},{"buffer":0,"byteLength":15880,"byteOffset":74080,"target":34962}],"buffers":[{"byteLength":89960,"uri":"SM_Door_B.bin"}],"images":[{"name":"New Palitra","uri":"Polygon_Texture2.png"}],"materials":[{"alphaMode":"OPAQUE","doubleSided":false,"extras":{"fromFBX":{"isTruePBR":false,"shadingModel":"Phong"}},"name":"Main","pbrMetallicRoughness":{"baseColorFactor":[1,1,1,1],"baseColorTexture":{"index":0,"texCoord":0},"metallicFactor":0.400000005960464,"roughnessFactor":1}}],"meshes":[{"name":"SM_Door_B","primitives":[{"attributes":{"NORMAL":2,"POSITION":1,"TEXCOORD_0":3},"indices":0,"material":0,"mode":4}]},{"name":"SM_DoorB","primitives":[{"attributes":{"NORMAL":6,"POSITION":5,"TEXCOORD_0":7},"indices":4,"material":0,"mode":4}]}],"nodes":[{"children":[1],"mesh":0,"name":"SM_Door_B","rotation":[0,0,0,1],"scale":[1,1,1],"translation":[0,0,0]},{"mesh":1,"name":"SM_DoorB","rotation":[0,0,0,1],"scale":[1,1,1],"translation":[1,0.0699996948242188,0.0999168157577515]}],"samplers":[{}],"scene":0,"scenes":[{"name":"Root Scene","nodes":[0]}],"textures":[{"name":"base_color_texture","sampler":0,"source":0}]}