{"accessors":[{"bufferView":0,"byteOffset":0,"componentType":5123,"count":636,"type":"SCALAR"},{"bufferView":1,"byteOffset":0,"componentType":5126,"count":420,"max":[1.98614895343781,2.16107177734375,0.254157155752182],"min":[1.02371776103973,0.274528324604034,0.163598224520683],"type":"VEC3"},{"bufferView":2,"byteOffset":0,"componentType":5126,"count":420,"type":"VEC3"},{"bufferView":3,"byteOffset":0,"componentType":5126,"count":420,"type":"VEC2"}],"asset":{"generator":"FBX2glTF v0.13.1","version":"2.0"},"bufferViews":[{"buffer":0,"byteLength":1272,"byteOffset":0,"target":34963},{"buffer":0,"byteLength":5040,"byteOffset":1272,"target":34962},{"buffer":0,"byteLength":5040,"byteOffset":6312,"target":34962},{"buffer":0,"byteLength":3360,"byteOffset":11352,"target":34962}],"buffers":[{"byteLength":14712,"uri":"SM_Door_Baricade_A.bin"}],"images":[{"name":"New Palitra","uri":"../../../../Textures/Polygon_Texture2.png"}],"materials":[{"alphaMode":"OPAQUE","doubleSided":false,"extras":{"fromFBX":{"isTruePBR":false,"shadingModel":"Phong"}},"name":"Main","pbrMetallicRoughness":{"baseColorFactor":[1,1,1,1],"baseColorTexture":{"index":0,"texCoord":0},"metallicFactor":0.400000005960464,"roughnessFactor":1}}],"meshes":[{"name":"SM_Door_Baricade_A","primitives":[{"attributes":{"NORMAL":2,"POSITION":1,"TEXCOORD_0":3},"indices":0,"material":0,"mode":4}]}],"nodes":[{"mesh":0,"name":"SM_Door_Baricade_A","rotation":[0,0,0,1],"scale":[1,1,1],"translation":[0,0,0]}],"samplers":[{}],"scene":0,"scenes":[{"name":"Root Scene","nodes":[0]}],"textures":[{"name":"base_color_texture","sampler":0,"source":0}]}