{"accessors":[{"bufferView":0,"byteOffset":0,"componentType":5123,"count":1110,"type":"SCALAR"},{"bufferView":1,"byteOffset":0,"componentType":5126,"count":634,"max":[2.10973501205444,2.31175065040588,0.517698466777802],"min":[0.890264868736267,0,-0.07000001519918],"type":"VEC3"},{"bufferView":2,"byteOffset":0,"componentType":5126,"count":634,"type":"VEC3"},{"bufferView":3,"byteOffset":0,"componentType":5126,"count":634,"type":"VEC2"},{"bufferView":4,"byteOffset":0,"componentType":5123,"count":2520,"type":"SCALAR"},{"bufferView":5,"byteOffset":0,"componentType":5126,"count":1541,"max":[1,2.1300003528595,0.106378398835659],"min":[0,0,-0.10637846589088],"type":"VEC3"},{"bufferView":6,"byteOffset":0,"componentType":5126,"count":1541,"type":"VEC3"},{"bufferView":7,"byteOffset":0,"componentType":5126,"count":1541,"type":"VEC2"}],"asset":{"generator":"FBX2glTF v0.13.1","version":"2.0"},"bufferViews":[{"buffer":0,"byteLength":2220,"byteOffset":0,"target":34963},{"buffer":0,"byteLength":7608,"byteOffset":2220,"target":34962},{"buffer":0,"byteLength":7608,"byteOffset":9828,"target":34962},{"buffer":0,"byteLength":5072,"byteOffset":17436,"target":34962},{"buffer":0,"byteLength":5040,"byteOffset":22508,"target":34963},{"buffer":0,"byteLength":18492,"byteOffset":27548,"target":34962},{"buffer":0,"byteLength":18492,"byteOffset":46040,"target":34962},{"buffer":0,"byteLength":12328,"byteOffset":64532,"target":34962}],"buffers":[{"byteLength":76860,"uri":"SM_Door_A.bin"}],"images":[{"name":"New Palitra","uri":"../../../../Textures/Polygon_Texture2.png"}],"materials":[{"alphaMode":"OPAQUE","doubleSided":false,"extras":{"fromFBX":{"isTruePBR":false,"shadingModel":"Phong"}},"name":"Main","pbrMetallicRoughness":{"baseColorFactor":[1,1,1,1],"baseColorTexture":{"index":0,"texCoord":0},"metallicFactor":0.400000005960464,"roughnessFactor":1}}],"meshes":[{"name":"SM_Door_A","primitives":[{"attributes":{"NORMAL":2,"POSITION":1,"TEXCOORD_0":3},"indices":0,"material":0,"mode":4}]},{"name":"SM_DoorA","primitives":[{"attributes":{"NORMAL":6,"POSITION":5,"TEXCOORD_0":7},"indices":4,"material":0,"mode":4}]}],"nodes":[{"children":[1],"mesh":0,"name":"SM_Door_A","rotation":[0,0,0,1],"scale":[1,1,1],"translation":[0,0,0]},{"mesh":1,"name":"SM_DoorA","rotation":[0,0,0,1],"scale":[1,1,1],"translation":[1,0.0699996948242188,0.0999168455600739]}],"samplers":[{}],"scene":0,"scenes":[{"name":"Root Scene","nodes":[0]}],"textures":[{"name":"base_color_texture","sampler":0,"source":0}]}