{"accessors":[{"bufferView":0,"byteOffset":0,"componentType":5123,"count":1500,"type":"SCALAR"},{"bufferView":1,"byteOffset":0,"componentType":5126,"count":885,"max":[2.11775255203247,2.3200147151947,0.498079746961594],"min":[0.893344461917877,0,-0.07000001519918],"type":"VEC3"},{"bufferView":2,"byteOffset":0,"componentType":5126,"count":885,"type":"VEC3"},{"bufferView":3,"byteOffset":0,"componentType":5126,"count":885,"type":"VEC2"},{"bufferView":4,"byteOffset":0,"componentType":5123,"count":3372,"type":"SCALAR"},{"bufferView":5,"byteOffset":0,"componentType":5126,"count":2231,"max":[0.988051354885101,2.07020044326782,0.263460427522659],"min":[0,-0.0181415528059,-0.1076637133956],"type":"VEC3"},{"bufferView":6,"byteOffset":0,"componentType":5126,"count":2231,"type":"VEC3"},{"bufferView":7,"byteOffset":0,"componentType":5126,"count":2231,"type":"VEC2"}],"asset":{"generator":"FBX2glTF v0.13.1","version":"2.0"},"bufferViews":[{"buffer":0,"byteLength":3000,"byteOffset":0,"target":34963},{"buffer":0,"byteLength":10620,"byteOffset":3000,"target":34962},{"buffer":0,"byteLength":10620,"byteOffset":13620,"target":34962},{"buffer":0,"byteLength":7080,"byteOffset":24240,"target":34962},{"buffer":0,"byteLength":6744,"byteOffset":31320,"target":34963},{"buffer":0,"byteLength":26772,"byteOffset":38064,"target":34962},{"buffer":0,"byteLength":26772,"byteOffset":64836,"target":34962},{"buffer":0,"byteLength":17848,"byteOffset":91608,"target":34962}],"buffers":[{"byteLength":109456,"uri":"SM_Door_C.bin"}],"images":[{"name":"New Palitra","uri":"Polygon_Texture2.png"}],"materials":[{"alphaMode":"OPAQUE","doubleSided":false,"extras":{"fromFBX":{"isTruePBR":false,"shadingModel":"Phong"}},"name":"Main","pbrMetallicRoughness":{"baseColorFactor":[1,1,1,1],"baseColorTexture":{"index":0,"texCoord":0},"metallicFactor":0.400000005960464,"roughnessFactor":1}}],"meshes":[{"name":"SM_Door_C","primitives":[{"attributes":{"NORMAL":2,"POSITION":1,"TEXCOORD_0":3},"indices":0,"material":0,"mode":4}]},{"name":"SM_DoorС","primitives":[{"attributes":{"NORMAL":6,"POSITION":5,"TEXCOORD_0":7},"indices":4,"material":0,"mode":4}]}],"nodes":[{"children":[1],"mesh":0,"name":"SM_Door_C","rotation":[0,0,0,1],"scale":[1,1,1],"translation":[0,0,0]},{"mesh":1,"name":"SM_DoorС","rotation":[0,0,0,1],"scale":[1,1,1],"translation":[1,0.114748954772949,0.0839224979281425]}],"samplers":[{}],"scene":0,"scenes":[{"name":"Root Scene","nodes":[0]}],"textures":[{"name":"base_color_texture","sampler":0,"source":0}]}