{"accessors":[{"bufferView":0,"byteOffset":0,"componentType":5123,"count":642,"type":"SCALAR"},{"bufferView":1,"byteOffset":0,"componentType":5126,"count":384,"max":[5.22586727142334,2.43132138252258,0.980024993419647],"min":[0.774132668972015,0,-0.04680848121643],"type":"VEC3"},{"bufferView":2,"byteOffset":0,"componentType":5126,"count":384,"type":"VEC3"},{"bufferView":3,"byteOffset":0,"componentType":5126,"count":384,"type":"VEC2"},{"bufferView":4,"byteOffset":0,"componentType":5123,"count":3918,"type":"SCALAR"},{"bufferView":5,"byteOffset":0,"componentType":5126,"count":2489,"max":[2,0.245148822665215,0.0504828430712223],"min":[-2,-1.8848512172699,-0.05048286914825],"type":"VEC3"},{"bufferView":6,"byteOffset":0,"componentType":5126,"count":2489,"type":"VEC3"},{"bufferView":7,"byteOffset":0,"componentType":5126,"count":2489,"type":"VEC2"},{"bufferView":8,"byteOffset":0,"componentType":5123,"count":576,"type":"SCALAR"},{"bufferView":9,"byteOffset":0,"componentType":5126,"count":382,"max":[1.84128928184509,0.0864388942718506,0.0063409972935915],"min":[-1.84128987789154,-0.20993481576443,-0.01108919084072],"type":"VEC3"},{"bufferView":10,"byteOffset":0,"componentType":5126,"count":382,"type":"VEC3"},{"bufferView":11,"byteOffset":0,"componentType":5126,"count":382,"type":"VEC2"}],"asset":{"generator":"FBX2glTF v0.13.1","version":"2.0"},"bufferViews":[{"buffer":0,"byteLength":1284,"byteOffset":0,"target":34963},{"buffer":0,"byteLength":4608,"byteOffset":1284,"target":34962},{"buffer":0,"byteLength":4608,"byteOffset":5892,"target":34962},{"buffer":0,"byteLength":3072,"byteOffset":10500,"target":34962},{"buffer":0,"byteLength":7836,"byteOffset":13572,"target":34963},{"buffer":0,"byteLength":29868,"byteOffset":21408,"target":34962},{"buffer":0,"byteLength":29868,"byteOffset":51276,"target":34962},{"buffer":0,"byteLength":19912,"byteOffset":81144,"target":34962},{"buffer":0,"byteLength":1152,"byteOffset":101056,"target":34963},{"buffer":0,"byteLength":4584,"byteOffset":102208,"target":34962},{"buffer":0,"byteLength":4584,"byteOffset":106792,"target":34962},{"buffer":0,"byteLength":3056,"byteOffset":111376,"target":34962}],"buffers":[{"byteLength":114432,"uri":"SM_Garage_Gate.bin"}],"images":[{"name":"New Palitra","uri":"New Palitra.jpg"}],"materials":[{"alphaMode":"OPAQUE","doubleSided":false,"extras":{"fromFBX":{"isTruePBR":false,"shadingModel":"Phong"}},"name":"Main","pbrMetallicRoughness":{"baseColorFactor":[1,1,1,1],"baseColorTexture":{"index":0,"texCoord":0},"metallicFactor":0.400000005960464,"roughnessFactor":1}},{"alphaMode":"OPAQUE","doubleSided":false,"extras":{"fromFBX":{"isTruePBR":false,"shadingModel":"Phong"}},"name":"Main_Glass","pbrMetallicRoughness":{"baseColorFactor":[1,1,1,1],"baseColorTexture":{"index":0,"texCoord":0},"metallicFactor":0.400000005960464,"roughnessFactor":1}}],"meshes":[{"name":"SM_Garage_Gate","primitives":[{"attributes":{"NORMAL":2,"POSITION":1,"TEXCOORD_0":3},"indices":0,"material":0,"mode":4}]},{"name":"SM_Gate","primitives":[{"attributes":{"NORMAL":6,"POSITION":5,"TEXCOORD_0":7},"indices":4,"material":0,"mode":4},{"attributes":{"NORMAL":10,"POSITION":9,"TEXCOORD_0":11},"indices":8,"material":1,"mode":4}]}],"nodes":[{"children":[1],"mesh":0,"name":"SM_Garage_Gate","rotation":[0,0,0,1],"scale":[1,1,1],"translation":[0,0,0]},{"mesh":1,"name":"SM_Gate","rotation":[0,0,0,1],"scale":[1,1,1],"translation":[3,1.95485103130341,0.0912461280822754]}],"samplers":[{}],"scene":0,"scenes":[{"name":"Root Scene","nodes":[0]}],"textures":[{"name":"base_color_texture","sampler":0,"source":0}]}