{"accessors":[{"bufferView":0,"byteOffset":0,"componentType":5123,"count":2289,"type":"SCALAR"},{"bufferView":1,"byteOffset":0,"componentType":5126,"count":1193,"max":[2.25769972801208,2.52692985534668,0.370000004768372],"min":[0.742300271987915,0.904273688793182,-0.21999999880791],"type":"VEC3"},{"bufferView":2,"byteOffset":0,"componentType":5126,"count":1193,"type":"VEC3"},{"bufferView":3,"byteOffset":0,"componentType":5126,"count":1193,"type":"VEC2"},{"bufferView":4,"byteOffset":0,"componentType":5123,"count":252,"type":"SCALAR"},{"bufferView":5,"byteOffset":0,"componentType":5126,"count":145,"max":[1.97157287597656,2.37726283073425,0.114026933908463],"min":[1.02842700481415,1.04040038585663,0.0717828422784805],"type":"VEC3"},{"bufferView":6,"byteOffset":0,"componentType":5126,"count":145,"type":"VEC3"},{"bufferView":7,"byteOffset":0,"componentType":5126,"count":145,"type":"VEC2"}],"asset":{"generator":"FBX2glTF v0.13.1","version":"2.0"},"bufferViews":[{"buffer":0,"byteLength":4578,"byteOffset":0,"target":34963},{"buffer":0,"byteLength":14316,"byteOffset":4580,"target":34962},{"buffer":0,"byteLength":14316,"byteOffset":18896,"target":34962},{"buffer":0,"byteLength":9544,"byteOffset":33212,"target":34962},{"buffer":0,"byteLength":504,"byteOffset":42756,"target":34963},{"buffer":0,"byteLength":1740,"byteOffset":43260,"target":34962},{"buffer":0,"byteLength":1740,"byteOffset":45000,"target":34962},{"buffer":0,"byteLength":1160,"byteOffset":46740,"target":34962}],"buffers":[{"byteLength":47900,"uri":"SM_Window_C.bin"}],"images":[{"name":"New Palitra","uri":"New Palitra.jpg"}],"materials":[{"alphaMode":"OPAQUE","doubleSided":false,"extras":{"fromFBX":{"isTruePBR":false,"shadingModel":"Phong"}},"name":"Main","pbrMetallicRoughness":{"baseColorFactor":[1,1,1,1],"baseColorTexture":{"index":0,"texCoord":0},"metallicFactor":0.400000005960464,"roughnessFactor":1}},{"alphaMode":"OPAQUE","doubleSided":false,"extras":{"fromFBX":{"isTruePBR":false,"shadingModel":"Phong"}},"name":"Main_Glass","pbrMetallicRoughness":{"baseColorFactor":[1,1,1,1],"baseColorTexture":{"index":0,"texCoord":0},"metallicFactor":0.400000005960464,"roughnessFactor":1}}],"meshes":[{"name":"SM_Window_C","primitives":[{"attributes":{"NORMAL":2,"POSITION":1,"TEXCOORD_0":3},"indices":0,"material":0,"mode":4},{"attributes":{"NORMAL":6,"POSITION":5,"TEXCOORD_0":7},"indices":4,"material":1,"mode":4}]}],"nodes":[{"mesh":0,"name":"SM_Window_C","rotation":[0,0,0,1],"scale":[1,1,1],"translation":[0,0,0]}],"samplers":[{}],"scene":0,"scenes":[{"name":"Root Scene","nodes":[0]}],"textures":[{"name":"base_color_texture","sampler":0,"source":0}]}