{"accessors":[{"bufferView":0,"byteOffset":0,"componentType":5123,"count":2262,"type":"SCALAR"},{"bufferView":1,"byteOffset":0,"componentType":5126,"count":1243,"max":[2.25769972801208,2.51338958740234,0.372024178504944],"min":[0.742300271987915,0.904273688793182,-0.21999999880791],"type":"VEC3"},{"bufferView":2,"byteOffset":0,"componentType":5126,"count":1243,"type":"VEC3"},{"bufferView":3,"byteOffset":0,"componentType":5126,"count":1243,"type":"VEC2"},{"bufferView":4,"byteOffset":0,"componentType":5123,"count":924,"type":"SCALAR"},{"bufferView":5,"byteOffset":0,"componentType":5126,"count":590,"max":[1.99772214889526,2.40341258049011,0.109296306967735],"min":[1.002277135849,1.01425051689148,0.0889646783471107],"type":"VEC3"},{"bufferView":6,"byteOffset":0,"componentType":5126,"count":590,"type":"VEC3"},{"bufferView":7,"byteOffset":0,"componentType":5126,"count":590,"type":"VEC2"}],"asset":{"generator":"FBX2glTF v0.13.1","version":"2.0"},"bufferViews":[{"buffer":0,"byteLength":4524,"byteOffset":0,"target":34963},{"buffer":0,"byteLength":14916,"byteOffset":4524,"target":34962},{"buffer":0,"byteLength":14916,"byteOffset":19440,"target":34962},{"buffer":0,"byteLength":9944,"byteOffset":34356,"target":34962},{"buffer":0,"byteLength":1848,"byteOffset":44300,"target":34963},{"buffer":0,"byteLength":7080,"byteOffset":46148,"target":34962},{"buffer":0,"byteLength":7080,"byteOffset":53228,"target":34962},{"buffer":0,"byteLength":4720,"byteOffset":60308,"target":34962}],"buffers":[{"byteLength":65028,"uri":"SM_Window_A.bin"}],"images":[{"name":"New Palitra","uri":"../../../../Textures/Polygon_Texture2.png"}],"materials":[{"alphaMode":"OPAQUE","doubleSided":false,"extras":{"fromFBX":{"isTruePBR":false,"shadingModel":"Phong"}},"name":"Main","pbrMetallicRoughness":{"baseColorFactor":[1,1,1,1],"baseColorTexture":{"index":0,"texCoord":0},"metallicFactor":0.400000005960464,"roughnessFactor":1}},{"alphaMode":"OPAQUE","doubleSided":false,"extras":{"fromFBX":{"isTruePBR":false,"shadingModel":"Phong"}},"name":"Main_Glass","pbrMetallicRoughness":{"baseColorFactor":[1,1,1,1],"baseColorTexture":{"index":0,"texCoord":0},"metallicFactor":0.400000005960464,"roughnessFactor":1}}],"meshes":[{"name":"SM_Window_A","primitives":[{"attributes":{"NORMAL":2,"POSITION":1,"TEXCOORD_0":3},"indices":0,"material":0,"mode":4},{"attributes":{"NORMAL":6,"POSITION":5,"TEXCOORD_0":7},"indices":4,"material":1,"mode":4}]}],"nodes":[{"mesh":0,"name":"SM_Window_A","rotation":[0,0,0,1],"scale":[1,1,1],"translation":[0,0,0]}],"samplers":[{}],"scene":0,"scenes":[{"name":"Root Scene","nodes":[0]}],"textures":[{"name":"base_color_texture","sampler":0,"source":0}]}