{"accessors":[{"bufferView":0,"byteOffset":0,"componentType":5123,"count":1833,"type":"SCALAR"},{"bufferView":1,"byteOffset":0,"componentType":5126,"count":1209,"max":[2.2058322429657,2.55052089691162,0.446130096912384],"min":[0.734705090522766,1.02566742897034,0.236944153904915],"type":"VEC3"},{"bufferView":2,"byteOffset":0,"componentType":5126,"count":1209,"type":"VEC3"},{"bufferView":3,"byteOffset":0,"componentType":5126,"count":1209,"type":"VEC2"}],"asset":{"generator":"FBX2glTF v0.13.1","version":"2.0"},"bufferViews":[{"buffer":0,"byteLength":3666,"byteOffset":0,"target":34963},{"buffer":0,"byteLength":14508,"byteOffset":3668,"target":34962},{"buffer":0,"byteLength":14508,"byteOffset":18176,"target":34962},{"buffer":0,"byteLength":9672,"byteOffset":32684,"target":34962}],"buffers":[{"byteLength":42356,"uri":"SM_Window_Baricade_C.bin"}],"images":[{"name":"New Palitra","uri":"New Palitra.jpg"}],"materials":[{"alphaMode":"OPAQUE","doubleSided":false,"extras":{"fromFBX":{"isTruePBR":false,"shadingModel":"Phong"}},"name":"Main","pbrMetallicRoughness":{"baseColorFactor":[1,1,1,1],"baseColorTexture":{"index":0,"texCoord":0},"metallicFactor":0.400000005960464,"roughnessFactor":1}}],"meshes":[{"name":"SM_Window_Baricade_C","primitives":[{"attributes":{"NORMAL":2,"POSITION":1,"TEXCOORD_0":3},"indices":0,"material":0,"mode":4}]}],"nodes":[{"mesh":0,"name":"SM_Window_Baricade_C","rotation":[0,0,0,1],"scale":[1,1,1],"translation":[0,0,0]}],"samplers":[{}],"scene":0,"scenes":[{"name":"Root Scene","nodes":[0]}],"textures":[{"name":"base_color_texture","sampler":0,"source":0}]}