{"accessors":[{"bufferView":0,"byteOffset":0,"componentType":5123,"count":1860,"type":"SCALAR"},{"bufferView":1,"byteOffset":0,"componentType":5126,"count":959,"max":[2.25769972801208,2.51972651481628,0.370000004768372],"min":[0.742300271987915,0.904273688793182,-0.21999999880791],"type":"VEC3"},{"bufferView":2,"byteOffset":0,"componentType":5126,"count":959,"type":"VEC3"},{"bufferView":3,"byteOffset":0,"componentType":5126,"count":959,"type":"VEC2"},{"bufferView":4,"byteOffset":0,"componentType":5123,"count":84,"type":"SCALAR"},{"bufferView":5,"byteOffset":0,"componentType":5126,"count":48,"max":[0.523618340492249,0.382805705070496,0.0472164414823055],"min":[-0.52230215072632,-0.33701288700104,-0.04852783679962],"type":"VEC3"},{"bufferView":6,"byteOffset":0,"componentType":5126,"count":48,"type":"VEC3"},{"bufferView":7,"byteOffset":0,"componentType":5126,"count":48,"type":"VEC2"},{"bufferView":8,"byteOffset":0,"componentType":5123,"count":576,"type":"SCALAR"},{"bufferView":9,"byteOffset":0,"componentType":5126,"count":355,"max":[1.98299050331116,2.38868045806885,0.154977053403854],"min":[1.01700937747955,1.74880123138428,0.138008177280426],"type":"VEC3"},{"bufferView":10,"byteOffset":0,"componentType":5126,"count":355,"type":"VEC3"},{"bufferView":11,"byteOffset":0,"componentType":5126,"count":355,"type":"VEC2"},{"bufferView":12,"byteOffset":0,"componentType":5123,"count":192,"type":"SCALAR"},{"bufferView":13,"byteOffset":0,"componentType":5126,"count":124,"max":[0.483648627996445,0.342836022377014,0.0126064186915755],"min":[-0.48233243823052,-0.29704320430756,-0.01212948933244],"type":"VEC3"},{"bufferView":14,"byteOffset":0,"componentType":5126,"count":124,"type":"VEC3"},{"bufferView":15,"byteOffset":0,"componentType":5126,"count":124,"type":"VEC2"}],"asset":{"generator":"FBX2glTF v0.13.1","version":"2.0"},"bufferViews":[{"buffer":0,"byteLength":3720,"byteOffset":0,"target":34963},{"buffer":0,"byteLength":11508,"byteOffset":3720,"target":34962},{"buffer":0,"byteLength":11508,"byteOffset":15228,"target":34962},{"buffer":0,"byteLength":7672,"byteOffset":26736,"target":34962},{"buffer":0,"byteLength":168,"byteOffset":34408,"target":34963},{"buffer":0,"byteLength":576,"byteOffset":34576,"target":34962},{"buffer":0,"byteLength":576,"byteOffset":35152,"target":34962},{"buffer":0,"byteLength":384,"byteOffset":35728,"target":34962},{"buffer":0,"byteLength":1152,"byteOffset":36112,"target":34963},{"buffer":0,"byteLength":4260,"byteOffset":37264,"target":34962},{"buffer":0,"byteLength":4260,"byteOffset":41524,"target":34962},{"buffer":0,"byteLength":2840,"byteOffset":45784,"target":34962},{"buffer":0,"byteLength":384,"byteOffset":48624,"target":34963},{"buffer":0,"byteLength":1488,"byteOffset":49008,"target":34962},{"buffer":0,"byteLength":1488,"byteOffset":50496,"target":34962},{"buffer":0,"byteLength":992,"byteOffset":51984,"target":34962}],"buffers":[{"byteLength":52976,"uri":"SM_Window_B.bin"}],"images":[{"name":"New Palitra","uri":"Polygon_Texture2.png"}],"materials":[{"alphaMode":"OPAQUE","doubleSided":false,"extras":{"fromFBX":{"isTruePBR":false,"shadingModel":"Phong"}},"name":"Main","pbrMetallicRoughness":{"baseColorFactor":[1,1,1,1],"baseColorTexture":{"index":0,"texCoord":0},"metallicFactor":0.400000005960464,"roughnessFactor":1}},{"alphaMode":"OPAQUE","doubleSided":false,"extras":{"fromFBX":{"isTruePBR":false,"shadingModel":"Phong"}},"name":"Main_Glass","pbrMetallicRoughness":{"baseColorFactor":[1,1,1,1],"baseColorTexture":{"index":0,"texCoord":0},"metallicFactor":0.400000005960464,"roughnessFactor":1}}],"meshes":[{"name":"SM_Window_B","primitives":[{"attributes":{"NORMAL":2,"POSITION":1,"TEXCOORD_0":3},"indices":0,"material":0,"mode":4},{"attributes":{"NORMAL":10,"POSITION":9,"TEXCOORD_0":11},"indices":8,"material":1,"mode":4}]},{"name":"SM_WindowB","primitives":[{"attributes":{"NORMAL":6,"POSITION":5,"TEXCOORD_0":7},"indices":4,"material":0,"mode":4},{"attributes":{"NORMAL":14,"POSITION":13,"TEXCOORD_0":15},"indices":12,"material":1,"mode":4}]}],"nodes":[{"children":[1],"mesh":0,"name":"SM_Window_B","rotation":[0,0,0,1],"scale":[1,1,1],"translation":[0,0,0]},{"mesh":1,"name":"SM_WindowB","rotation":[0,0,0,1],"scale":[1,1,1],"translation":[1.49934196472168,1.32602596282959,0.0509164333343506]}],"samplers":[{}],"scene":0,"scenes":[{"name":"Root Scene","nodes":[0]}],"textures":[{"name":"base_color_texture","sampler":0,"source":0}]}