{"accessors":[{"bufferView":0,"byteOffset":0,"componentType":5123,"count":750,"type":"SCALAR"},{"bufferView":1,"byteOffset":0,"componentType":5126,"count":488,"max":[2.27388668060303,2.54388546943665,0.378300815820694],"min":[0.641362726688385,1.01526427268982,0.280305534601212],"type":"VEC3"},{"bufferView":2,"byteOffset":0,"componentType":5126,"count":488,"type":"VEC3"},{"bufferView":3,"byteOffset":0,"componentType":5126,"count":488,"type":"VEC2"}],"asset":{"generator":"FBX2glTF v0.13.1","version":"2.0"},"bufferViews":[{"buffer":0,"byteLength":1500,"byteOffset":0,"target":34963},{"buffer":0,"byteLength":5856,"byteOffset":1500,"target":34962},{"buffer":0,"byteLength":5856,"byteOffset":7356,"target":34962},{"buffer":0,"byteLength":3904,"byteOffset":13212,"target":34962}],"buffers":[{"byteLength":17116,"uri":"SM_Window_Baricade_A.bin"}],"images":[{"name":"New Palitra","uri":"New Palitra.jpg"}],"materials":[{"alphaMode":"OPAQUE","doubleSided":false,"extras":{"fromFBX":{"isTruePBR":false,"shadingModel":"Phong"}},"name":"Main","pbrMetallicRoughness":{"baseColorFactor":[1,1,1,1],"baseColorTexture":{"index":0,"texCoord":0},"metallicFactor":0.400000005960464,"roughnessFactor":1}}],"meshes":[{"name":"SM_Window_Baricade_A","primitives":[{"attributes":{"NORMAL":2,"POSITION":1,"TEXCOORD_0":3},"indices":0,"material":0,"mode":4}]}],"nodes":[{"mesh":0,"name":"SM_Window_Baricade_A","rotation":[0,0,0,1],"scale":[1,1,1],"translation":[0,0,0]}],"samplers":[{}],"scene":0,"scenes":[{"name":"Root Scene","nodes":[0]}],"textures":[{"name":"base_color_texture","sampler":0,"source":0}]}