{"accessors":[{"bufferView":0,"byteOffset":0,"componentType":5123,"count":144,"type":"SCALAR"},{"bufferView":1,"byteOffset":0,"componentType":5126,"count":94,"max":[3,0.443730473518372,0.239999979734421],"min":[0,0,0.19999997317791],"type":"VEC3"},{"bufferView":2,"byteOffset":0,"componentType":5126,"count":94,"type":"VEC3"},{"bufferView":3,"byteOffset":0,"componentType":5126,"count":94,"type":"VEC2"}],"asset":{"generator":"FBX2glTF v0.13.1","version":"2.0"},"bufferViews":[{"buffer":0,"byteLength":288,"byteOffset":0,"target":34963},{"buffer":0,"byteLength":1128,"byteOffset":288,"target":34962},{"buffer":0,"byteLength":1128,"byteOffset":1416,"target":34962},{"buffer":0,"byteLength":752,"byteOffset":2544,"target":34962}],"buffers":[{"byteLength":3296,"uri":"SM_Foundation_Door.bin"}],"images":[{"name":"New Palitra","uri":"Polygon_Texture2.png"}],"materials":[{"alphaMode":"OPAQUE","doubleSided":false,"extras":{"fromFBX":{"isTruePBR":false,"shadingModel":"Phong"}},"name":"Main","pbrMetallicRoughness":{"baseColorFactor":[1,1,1,1],"baseColorTexture":{"index":0,"texCoord":0},"metallicFactor":0.400000005960464,"roughnessFactor":1}}],"meshes":[{"name":"SM_Foundation_Door","primitives":[{"attributes":{"NORMAL":2,"POSITION":1,"TEXCOORD_0":3},"indices":0,"material":0,"mode":4}]}],"nodes":[{"mesh":0,"name":"SM_Foundation_Door","rotation":[0,0,0,1],"scale":[1,1,1],"translation":[0,0,0]}],"samplers":[{}],"scene":0,"scenes":[{"name":"Root Scene","nodes":[0]}],"textures":[{"name":"base_color_texture","sampler":0,"source":0}]}