{"accessors":[{"bufferView":0,"byteOffset":0,"componentType":5123,"count":468,"type":"SCALAR"},{"bufferView":1,"byteOffset":0,"componentType":5126,"count":297,"max":[3,0.450554072856903,0.239999979734421],"min":[-0.24000024795532,0,-3],"type":"VEC3"},{"bufferView":2,"byteOffset":0,"componentType":5126,"count":297,"type":"VEC3"},{"bufferView":3,"byteOffset":0,"componentType":5126,"count":297,"type":"VEC2"}],"asset":{"generator":"FBX2glTF v0.13.1","version":"2.0"},"bufferViews":[{"buffer":0,"byteLength":936,"byteOffset":0,"target":34963},{"buffer":0,"byteLength":3564,"byteOffset":936,"target":34962},{"buffer":0,"byteLength":3564,"byteOffset":4500,"target":34962},{"buffer":0,"byteLength":2376,"byteOffset":8064,"target":34962}],"buffers":[{"byteLength":10440,"uri":"SM_Foundation_Corner_Out.bin"}],"images":[{"name":"New Palitra","uri":"../../../../Textures/Polygon_Texture2.png"}],"materials":[{"alphaMode":"OPAQUE","doubleSided":false,"extras":{"fromFBX":{"isTruePBR":false,"shadingModel":"Phong"}},"name":"Main","pbrMetallicRoughness":{"baseColorFactor":[1,1,1,1],"baseColorTexture":{"index":0,"texCoord":0},"metallicFactor":0.400000005960464,"roughnessFactor":1}}],"meshes":[{"name":"SM_Foundation_Corner_Out","primitives":[{"attributes":{"NORMAL":2,"POSITION":1,"TEXCOORD_0":3},"indices":0,"material":0,"mode":4}]}],"nodes":[{"mesh":0,"name":"SM_Foundation_Corner_Out","rotation":[0,0,0,1],"scale":[1,1,1],"translation":[0,0,0]}],"samplers":[{}],"scene":0,"scenes":[{"name":"Root Scene","nodes":[0]}],"textures":[{"name":"base_color_texture","sampler":0,"source":0}]}