{"accessors":[{"bufferView":0,"byteOffset":0,"componentType":5123,"count":744,"type":"SCALAR"},{"bufferView":1,"byteOffset":0,"componentType":5126,"count":358,"max":[3,0.0500010251998901,0],"min":[0,-0.00000034182347,-3],"type":"VEC3"},{"bufferView":2,"byteOffset":0,"componentType":5126,"count":358,"type":"VEC3"},{"bufferView":3,"byteOffset":0,"componentType":5126,"count":358,"type":"VEC2"}],"asset":{"generator":"FBX2glTF v0.13.1","version":"2.0"},"bufferViews":[{"buffer":0,"byteLength":1488,"byteOffset":0,"target":34963},{"buffer":0,"byteLength":4296,"byteOffset":1488,"target":34962},{"buffer":0,"byteLength":4296,"byteOffset":5784,"target":34962},{"buffer":0,"byteLength":2864,"byteOffset":10080,"target":34962}],"buffers":[{"byteLength":12944,"uri":"SM_Floor_Broken_3x3_B.bin"}],"images":[{"name":"New Palitra","uri":"New Palitra.jpg"}],"materials":[{"alphaMode":"OPAQUE","doubleSided":false,"extras":{"fromFBX":{"isTruePBR":false,"shadingModel":"Phong"}},"name":"Main","pbrMetallicRoughness":{"baseColorFactor":[1,1,1,1],"baseColorTexture":{"index":0,"texCoord":0},"metallicFactor":0.400000005960464,"roughnessFactor":1}}],"meshes":[{"name":"SM_Floor_Broken_3x3_B","primitives":[{"attributes":{"NORMAL":2,"POSITION":1,"TEXCOORD_0":3},"indices":0,"material":0,"mode":4}]}],"nodes":[{"mesh":0,"name":"SM_Floor_Broken_3x3_B","rotation":[0,0,0,1],"scale":[1,1,1],"translation":[0,0,0]}],"samplers":[{}],"scene":0,"scenes":[{"name":"Root Scene","nodes":[0]}],"textures":[{"name":"base_color_texture","sampler":0,"source":0}]}