{"accessors":[{"bufferView":0,"byteOffset":0,"componentType":5123,"count":2571,"type":"SCALAR"},{"bufferView":1,"byteOffset":0,"componentType":5126,"count":1609,"max":[2.36778736114502,0.268008440732956,-0.63424360752106],"min":[0.655537545681,-0.03914912417531,-2.34446239471436],"type":"VEC3"},{"bufferView":2,"byteOffset":0,"componentType":5126,"count":1609,"type":"VEC3"},{"bufferView":3,"byteOffset":0,"componentType":5126,"count":1609,"type":"VEC2"},{"bufferView":4,"byteOffset":0,"componentType":5123,"count":2862,"type":"SCALAR"},{"bufferView":5,"byteOffset":0,"componentType":5126,"count":1799,"max":[0.609170377254486,0.161498099565506,1.18102073669434],"min":[-0.5962747335434,-0.03246047720313,-0.06102887913585],"type":"VEC3"},{"bufferView":6,"byteOffset":0,"componentType":5126,"count":1799,"type":"VEC3"},{"bufferView":7,"byteOffset":0,"componentType":5126,"count":1799,"type":"VEC2"},{"bufferView":8,"byteOffset":0,"componentType":5123,"count":438,"type":"SCALAR"},{"bufferView":9,"byteOffset":0,"componentType":5126,"count":292,"max":[0.353220850229263,0.00274962349794805,0.0465608835220337],"min":[-0.02403746545315,-0.12076368182898,-0.04656088352203],"type":"VEC3"},{"bufferView":10,"byteOffset":0,"componentType":5126,"count":292,"type":"VEC3"},{"bufferView":11,"byteOffset":0,"componentType":5126,"count":292,"type":"VEC2"},{"bufferView":12,"byteOffset":0,"componentType":5123,"count":1656,"type":"SCALAR"},{"bufferView":13,"byteOffset":0,"componentType":5126,"count":1100,"max":[0.68864768743515,3.00009846687317,0.0364678725600243],"min":[-0.01678970456123,-0.00001573117515,-0.06486783921719],"type":"VEC3"},{"bufferView":14,"byteOffset":0,"componentType":5126,"count":1100,"type":"VEC3"},{"bufferView":15,"byteOffset":0,"componentType":5126,"count":1100,"type":"VEC2"}],"asset":{"generator":"FBX2glTF v0.13.1","version":"2.0"},"bufferViews":[{"buffer":0,"byteLength":5142,"byteOffset":0,"target":34963},{"buffer":0,"byteLength":19308,"byteOffset":5144,"target":34962},{"buffer":0,"byteLength":19308,"byteOffset":24452,"target":34962},{"buffer":0,"byteLength":12872,"byteOffset":43760,"target":34962},{"buffer":0,"byteLength":5724,"byteOffset":56632,"target":34963},{"buffer":0,"byteLength":21588,"byteOffset":62356,"target":34962},{"buffer":0,"byteLength":21588,"byteOffset":83944,"target":34962},{"buffer":0,"byteLength":14392,"byteOffset":105532,"target":34962},{"buffer":0,"byteLength":876,"byteOffset":119924,"target":34963},{"buffer":0,"byteLength":3504,"byteOffset":120800,"target":34962},{"buffer":0,"byteLength":3504,"byteOffset":124304,"target":34962},{"buffer":0,"byteLength":2336,"byteOffset":127808,"target":34962},{"buffer":0,"byteLength":3312,"byteOffset":130144,"target":34963},{"buffer":0,"byteLength":13200,"byteOffset":133456,"target":34962},{"buffer":0,"byteLength":13200,"byteOffset":146656,"target":34962},{"buffer":0,"byteLength":8800,"byteOffset":159856,"target":34962}],"buffers":[{"byteLength":168656,"uri":"SM_Hatchway.bin"}],"images":[{"name":"New Palitra","uri":"New Palitra.jpg"}],"materials":[{"alphaMode":"OPAQUE","doubleSided":false,"extras":{"fromFBX":{"isTruePBR":false,"shadingModel":"Phong"}},"name":"Main","pbrMetallicRoughness":{"baseColorFactor":[1,1,1,1],"baseColorTexture":{"index":0,"texCoord":0},"metallicFactor":0.400000005960464,"roughnessFactor":1}}],"meshes":[{"name":"SM_Hatchway","primitives":[{"attributes":{"NORMAL":2,"POSITION":1,"TEXCOORD_0":3},"indices":0,"material":0,"mode":4}]},{"name":"SM_Hatchway_Hood","primitives":[{"attributes":{"NORMAL":6,"POSITION":5,"TEXCOORD_0":7},"indices":4,"material":0,"mode":4}]},{"name":"SM_Hood_Handle","primitives":[{"attributes":{"NORMAL":10,"POSITION":9,"TEXCOORD_0":11},"indices":8,"material":0,"mode":4}]},{"name":"SM_Hatchway_Ladder","primitives":[{"attributes":{"NORMAL":14,"POSITION":13,"TEXCOORD_0":15},"indices":12,"material":0,"mode":4}]}],"nodes":[{"children":[1,2,3],"mesh":0,"name":"SM_Hatchway","rotation":[0,0,0,1],"scale":[1,1,1],"translation":[0,0,0]},{"mesh":1,"name":"SM_Hatchway_Hood","rotation":[0,0,0,1],"scale":[1,1,1],"translation":[1.5,0.254873275756836,-2.08474731445312]},{"mesh":2,"name":"SM_Hood_Handle","rotation":[0,0,0,1],"scale":[1,1,1],"translation":[1.35731315612793,0.26495361328125,-1.19267845153809]},{"mesh":3,"name":"SM_Hatchway_Ladder","rotation":[0,0,0,1],"scale":[1,1,1],"translation":[1.16232490539551,-2.95000004768372,-0.92052549123764]}],"samplers":[{}],"scene":0,"scenes":[{"name":"Root Scene","nodes":[0]}],"textures":[{"name":"base_color_texture","sampler":0,"source":0}]}