{"accessors":[{"bufferView":0,"byteOffset":0,"componentType":5123,"count":4281,"type":"SCALAR"},{"bufferView":1,"byteOffset":0,"componentType":5126,"count":3386,"max":[1.06753265857697,1.0917432308197,0.741988956928253],"min":[-1.20195603370667,0,-0.57754188776016],"type":"VEC3"},{"bufferView":2,"byteOffset":0,"componentType":5126,"count":3386,"type":"VEC3"},{"bufferView":3,"byteOffset":0,"componentType":5126,"count":3386,"type":"VEC2"},{"bufferView":4,"byteOffset":0,"componentType":5123,"count":384,"type":"SCALAR"},{"bufferView":5,"byteOffset":0,"componentType":5126,"count":246,"max":[0.020093560218811,0.156777620315552,0.13973206281662],"min":[-0.56549024581909,-0.15677762031555,-0.01884573698044],"type":"VEC3"},{"bufferView":6,"byteOffset":0,"componentType":5126,"count":246,"type":"VEC3"},{"bufferView":7,"byteOffset":0,"componentType":5126,"count":246,"type":"VEC2"},{"bufferView":8,"byteOffset":0,"componentType":5123,"count":156,"type":"SCALAR"},{"bufferView":9,"byteOffset":0,"componentType":5126,"count":96,"max":[0.0149980783462524,0.0742945075035095,0.00866438448429108],"min":[-0.19133353233337,-0.01510715484619,-0.14293536543846],"type":"VEC3"},{"bufferView":10,"byteOffset":0,"componentType":5126,"count":96,"type":"VEC3"},{"bufferView":11,"byteOffset":0,"componentType":5126,"count":96,"type":"VEC2"},{"bufferView":12,"byteOffset":0,"componentType":5123,"count":900,"type":"SCALAR"},{"bufferView":13,"byteOffset":0,"componentType":5126,"count":572,"max":[0.609004855155945,0.348394393920898,0.127466127276421],"min":[0.0000000149011611938477,-0.3483943939209,-0.03026235476136],"type":"VEC3"},{"bufferView":14,"byteOffset":0,"componentType":5126,"count":572,"type":"VEC3"},{"bufferView":15,"byteOffset":0,"componentType":5126,"count":572,"type":"VEC2"},{"bufferView":16,"byteOffset":0,"componentType":5123,"count":12456,"type":"SCALAR"},{"bufferView":17,"byteOffset":0,"componentType":5126,"count":8214,"max":[1.94067466259003,2.17435264587402,0.569953143596649],"min":[-0.9179972410202,0,-0.57491713762283],"type":"VEC3"},{"bufferView":18,"byteOffset":0,"componentType":5126,"count":8214,"type":"VEC3"},{"bufferView":19,"byteOffset":0,"componentType":5126,"count":8214,"type":"VEC2"},{"bufferView":20,"byteOffset":0,"componentType":5123,"count":618,"type":"SCALAR"},{"bufferView":21,"byteOffset":0,"componentType":5126,"count":410,"max":[0.0972012802958488,0.516662836074829,0.0878390371799469],"min":[-0.09720136225224,-0.00000011920929,-0.10168940573931],"type":"VEC3"},{"bufferView":22,"byteOffset":0,"componentType":5126,"count":410,"type":"VEC3"},{"bufferView":23,"byteOffset":0,"componentType":5126,"count":410,"type":"VEC2"},{"bufferView":24,"byteOffset":0,"componentType":5123,"count":6,"type":"SCALAR"},{"bufferView":25,"byteOffset":0,"componentType":5126,"count":6,"max":[0.00310033559799194,0.0149312019348145,-0.00219485163689],"min":[-0.0031002163887,-0.002765417099,-0.02449211478233],"type":"VEC3"},{"bufferView":26,"byteOffset":0,"componentType":5126,"count":6,"type":"VEC3"},{"bufferView":27,"byteOffset":0,"componentType":5126,"count":6,"type":"VEC2"},{"bufferView":28,"byteOffset":0,"componentType":5123,"count":2304,"type":"SCALAR"},{"bufferView":29,"byteOffset":0,"componentType":5126,"count":1512,"max":[0.381070464849472,1.83254313468933,0.13591405749321],"min":[-0.91056180000305,1.11064112186432,-0.33284437656403],"type":"VEC3"},{"bufferView":30,"byteOffset":0,"componentType":5126,"count":1512,"type":"VEC3"},{"bufferView":31,"byteOffset":0,"componentType":5126,"count":1512,"type":"VEC2"},{"bufferView":32,"byteOffset":0,"componentType":5123,"count":420,"type":"SCALAR"},{"bufferView":33,"byteOffset":0,"componentType":5126,"count":274,"max":[0.0761880725622177,0.430958241224289,0.0702194944024086],"min":[-0.07618808746338,-0.00000011920929,-0.08010653406382],"type":"VEC3"},{"bufferView":34,"byteOffset":0,"componentType":5126,"count":274,"type":"VEC3"},{"bufferView":35,"byteOffset":0,"componentType":5126,"count":274,"type":"VEC2"},{"bufferView":36,"byteOffset":0,"componentType":5123,"count":144,"type":"SCALAR"},{"bufferView":37,"byteOffset":0,"componentType":5126,"count":96,"max":[0.0639869868755341,0.0145419836044312,0.0639333426952362],"min":[-0.06378769874573,-0.01490223407745,-0.06383788585663],"type":"VEC3"},{"bufferView":38,"byteOffset":0,"componentType":5126,"count":96,"type":"VEC3"},{"bufferView":39,"byteOffset":0,"componentType":5126,"count":96,"type":"VEC2"},{"bufferView":40,"byteOffset":0,"componentType":5123,"count":144,"type":"SCALAR"},{"bufferView":41,"byteOffset":0,"componentType":5126,"count":96,"max":[0.0639869868755341,0.0145421028137207,0.0639333128929138],"min":[-0.06378769874573,-0.01490223407745,-0.06383791565895],"type":"VEC3"},{"bufferView":42,"byteOffset":0,"componentType":5126,"count":96,"type":"VEC3"},{"bufferView":43,"byteOffset":0,"componentType":5126,"count":96,"type":"VEC2"},{"bufferView":44,"byteOffset":0,"componentType":5123,"count":144,"type":"SCALAR"},{"bufferView":45,"byteOffset":0,"componentType":5126,"count":96,"max":[0.0639868974685669,0.0145419836044312,0.0639333352446556],"min":[-0.06378781795502,-0.01490235328674,-0.06383787840605],"type":"VEC3"},{"bufferView":46,"byteOffset":0,"componentType":5126,"count":96,"type":"VEC3"},{"bufferView":47,"byteOffset":0,"componentType":5126,"count":96,"type":"VEC2"},{"bufferView":48,"byteOffset":0,"componentType":5123,"count":144,"type":"SCALAR"},{"bufferView":49,"byteOffset":0,"componentType":5126,"count":94,"max":[0.0502144694328308,0.0114120244979858,0.0501723177731037],"min":[-0.05005806684494,-0.01169466972351,-0.05009750276804],"type":"VEC3"},{"bufferView":50,"byteOffset":0,"componentType":5126,"count":94,"type":"VEC3"},{"bufferView":51,"byteOffset":0,"componentType":5126,"count":94,"type":"VEC2"},{"bufferView":52,"byteOffset":0,"componentType":5123,"count":60,"type":"SCALAR"},{"bufferView":53,"byteOffset":0,"componentType":5126,"count":38,"max":[0.0500008761882782,0.0310759544372559,0.0494945608079433],"min":[-0.05000081285834,0,-0.04949468374252],"type":"VEC3"},{"bufferView":54,"byteOffset":0,"componentType":5126,"count":38,"type":"VEC3"},{"bufferView":55,"byteOffset":0,"componentType":5126,"count":38,"type":"VEC2"},{"bufferView":56,"byteOffset":0,"componentType":5123,"count":114,"type":"SCALAR"},{"bufferView":57,"byteOffset":0,"componentType":5126,"count":74,"max":[0.0663533136248589,0.139337062835693,0.0613196827471256],"min":[-0.06635331362486,0.00886619091033936,-0.06805970519781],"type":"VEC3"},{"bufferView":58,"byteOffset":0,"componentType":5126,"count":74,"type":"VEC3"},{"bufferView":59,"byteOffset":0,"componentType":5126,"count":74,"type":"VEC2"}],"asset":{"generator":"FBX2glTF v0.13.1","version":"2.0"},"bufferViews":[{"buffer":0,"byteLength":8562,"byteOffset":0,"target":34963},{"buffer":0,"byteLength":40632,"byteOffset":8564,"target":34962},{"buffer":0,"byteLength":40632,"byteOffset":49196,"target":34962},{"buffer":0,"byteLength":27088,"byteOffset":89828,"target":34962},{"buffer":0,"byteLength":768,"byteOffset":116916,"target":34963},{"buffer":0,"byteLength":2952,"byteOffset":117684,"target":34962},{"buffer":0,"byteLength":2952,"byteOffset":120636,"target":34962},{"buffer":0,"byteLength":1968,"byteOffset":123588,"target":34962},{"buffer":0,"byteLength":312,"byteOffset":125556,"target":34963},{"buffer":0,"byteLength":1152,"byteOffset":125868,"target":34962},{"buffer":0,"byteLength":1152,"byteOffset":127020,"target":34962},{"buffer":0,"byteLength":768,"byteOffset":128172,"target":34962},{"buffer":0,"byteLength":1800,"byteOffset":128940,"target":34963},{"buffer":0,"byteLength":6864,"byteOffset":130740,"target":34962},{"buffer":0,"byteLength":6864,"byteOffset":137604,"target":34962},{"buffer":0,"byteLength":4576,"byteOffset":144468,"target":34962},{"buffer":0,"byteLength":24912,"byteOffset":149044,"target":34963},{"buffer":0,"byteLength":98568,"byteOffset":173956,"target":34962},{"buffer":0,"byteLength":98568,"byteOffset":272524,"target":34962},{"buffer":0,"byteLength":65712,"byteOffset":371092,"target":34962},{"buffer":0,"byteLength":1236,"byteOffset":436804,"target":34963},{"buffer":0,"byteLength":4920,"byteOffset":438040,"target":34962},{"buffer":0,"byteLength":4920,"byteOffset":442960,"target":34962},{"buffer":0,"byteLength":3280,"byteOffset":447880,"target":34962},{"buffer":0,"byteLength":12,"byteOffset":451160,"target":34963},{"buffer":0,"byteLength":72,"byteOffset":451172,"target":34962},{"buffer":0,"byteLength":72,"byteOffset":451244,"target":34962},{"buffer":0,"byteLength":48,"byteOffset":451316,"target":34962},{"buffer":0,"byteLength":4608,"byteOffset":451364,"target":34963},{"buffer":0,"byteLength":18144,"byteOffset":455972,"target":34962},{"buffer":0,"byteLength":18144,"byteOffset":474116,"target":34962},{"buffer":0,"byteLength":12096,"byteOffset":492260,"target":34962},{"buffer":0,"byteLength":840,"byteOffset":504356,"target":34963},{"buffer":0,"byteLength":3288,"byteOffset":505196,"target":34962},{"buffer":0,"byteLength":3288,"byteOffset":508484,"target":34962},{"buffer":0,"byteLength":2192,"byteOffset":511772,"target":34962},{"buffer":0,"byteLength":288,"byteOffset":513964,"target":34963},{"buffer":0,"byteLength":1152,"byteOffset":514252,"target":34962},{"buffer":0,"byteLength":1152,"byteOffset":515404,"target":34962},{"buffer":0,"byteLength":768,"byteOffset":516556,"target":34962},{"buffer":0,"byteLength":288,"byteOffset":517324,"target":34963},{"buffer":0,"byteLength":1152,"byteOffset":517612,"target":34962},{"buffer":0,"byteLength":1152,"byteOffset":518764,"target":34962},{"buffer":0,"byteLength":768,"byteOffset":519916,"target":34962},{"buffer":0,"byteLength":288,"byteOffset":520684,"target":34963},{"buffer":0,"byteLength":1152,"byteOffset":520972,"target":34962},{"buffer":0,"byteLength":1152,"byteOffset":522124,"target":34962},{"buffer":0,"byteLength":768,"byteOffset":523276,"target":34962},{"buffer":0,"byteLength":288,"byteOffset":524044,"target":34963},{"buffer":0,"byteLength":1128,"byteOffset":524332,"target":34962},{"buffer":0,"byteLength":1128,"byteOffset":525460,"target":34962},{"buffer":0,"byteLength":752,"byteOffset":526588,"target":34962},{"buffer":0,"byteLength":120,"byteOffset":527340,"target":34963},{"buffer":0,"byteLength":456,"byteOffset":527460,"target":34962},{"buffer":0,"byteLength":456,"byteOffset":527916,"target":34962},{"buffer":0,"byteLength":304,"byteOffset":528372,"target":34962},{"buffer":0,"byteLength":228,"byteOffset":528676,"target":34963},{"buffer":0,"byteLength":888,"byteOffset":528904,"target":34962},{"buffer":0,"byteLength":888,"byteOffset":529792,"target":34962},{"buffer":0,"byteLength":592,"byteOffset":530680,"target":34962}],"buffers":[{"byteLength":531272,"uri":"SM_Alchemist's_Table.bin"}],"images":[{"name":"New Palitra","uri":"Polygon_Texture2.png"}],"materials":[{"alphaMode":"OPAQUE","doubleSided":false,"extras":{"fromFBX":{"isTruePBR":false,"shadingModel":"Phong"}},"name":"Main","pbrMetallicRoughness":{"baseColorFactor":[1,1,1,1],"baseColorTexture":{"index":0,"texCoord":0},"metallicFactor":0.400000005960464,"roughnessFactor":1}},{"alphaMode":"OPAQUE","doubleSided":false,"extras":{"fromFBX":{"isTruePBR":false,"shadingModel":"Phong"}},"name":"Main_Glass","pbrMetallicRoughness":{"baseColorFactor":[1,1,1,1],"baseColorTexture":{"index":0,"texCoord":0},"metallicFactor":0.400000005960464,"roughnessFactor":1}},{"alphaMode":"OPAQUE","doubleSided":false,"extras":{"fromFBX":{"isTruePBR":false,"shadingModel":"Phong"}},"name":"Liquid","pbrMetallicRoughness":{"baseColorFactor":[0.800000011920929,0.800000011920929,0.800000011920929,1],"metallicFactor":0.400000005960464,"roughnessFactor":1}}],"meshes":[{"name":"SM_Alchemist's_Table","primitives":[{"attributes":{"NORMAL":2,"POSITION":1,"TEXCOORD_0":3},"indices":0,"material":0,"mode":4}]},{"name":"SM_Alchemist's_Table_Stove","primitives":[{"attributes":{"NORMAL":6,"POSITION":5,"TEXCOORD_0":7},"indices":4,"material":0,"mode":4}]},{"name":"SM_Stove_Arm","primitives":[{"attributes":{"NORMAL":10,"POSITION":9,"TEXCOORD_0":11},"indices":8,"material":0,"mode":4}]},{"name":"SM_Alchemist's_Table_Door_Table","primitives":[{"attributes":{"NORMAL":14,"POSITION":13,"TEXCOORD_0":15},"indices":12,"material":0,"mode":4}]},{"name":"SM_Alchemical_Apparatus","primitives":[{"attributes":{"NORMAL":18,"POSITION":17,"TEXCOORD_0":19},"indices":16,"material":0,"mode":4},{"attributes":{"NORMAL":30,"POSITION":29,"TEXCOORD_0":31},"indices":28,"material":1,"mode":4}]},{"name":"SM_Alchemical_Botle","primitives":[{"attributes":{"NORMAL":22,"POSITION":21,"TEXCOORD_0":23},"indices":20,"material":0,"mode":4},{"attributes":{"NORMAL":34,"POSITION":33,"TEXCOORD_0":35},"indices":32,"material":1,"mode":4}]},{"name":"SM_Alchemical_Apparatus_Arrow","primitives":[{"attributes":{"NORMAL":26,"POSITION":25,"TEXCOORD_0":27},"indices":24,"material":0,"mode":4}]},{"name":"SM_Alchemical_Apparatus_Liquid_01","primitives":[{"attributes":{"NORMAL":38,"POSITION":37,"TEXCOORD_0":39},"indices":36,"material":2,"mode":4}]},{"name":"SM_Alchemical_Apparatus_Liquid_02","primitives":[{"attributes":{"NORMAL":42,"POSITION":41,"TEXCOORD_0":43},"indices":40,"material":2,"mode":4}]},{"name":"SM_Alchemical_Apparatus_Liquid_03","primitives":[{"attributes":{"NORMAL":46,"POSITION":45,"TEXCOORD_0":47},"indices":44,"material":2,"mode":4}]},{"name":"SM_Alchemical_Apparatus_Liquid_04","primitives":[{"attributes":{"NORMAL":50,"POSITION":49,"TEXCOORD_0":51},"indices":48,"material":2,"mode":4}]},{"name":"SM_Alchemical_Apparatus_Liquid_05","primitives":[{"attributes":{"NORMAL":54,"POSITION":53,"TEXCOORD_0":55},"indices":52,"material":2,"mode":4}]},{"name":"SM_Alchemical_Botle_Liquid","primitives":[{"attributes":{"NORMAL":58,"POSITION":57,"TEXCOORD_0":59},"indices":56,"material":2,"mode":4}]}],"nodes":[{"children":[1,2,3,4,5,6,7,8,9,10,11,12],"mesh":0,"name":"SM_Alchemist's_Table","rotation":[0,0,0,1],"scale":[1,1,1],"translation":[0,0,0]},{"mesh":1,"name":"SM_Alchemist's_Table_Stove","rotation":[0,0,0,1],"scale":[1,1,1],"translation":[1.76218497753143,0.393924474716187,-0.06697845458984]},{"mesh":2,"name":"SM_Stove_Arm","rotation":[0,0,0,1],"scale":[1,1,1],"translation":[1.30131149291992,0.461800366640091,0.0248126983642578]},{"mesh":3,"name":"SM_Alchemist's_Table_Door_Table","rotation":[0,0,0,1],"scale":[1,1,1],"translation":[0.257850170135498,0.673848390579224,0.417930603027344]},{"mesh":4,"name":"SM_Alchemical_Apparatus","rotation":[0,0,0,1],"scale":[1,1,1],"translation":[0,0,0]},{"mesh":5,"name":"SM_Alchemical_Botle","rotation":[0,0,0,1],"scale":[1,1,1],"translation":[-0.03095722198486,1.0602320432663,0.0102195739746094]},{"mesh":7,"name":"SM_Alchemical_Apparatus_Liquid_01","rotation":[0,0,0,1],"scale":[1,1,1],"translation":[0.308336734771729,1.63380265235901,-0.25787162780762]},{"mesh":8,"name":"SM_Alchemical_Apparatus_Liquid_02","rotation":[0,0,0,1],"scale":[1,1,1],"translation":[-0.39597845077515,1.40265715122223,-0.26026725769043]},{"mesh":9,"name":"SM_Alchemical_Apparatus_Liquid_03","rotation":[0,0,0,1],"scale":[1,1,1],"translation":[-0.83803510665894,1.13335299491882,-0.10320281982422]},{"mesh":10,"name":"SM_Alchemical_Apparatus_Liquid_04","rotation":[0,0,0,1],"scale":[1,1,1],"translation":[-0.83801984786987,1.1590404510498,0.0788745880126953]},{"mesh":11,"name":"SM_Alchemical_Apparatus_Liquid_05","rotation":[0,0,0,1],"scale":[1,1,1],"translation":[-0.49212741851807,1.10117506980896,0.509408950805664]},{"mesh":6,"name":"SM_Alchemical_Apparatus_Arrow","rotation":[0,0,0,1],"scale":[1,1,1],"translation":[0.753024101257324,1.84261441230774,-0.09689712524414]},{"mesh":12,"name":"SM_Alchemical_Botle_Liquid","rotation":[0,0,0,1],"scale":[1,1,1],"translation":[-0.03095722198486,1.0602320432663,0.0102195739746094]}],"samplers":[{}],"scene":0,"scenes":[{"name":"Root Scene","nodes":[0]}],"textures":[{"name":"base_color_texture","sampler":0,"source":0}]}