{"accessors":[{"bufferView":0,"byteOffset":0,"componentType":5123,"count":8820,"type":"SCALAR"},{"bufferView":1,"byteOffset":0,"componentType":5126,"count":5484,"max":[0.918645203113556,1.80673670768738,0.642928123474121],"min":[-1.28245341777802,-0.00020408630371,-0.64202004671097],"type":"VEC3"},{"bufferView":2,"byteOffset":0,"componentType":5126,"count":5484,"type":"VEC3"},{"bufferView":3,"byteOffset":0,"componentType":5126,"count":5484,"type":"VEC2"},{"bufferView":4,"byteOffset":0,"componentType":5123,"count":414,"type":"SCALAR"},{"bufferView":5,"byteOffset":0,"componentType":5126,"count":249,"max":[0.311806678771973,0.425325453281403,0.0743064284324646],"min":[-0.31180685758591,-0.02738860063255,-0.01804488897324],"type":"VEC3"},{"bufferView":6,"byteOffset":0,"componentType":5126,"count":249,"type":"VEC3"},{"bufferView":7,"byteOffset":0,"componentType":5126,"count":249,"type":"VEC2"},{"bufferView":8,"byteOffset":0,"componentType":5123,"count":480,"type":"SCALAR"},{"bufferView":9,"byteOffset":0,"componentType":5126,"count":448,"max":[1.0074235200882,0.0939611867070198,0.264446556568146],"min":[-0.31220063567162,-0.37659275531769,-1.01288783550262],"type":"VEC3"},{"bufferView":10,"byteOffset":0,"componentType":5126,"count":448,"type":"VEC3"},{"bufferView":11,"byteOffset":0,"componentType":5126,"count":448,"type":"VEC2"},{"bufferView":12,"byteOffset":0,"componentType":5123,"count":372,"type":"SCALAR"},{"bufferView":13,"byteOffset":0,"componentType":5126,"count":248,"max":[0.253545939922333,0.00974398851394653,0.218386873602867],"min":[-0.23868066072464,-0.02727115154266,-0.22795623540878],"type":"VEC3"},{"bufferView":14,"byteOffset":0,"componentType":5126,"count":248,"type":"VEC3"},{"bufferView":15,"byteOffset":0,"componentType":5126,"count":248,"type":"VEC2"},{"bufferView":16,"byteOffset":0,"componentType":5123,"count":6,"type":"SCALAR"},{"bufferView":17,"byteOffset":0,"componentType":5126,"count":4,"max":[0.00445398688316345,0.0398983955383301,-0.00184294581413],"min":[-0.00165873765945,-0.00844860076904,-0.00452581048012],"type":"VEC3"},{"bufferView":18,"byteOffset":0,"componentType":5126,"count":4,"type":"VEC3"},{"bufferView":19,"byteOffset":0,"componentType":5126,"count":4,"type":"VEC2"},{"bufferView":20,"byteOffset":0,"componentType":5123,"count":600,"type":"SCALAR"},{"bufferView":21,"byteOffset":0,"componentType":5126,"count":355,"max":[0.246113255620003,0.350879579782486,0.00332974456250668],"min":[-0.24611346423626,0.0419218689203262,-0.0066629848443],"type":"VEC3"},{"bufferView":22,"byteOffset":0,"componentType":5126,"count":355,"type":"VEC3"},{"bufferView":23,"byteOffset":0,"componentType":5126,"count":355,"type":"VEC2"}],"asset":{"generator":"FBX2glTF v0.13.1","version":"2.0"},"bufferViews":[{"buffer":0,"byteLength":17640,"byteOffset":0,"target":34963},{"buffer":0,"byteLength":65808,"byteOffset":17640,"target":34962},{"buffer":0,"byteLength":65808,"byteOffset":83448,"target":34962},{"buffer":0,"byteLength":43872,"byteOffset":149256,"target":34962},{"buffer":0,"byteLength":828,"byteOffset":193128,"target":34963},{"buffer":0,"byteLength":2988,"byteOffset":193956,"target":34962},{"buffer":0,"byteLength":2988,"byteOffset":196944,"target":34962},{"buffer":0,"byteLength":1992,"byteOffset":199932,"target":34962},{"buffer":0,"byteLength":960,"byteOffset":201924,"target":34963},{"buffer":0,"byteLength":5376,"byteOffset":202884,"target":34962},{"buffer":0,"byteLength":5376,"byteOffset":208260,"target":34962},{"buffer":0,"byteLength":3584,"byteOffset":213636,"target":34962},{"buffer":0,"byteLength":744,"byteOffset":217220,"target":34963},{"buffer":0,"byteLength":2976,"byteOffset":217964,"target":34962},{"buffer":0,"byteLength":2976,"byteOffset":220940,"target":34962},{"buffer":0,"byteLength":1984,"byteOffset":223916,"target":34962},{"buffer":0,"byteLength":12,"byteOffset":225900,"target":34963},{"buffer":0,"byteLength":48,"byteOffset":225912,"target":34962},{"buffer":0,"byteLength":48,"byteOffset":225960,"target":34962},{"buffer":0,"byteLength":32,"byteOffset":226008,"target":34962},{"buffer":0,"byteLength":1200,"byteOffset":226040,"target":34963},{"buffer":0,"byteLength":4260,"byteOffset":227240,"target":34962},{"buffer":0,"byteLength":4260,"byteOffset":231500,"target":34962},{"buffer":0,"byteLength":2840,"byteOffset":235760,"target":34962}],"buffers":[{"byteLength":238600,"uri":"SM_Cooking_Table.bin"}],"images":[{"name":"New Palitra","uri":"../../Textures/Polygon_Texture2.png"}],"materials":[{"alphaMode":"OPAQUE","doubleSided":false,"extras":{"fromFBX":{"isTruePBR":false,"shadingModel":"Phong"}},"name":"Main","pbrMetallicRoughness":{"baseColorFactor":[1,1,1,1],"baseColorTexture":{"index":0,"texCoord":0},"metallicFactor":0.400000005960464,"roughnessFactor":1}},{"alphaMode":"OPAQUE","doubleSided":false,"extras":{"fromFBX":{"isTruePBR":false,"shadingModel":"Phong"}},"name":"Main_Glass","pbrMetallicRoughness":{"baseColorFactor":[1,1,1,1],"baseColorTexture":{"index":0,"texCoord":0},"metallicFactor":0.400000005960464,"roughnessFactor":1}}],"meshes":[{"name":"SM_Cooking_Table","primitives":[{"attributes":{"NORMAL":2,"POSITION":1,"TEXCOORD_0":3},"indices":0,"material":0,"mode":4}]},{"name":"SM_Cooking_Table_Door","primitives":[{"attributes":{"NORMAL":6,"POSITION":5,"TEXCOORD_0":7},"indices":4,"material":0,"mode":4},{"attributes":{"NORMAL":22,"POSITION":21,"TEXCOORD_0":23},"indices":20,"material":1,"mode":4}]},{"name":"SM_Cooking_Table_Rag_01","primitives":[{"attributes":{"NORMAL":10,"POSITION":9,"TEXCOORD_0":11},"indices":8,"material":0,"mode":4}]},{"name":"SM_Cooking_Table_Lattice","primitives":[{"attributes":{"NORMAL":14,"POSITION":13,"TEXCOORD_0":15},"indices":12,"material":0,"mode":4}]},{"name":"SM_Cooking_Table_Сursor","primitives":[{"attributes":{"NORMAL":18,"POSITION":17,"TEXCOORD_0":19},"indices":16,"material":0,"mode":4}]}],"nodes":[{"children":[1,2,3,4],"mesh":0,"name":"SM_Cooking_Table","rotation":[0,0,0,1],"scale":[1,1,1],"translation":[0,0,0]},{"mesh":1,"name":"SM_Cooking_Table_Door","rotation":[0,0,0,1],"scale":[1,1,1],"translation":[0.444385051727295,0.572326064109802,0.600240707397461]},{"mesh":2,"name":"SM_Cooking_Table_Rag_01","rotation":[0,0,0,1],"scale":[1,1,1],"translation":[-1.03782176971436,0.97236579656601,0.448768615722656]},{"mesh":3,"name":"SM_Cooking_Table_Lattice","rotation":[0,0,0,1],"scale":[1,1,1],"translation":[0.436952114105225,0.740708529949188,0.328822135925293]},{"mesh":4,"name":"SM_Cooking_Table_Сursor","rotation":[0,0,0,1],"scale":[1,1,1],"translation":[0.37175464630127,1.56226122379303,-0.10514354705811]}],"samplers":[{}],"scene":0,"scenes":[{"name":"Root Scene","nodes":[0]}],"textures":[{"name":"base_color_texture","sampler":0,"source":0}]}