{"accessors":[{"bufferView":0,"byteOffset":0,"componentType":5123,"count":252,"type":"SCALAR"},{"bufferView":1,"byteOffset":0,"componentType":5126,"count":148,"max":[1.0127569437027,2.21595668792725,0.0403390489518642],"min":[-1.00000011920929,1.08060371875763,0],"type":"VEC3"},{"bufferView":2,"byteOffset":0,"componentType":5126,"count":148,"type":"VEC3"},{"bufferView":3,"byteOffset":0,"componentType":5126,"count":148,"type":"VEC2"}],"asset":{"generator":"FBX2glTF v0.13.1","version":"2.0"},"bufferViews":[{"buffer":0,"byteLength":504,"byteOffset":0,"target":34963},{"buffer":0,"byteLength":1776,"byteOffset":504,"target":34962},{"buffer":0,"byteLength":1776,"byteOffset":2280,"target":34962},{"buffer":0,"byteLength":1184,"byteOffset":4056,"target":34962}],"buffers":[{"byteLength":5240,"uri":"SM_Chalk_Board_B.bin"}],"images":[{"name":"New Palitra","uri":"New Palitra.jpg"}],"materials":[{"alphaMode":"OPAQUE","doubleSided":false,"extras":{"fromFBX":{"isTruePBR":false,"shadingModel":"Phong"}},"name":"Main","pbrMetallicRoughness":{"baseColorFactor":[1,1,1,1],"baseColorTexture":{"index":0,"texCoord":0},"metallicFactor":0.400000005960464,"roughnessFactor":1}}],"meshes":[{"name":"SM_Chalk_Board_B","primitives":[{"attributes":{"NORMAL":2,"POSITION":1,"TEXCOORD_0":3},"indices":0,"material":0,"mode":4}]}],"nodes":[{"mesh":0,"name":"SM_Chalk_Board_B","rotation":[0,0,0,1],"scale":[1,1,1],"translation":[0,0,0]}],"samplers":[{}],"scene":0,"scenes":[{"name":"Root Scene","nodes":[0]}],"textures":[{"name":"base_color_texture","sampler":0,"source":0}]}