{"accessors":[{"bufferView":0,"byteOffset":0,"componentType":5123,"count":1158,"type":"SCALAR"},{"bufferView":1,"byteOffset":0,"componentType":5126,"count":698,"max":[1.52735650539398,0.0177359580993652,0.670792937278748],"min":[-1.41487336158752,0.0000000223517417907715,-0.66764771938324],"type":"VEC3"},{"bufferView":2,"byteOffset":0,"componentType":5126,"count":698,"type":"VEC3"},{"bufferView":3,"byteOffset":0,"componentType":5126,"count":698,"type":"VEC2"}],"asset":{"generator":"FBX2glTF v0.13.1","version":"2.0"},"bufferViews":[{"buffer":0,"byteLength":2316,"byteOffset":0,"target":34963},{"buffer":0,"byteLength":8376,"byteOffset":2316,"target":34962},{"buffer":0,"byteLength":8376,"byteOffset":10692,"target":34962},{"buffer":0,"byteLength":5584,"byteOffset":19068,"target":34962}],"buffers":[{"byteLength":24652,"uri":"SM_Carpet_B.bin"}],"images":[{"name":"New Palitra","uri":"../../Textures/Polygon_Texture2.png"}],"materials":[{"alphaMode":"OPAQUE","doubleSided":false,"extras":{"fromFBX":{"isTruePBR":false,"shadingModel":"Phong"}},"name":"Main","pbrMetallicRoughness":{"baseColorFactor":[1,1,1,1],"baseColorTexture":{"index":0,"texCoord":0},"metallicFactor":0.400000005960464,"roughnessFactor":1}}],"meshes":[{"name":"SM_Carpet_B","primitives":[{"attributes":{"NORMAL":2,"POSITION":1,"TEXCOORD_0":3},"indices":0,"material":0,"mode":4}]}],"nodes":[{"mesh":0,"name":"SM_Carpet_B","rotation":[0,0,0,1],"scale":[1,1,1],"translation":[0,0,0]}],"samplers":[{}],"scene":0,"scenes":[{"name":"Root Scene","nodes":[0]}],"textures":[{"name":"base_color_texture","sampler":0,"source":0}]}