{"accessors":[{"bufferView":0,"byteOffset":0,"componentType":5123,"count":720,"type":"SCALAR"},{"bufferView":1,"byteOffset":0,"componentType":5126,"count":451,"max":[1.1906486749649,0.0355445109307766,1.22546362876892],"min":[-1.1906486749649,-0.00000000372529,-1.22546362876892],"type":"VEC3"},{"bufferView":2,"byteOffset":0,"componentType":5126,"count":451,"type":"VEC3"},{"bufferView":3,"byteOffset":0,"componentType":5126,"count":451,"type":"VEC2"}],"asset":{"generator":"FBX2glTF v0.13.1","version":"2.0"},"bufferViews":[{"buffer":0,"byteLength":1440,"byteOffset":0,"target":34963},{"buffer":0,"byteLength":5412,"byteOffset":1440,"target":34962},{"buffer":0,"byteLength":5412,"byteOffset":6852,"target":34962},{"buffer":0,"byteLength":3608,"byteOffset":12264,"target":34962}],"buffers":[{"byteLength":15872,"uri":"SM_Carpet_D.bin"}],"images":[{"name":"New Palitra","uri":"Polygon_Texture2.png"}],"materials":[{"alphaMode":"OPAQUE","doubleSided":false,"extras":{"fromFBX":{"isTruePBR":false,"shadingModel":"Phong"}},"name":"Main","pbrMetallicRoughness":{"baseColorFactor":[1,1,1,1],"baseColorTexture":{"index":0,"texCoord":0},"metallicFactor":0.400000005960464,"roughnessFactor":1}}],"meshes":[{"name":"SM_Carpet_D","primitives":[{"attributes":{"NORMAL":2,"POSITION":1,"TEXCOORD_0":3},"indices":0,"material":0,"mode":4}]}],"nodes":[{"mesh":0,"name":"SM_Carpet_D","rotation":[0,0,0,1],"scale":[1,1,1],"translation":[0,0,0]}],"samplers":[{}],"scene":0,"scenes":[{"name":"Root Scene","nodes":[0]}],"textures":[{"name":"base_color_texture","sampler":0,"source":0}]}