{"accessors":[{"bufferView":0,"byteOffset":0,"componentType":5123,"count":648,"type":"SCALAR"},{"bufferView":1,"byteOffset":0,"componentType":5126,"count":410,"max":[0.207583099603653,3,0.218265905976295],"min":[-0.20758332312107,2.19582891464233,-0.2182659059763],"type":"VEC3"},{"bufferView":2,"byteOffset":0,"componentType":5126,"count":410,"type":"VEC3"},{"bufferView":3,"byteOffset":0,"componentType":5126,"count":410,"type":"VEC2"},{"bufferView":4,"byteOffset":0,"componentType":5123,"count":822,"type":"SCALAR"},{"bufferView":5,"byteOffset":0,"componentType":5126,"count":548,"max":[1.03000140190125,0.0485528409481049,1.06013453006744],"min":[-1.03259205818176,-0.09652614593506,-0.86530303955078],"type":"VEC3"},{"bufferView":6,"byteOffset":0,"componentType":5126,"count":548,"type":"VEC3"},{"bufferView":7,"byteOffset":0,"componentType":5126,"count":548,"type":"VEC2"},{"bufferView":8,"byteOffset":0,"componentType":5123,"count":120,"type":"SCALAR"},{"bufferView":9,"byteOffset":0,"componentType":5126,"count":78,"max":[0.0470188744366169,2.53860187530518,0.0542930029332638],"min":[-0.04701952263713,2.41647958755493,-0.0542931817472],"type":"VEC3"},{"bufferView":10,"byteOffset":0,"componentType":5126,"count":78,"type":"VEC3"},{"bufferView":11,"byteOffset":0,"componentType":5126,"count":78,"type":"VEC2"}],"asset":{"generator":"FBX2glTF v0.13.1","version":"2.0"},"bufferViews":[{"buffer":0,"byteLength":1296,"byteOffset":0,"target":34963},{"buffer":0,"byteLength":4920,"byteOffset":1296,"target":34962},{"buffer":0,"byteLength":4920,"byteOffset":6216,"target":34962},{"buffer":0,"byteLength":3280,"byteOffset":11136,"target":34962},{"buffer":0,"byteLength":1644,"byteOffset":14416,"target":34963},{"buffer":0,"byteLength":6576,"byteOffset":16060,"target":34962},{"buffer":0,"byteLength":6576,"byteOffset":22636,"target":34962},{"buffer":0,"byteLength":4384,"byteOffset":29212,"target":34962},{"buffer":0,"byteLength":240,"byteOffset":33596,"target":34963},{"buffer":0,"byteLength":936,"byteOffset":33836,"target":34962},{"buffer":0,"byteLength":936,"byteOffset":34772,"target":34962},{"buffer":0,"byteLength":624,"byteOffset":35708,"target":34962}],"buffers":[{"byteLength":36332,"uri":"SM_Ceiling_Fan.bin"}],"images":[{"name":"New Palitra","uri":"Polygon_Texture2.png"}],"materials":[{"alphaMode":"OPAQUE","doubleSided":false,"extras":{"fromFBX":{"isTruePBR":false,"shadingModel":"Phong"}},"name":"Main","pbrMetallicRoughness":{"baseColorFactor":[1,1,1,1],"baseColorTexture":{"index":0,"texCoord":0},"metallicFactor":0.400000005960464,"roughnessFactor":1}},{"alphaMode":"OPAQUE","doubleSided":false,"extras":{"fromFBX":{"isTruePBR":false,"shadingModel":"Phong"}},"name":"Light","pbrMetallicRoughness":{"baseColorFactor":[0.800000011920929,0.800000011920929,0.800000011920929,1],"metallicFactor":0.400000005960464,"roughnessFactor":0.272165536880493}}],"meshes":[{"name":"SM_Ceiling_Fan","primitives":[{"attributes":{"NORMAL":2,"POSITION":1,"TEXCOORD_0":3},"indices":0,"material":0,"mode":4},{"attributes":{"NORMAL":10,"POSITION":9,"TEXCOORD_0":11},"indices":8,"material":1,"mode":4}]},{"name":"SM_Ceiling_Fan_Blade","primitives":[{"attributes":{"NORMAL":6,"POSITION":5,"TEXCOORD_0":7},"indices":4,"material":0,"mode":4}]}],"nodes":[{"children":[1],"mesh":0,"name":"SM_Ceiling_Fan","rotation":[0,0,0,1],"scale":[1,1,1],"translation":[0,0,0]},{"mesh":1,"name":"SM_Ceiling_Fan_Blade","rotation":[0,0,0,1],"scale":[1,1,1],"translation":[0,2.62468862533569,0]}],"samplers":[{}],"scene":0,"scenes":[{"name":"Root Scene","nodes":[0]}],"textures":[{"name":"base_color_texture","sampler":0,"source":0}]}