{"accessors":[{"bufferView":0,"byteOffset":0,"componentType":5123,"count":2106,"type":"SCALAR"},{"bufferView":1,"byteOffset":0,"componentType":5126,"count":1278,"max":[0.6636061668396,2.46496653556824,0.348506808280945],"min":[-0.6636061668396,0,-0.2669412791729],"type":"VEC3"},{"bufferView":2,"byteOffset":0,"componentType":5126,"count":1278,"type":"VEC3"},{"bufferView":3,"byteOffset":0,"componentType":5126,"count":1278,"type":"VEC2"},{"bufferView":4,"byteOffset":0,"componentType":5123,"count":912,"type":"SCALAR"},{"bufferView":5,"byteOffset":0,"componentType":5126,"count":608,"max":[0.0167899131774902,0.677800893783569,0.127292200922966],"min":[-0.65519016981125,-0.70849758386612,-0.03267245739698],"type":"VEC3"},{"bufferView":6,"byteOffset":0,"componentType":5126,"count":608,"type":"VEC3"},{"bufferView":7,"byteOffset":0,"componentType":5126,"count":608,"type":"VEC2"},{"bufferView":8,"byteOffset":0,"componentType":5123,"count":360,"type":"SCALAR"},{"bufferView":9,"byteOffset":0,"componentType":5126,"count":236,"max":[0.620826721191406,0.678230047225952,0.061299204826355],"min":[-0.01678991317749,-0.68697041273117,-0.02999997138977],"type":"VEC3"},{"bufferView":10,"byteOffset":0,"componentType":5126,"count":236,"type":"VEC3"},{"bufferView":11,"byteOffset":0,"componentType":5126,"count":236,"type":"VEC2"},{"bufferView":12,"byteOffset":0,"componentType":5123,"count":270,"type":"SCALAR"},{"bufferView":13,"byteOffset":0,"componentType":5126,"count":153,"max":[0.639894902706146,0.0949538797140121,0.170879125595093],"min":[-0.63059616088867,-0.1576049476862,-0.44750514626503],"type":"VEC3"},{"bufferView":14,"byteOffset":0,"componentType":5126,"count":153,"type":"VEC3"},{"bufferView":15,"byteOffset":0,"componentType":5126,"count":153,"type":"VEC2"},{"bufferView":16,"byteOffset":0,"componentType":5123,"count":294,"type":"SCALAR"},{"bufferView":17,"byteOffset":0,"componentType":5126,"count":148,"max":[0.620826721191406,0.0949538797140121,0.170879051089287],"min":[-0.62082660198212,-0.09182934463024,-0.44750514626503],"type":"VEC3"},{"bufferView":18,"byteOffset":0,"componentType":5126,"count":148,"type":"VEC3"},{"bufferView":19,"byteOffset":0,"componentType":5126,"count":148,"type":"VEC2"},{"bufferView":20,"byteOffset":0,"componentType":5123,"count":114,"type":"SCALAR"},{"bufferView":21,"byteOffset":0,"componentType":5126,"count":68,"max":[0.302046626806259,0.101083002984524,0.222409620881081],"min":[-0.30204656720161,-0.1034951582551,-0.39597457647324],"type":"VEC3"},{"bufferView":22,"byteOffset":0,"componentType":5126,"count":68,"type":"VEC3"},{"bufferView":23,"byteOffset":0,"componentType":5126,"count":68,"type":"VEC2"},{"bufferView":24,"byteOffset":0,"componentType":5123,"count":264,"type":"SCALAR"},{"bufferView":25,"byteOffset":0,"componentType":5126,"count":128,"max":[0.302046626806259,0.101083002984524,0.222409620881081],"min":[-0.30204656720161,-0.1034951582551,-0.39597457647324],"type":"VEC3"},{"bufferView":26,"byteOffset":0,"componentType":5126,"count":128,"type":"VEC3"},{"bufferView":27,"byteOffset":0,"componentType":5126,"count":128,"type":"VEC2"},{"bufferView":28,"byteOffset":0,"componentType":5123,"count":114,"type":"SCALAR"},{"bufferView":29,"byteOffset":0,"componentType":5126,"count":68,"max":[0.302046626806259,0.101083002984524,0.222409620881081],"min":[-0.30204656720161,-0.1034951582551,-0.39597457647324],"type":"VEC3"},{"bufferView":30,"byteOffset":0,"componentType":5126,"count":68,"type":"VEC3"},{"bufferView":31,"byteOffset":0,"componentType":5126,"count":68,"type":"VEC2"},{"bufferView":32,"byteOffset":0,"componentType":5123,"count":114,"type":"SCALAR"},{"bufferView":33,"byteOffset":0,"componentType":5126,"count":68,"max":[0.302046626806259,0.101083002984524,0.222409620881081],"min":[-0.30204656720161,-0.1034951582551,-0.39597457647324],"type":"VEC3"},{"bufferView":34,"byteOffset":0,"componentType":5126,"count":68,"type":"VEC3"},{"bufferView":35,"byteOffset":0,"componentType":5126,"count":68,"type":"VEC2"}],"asset":{"generator":"FBX2glTF v0.13.1","version":"2.0"},"bufferViews":[{"buffer":0,"byteLength":4212,"byteOffset":0,"target":34963},{"buffer":0,"byteLength":15336,"byteOffset":4212,"target":34962},{"buffer":0,"byteLength":15336,"byteOffset":19548,"target":34962},{"buffer":0,"byteLength":10224,"byteOffset":34884,"target":34962},{"buffer":0,"byteLength":1824,"byteOffset":45108,"target":34963},{"buffer":0,"byteLength":7296,"byteOffset":46932,"target":34962},{"buffer":0,"byteLength":7296,"byteOffset":54228,"target":34962},{"buffer":0,"byteLength":4864,"byteOffset":61524,"target":34962},{"buffer":0,"byteLength":720,"byteOffset":66388,"target":34963},{"buffer":0,"byteLength":2832,"byteOffset":67108,"target":34962},{"buffer":0,"byteLength":2832,"byteOffset":69940,"target":34962},{"buffer":0,"byteLength":1888,"byteOffset":72772,"target":34962},{"buffer":0,"byteLength":540,"byteOffset":74660,"target":34963},{"buffer":0,"byteLength":1836,"byteOffset":75200,"target":34962},{"buffer":0,"byteLength":1836,"byteOffset":77036,"target":34962},{"buffer":0,"byteLength":1224,"byteOffset":78872,"target":34962},{"buffer":0,"byteLength":588,"byteOffset":80096,"target":34963},{"buffer":0,"byteLength":1776,"byteOffset":80684,"target":34962},{"buffer":0,"byteLength":1776,"byteOffset":82460,"target":34962},{"buffer":0,"byteLength":1184,"byteOffset":84236,"target":34962},{"buffer":0,"byteLength":228,"byteOffset":85420,"target":34963},{"buffer":0,"byteLength":816,"byteOffset":85648,"target":34962},{"buffer":0,"byteLength":816,"byteOffset":86464,"target":34962},{"buffer":0,"byteLength":544,"byteOffset":87280,"target":34962},{"buffer":0,"byteLength":528,"byteOffset":87824,"target":34963},{"buffer":0,"byteLength":1536,"byteOffset":88352,"target":34962},{"buffer":0,"byteLength":1536,"byteOffset":89888,"target":34962},{"buffer":0,"byteLength":1024,"byteOffset":91424,"target":34962},{"buffer":0,"byteLength":228,"byteOffset":92448,"target":34963},{"buffer":0,"byteLength":816,"byteOffset":92676,"target":34962},{"buffer":0,"byteLength":816,"byteOffset":93492,"target":34962},{"buffer":0,"byteLength":544,"byteOffset":94308,"target":34962},{"buffer":0,"byteLength":228,"byteOffset":94852,"target":34963},{"buffer":0,"byteLength":816,"byteOffset":95080,"target":34962},{"buffer":0,"byteLength":816,"byteOffset":95896,"target":34962},{"buffer":0,"byteLength":544,"byteOffset":96712,"target":34962}],"buffers":[{"byteLength":97256,"uri":"SM_Cupboard.bin"}],"images":[{"name":"New Palitra","uri":"Polygon_Texture2.png"}],"materials":[{"alphaMode":"OPAQUE","doubleSided":false,"extras":{"fromFBX":{"isTruePBR":false,"shadingModel":"Phong"}},"name":"Main","pbrMetallicRoughness":{"baseColorFactor":[1,1,1,1],"baseColorTexture":{"index":0,"texCoord":0},"metallicFactor":0.400000005960464,"roughnessFactor":1}}],"meshes":[{"name":"SM_Cupboard","primitives":[{"attributes":{"NORMAL":2,"POSITION":1,"TEXCOORD_0":3},"indices":0,"material":0,"mode":4}]},{"name":"SM_Cupboard_Door_R","primitives":[{"attributes":{"NORMAL":6,"POSITION":5,"TEXCOORD_0":7},"indices":4,"material":0,"mode":4}]},{"name":"SM_Cupboard_Door_L","primitives":[{"attributes":{"NORMAL":10,"POSITION":9,"TEXCOORD_0":11},"indices":8,"material":0,"mode":4}]},{"name":"SM_Cupboard_Shelf_06","primitives":[{"attributes":{"NORMAL":14,"POSITION":13,"TEXCOORD_0":15},"indices":12,"material":0,"mode":4}]},{"name":"SM_Cupboard_Shelf_05","primitives":[{"attributes":{"NORMAL":18,"POSITION":17,"TEXCOORD_0":19},"indices":16,"material":0,"mode":4}]},{"name":"SM_Cupboard_Shelf_03","primitives":[{"attributes":{"NORMAL":22,"POSITION":21,"TEXCOORD_0":23},"indices":20,"material":0,"mode":4}]},{"name":"SM_Cupboard_Shelf_01","primitives":[{"attributes":{"NORMAL":26,"POSITION":25,"TEXCOORD_0":27},"indices":24,"material":0,"mode":4}]},{"name":"SM_Cupboard_Shelf_04","primitives":[{"attributes":{"NORMAL":30,"POSITION":29,"TEXCOORD_0":31},"indices":28,"material":0,"mode":4}]},{"name":"SM_Cupboard_Shelf_02","primitives":[{"attributes":{"NORMAL":34,"POSITION":33,"TEXCOORD_0":35},"indices":32,"material":0,"mode":4}]}],"nodes":[{"children":[1,2,3,4,5,6,7,8],"mesh":0,"name":"SM_Cupboard","rotation":[0,0,0,1],"scale":[1,1,1],"translation":[0,0,0]},{"mesh":1,"name":"SM_Cupboard_Door_R","rotation":[0,0,0,1],"scale":[1,1,1],"translation":[0.620826721191406,1.74395704269409,0.348506927490234]},{"mesh":2,"name":"SM_Cupboard_Door_L","rotation":[0,0,0,1],"scale":[1,1,1],"translation":[-0.62082672119141,1.74395704269409,0.348506927490234]},{"mesh":3,"name":"SM_Cupboard_Shelf_06","rotation":[0,0,0,1],"scale":[1,1,1],"translation":[0,0.234608829021454,0.233732223510742]},{"mesh":4,"name":"SM_Cupboard_Shelf_05","rotation":[0,0,0,1],"scale":[1,1,1],"translation":[0,0.452476173639297,0.233732223510742]},{"mesh":5,"name":"SM_Cupboard_Shelf_03","rotation":[0,0,0,1],"scale":[1,1,1],"translation":[-0.31877994537353,0.684391915798187,0.18220329284668]},{"mesh":6,"name":"SM_Cupboard_Shelf_01","rotation":[0,0,0,1],"scale":[1,1,1],"translation":[-0.31877994537353,0.922436833381653,0.18220329284668]},{"mesh":7,"name":"SM_Cupboard_Shelf_04","rotation":[0,0,0,1],"scale":[1,1,1],"translation":[0.318779945373535,0.684391915798187,0.18220329284668]},{"mesh":8,"name":"SM_Cupboard_Shelf_02","rotation":[0,0,0,1],"scale":[1,1,1],"translation":[0.318779945373535,0.922436833381653,0.18220329284668]}],"samplers":[{}],"scene":0,"scenes":[{"name":"Root Scene","nodes":[0]}],"textures":[{"name":"base_color_texture","sampler":0,"source":0}]}