{"accessors":[{"bufferView":0,"byteOffset":0,"componentType":5123,"count":1206,"type":"SCALAR"},{"bufferView":1,"byteOffset":0,"componentType":5126,"count":713,"max":[1.15804159641266,1.92804503440857,0.396907329559326],"min":[-1.15535235404968,0,-0.38922846317291],"type":"VEC3"},{"bufferView":2,"byteOffset":0,"componentType":5126,"count":713,"type":"VEC3"},{"bufferView":3,"byteOffset":0,"componentType":5126,"count":713,"type":"VEC2"},{"bufferView":4,"byteOffset":0,"componentType":5123,"count":336,"type":"SCALAR"},{"bufferView":5,"byteOffset":0,"componentType":5126,"count":192,"max":[1.0127569437027,0.561421155929565,0.0319322347640991],"min":[-1.00000011920929,-0.57393181324005,-0.03193199634552],"type":"VEC3"},{"bufferView":6,"byteOffset":0,"componentType":5126,"count":192,"type":"VEC3"},{"bufferView":7,"byteOffset":0,"componentType":5126,"count":192,"type":"VEC2"}],"asset":{"generator":"FBX2glTF v0.13.1","version":"2.0"},"bufferViews":[{"buffer":0,"byteLength":2412,"byteOffset":0,"target":34963},{"buffer":0,"byteLength":8556,"byteOffset":2412,"target":34962},{"buffer":0,"byteLength":8556,"byteOffset":10968,"target":34962},{"buffer":0,"byteLength":5704,"byteOffset":19524,"target":34962},{"buffer":0,"byteLength":672,"byteOffset":25228,"target":34963},{"buffer":0,"byteLength":2304,"byteOffset":25900,"target":34962},{"buffer":0,"byteLength":2304,"byteOffset":28204,"target":34962},{"buffer":0,"byteLength":1536,"byteOffset":30508,"target":34962}],"buffers":[{"byteLength":32044,"uri":"SM_Chalk_Board_A.bin"}],"images":[{"name":"New Palitra","uri":"../../Textures/Polygon_Texture2.png"}],"materials":[{"alphaMode":"OPAQUE","doubleSided":false,"extras":{"fromFBX":{"isTruePBR":false,"shadingModel":"Phong"}},"name":"Main","pbrMetallicRoughness":{"baseColorFactor":[1,1,1,1],"baseColorTexture":{"index":0,"texCoord":0},"metallicFactor":0.400000005960464,"roughnessFactor":1}}],"meshes":[{"name":"SM_Chalk_Board_A","primitives":[{"attributes":{"NORMAL":2,"POSITION":1,"TEXCOORD_0":3},"indices":0,"material":0,"mode":4}]},{"name":"SM_Board","primitives":[{"attributes":{"NORMAL":6,"POSITION":5,"TEXCOORD_0":7},"indices":4,"material":0,"mode":4}]}],"nodes":[{"children":[1],"mesh":0,"name":"SM_Chalk_Board_A","rotation":[0,0,0,1],"scale":[1,1,1],"translation":[0,0,0]},{"mesh":1,"name":"SM_Board","rotation":[0,0,0,1],"scale":[1,1,1],"translation":[0,1.65460276603699,0.00383949279785156]}],"samplers":[{}],"scene":0,"scenes":[{"name":"Root Scene","nodes":[0]}],"textures":[{"name":"base_color_texture","sampler":0,"source":0}]}