{"accessors":[{"bufferView":0,"byteOffset":0,"componentType":5123,"count":696,"type":"SCALAR"},{"bufferView":1,"byteOffset":0,"componentType":5126,"count":347,"max":[1.02063810825348,0.59228777885437,0.552039623260498],"min":[-1.04009652137756,0,-0.5520396232605],"type":"VEC3"},{"bufferView":2,"byteOffset":0,"componentType":5126,"count":347,"type":"VEC3"},{"bufferView":3,"byteOffset":0,"componentType":5126,"count":347,"type":"VEC2"}],"asset":{"generator":"FBX2glTF v0.13.1","version":"2.0"},"bufferViews":[{"buffer":0,"byteLength":1392,"byteOffset":0,"target":34963},{"buffer":0,"byteLength":4164,"byteOffset":1392,"target":34962},{"buffer":0,"byteLength":4164,"byteOffset":5556,"target":34962},{"buffer":0,"byteLength":2776,"byteOffset":9720,"target":34962}],"buffers":[{"byteLength":12496,"uri":"SM_Coffee_Table.bin"}],"images":[{"name":"New Palitra","uri":"New Palitra.jpg"}],"materials":[{"alphaMode":"OPAQUE","doubleSided":false,"extras":{"fromFBX":{"isTruePBR":false,"shadingModel":"Phong"}},"name":"Main","pbrMetallicRoughness":{"baseColorFactor":[1,1,1,1],"baseColorTexture":{"index":0,"texCoord":0},"metallicFactor":0.400000005960464,"roughnessFactor":1}}],"meshes":[{"name":"SM_Coffee_Table","primitives":[{"attributes":{"NORMAL":2,"POSITION":1,"TEXCOORD_0":3},"indices":0,"material":0,"mode":4}]}],"nodes":[{"mesh":0,"name":"SM_Coffee_Table","rotation":[0,0,0,1],"scale":[1,1,1],"translation":[0,0,0]}],"samplers":[{}],"scene":0,"scenes":[{"name":"Root Scene","nodes":[0]}],"textures":[{"name":"base_color_texture","sampler":0,"source":0}]}