{"accessors":[{"bufferView":0,"byteOffset":0,"componentType":5123,"count":834,"type":"SCALAR"},{"bufferView":1,"byteOffset":0,"componentType":5126,"count":477,"max":[0.270270198583603,2.09999990463257,0.270270198583603],"min":[-0.27027025818825,0,-0.27027025818825],"type":"VEC3"},{"bufferView":2,"byteOffset":0,"componentType":5126,"count":477,"type":"VEC3"},{"bufferView":3,"byteOffset":0,"componentType":5126,"count":477,"type":"VEC2"},{"bufferView":4,"byteOffset":0,"componentType":5123,"count":672,"type":"SCALAR"},{"bufferView":5,"byteOffset":0,"componentType":5126,"count":400,"max":[0.0269693732261658,0.444498270750046,0.0595753192901611],"min":[-0.45879149436951,-0.51462715864181,-0.02999988012016],"type":"VEC3"},{"bufferView":6,"byteOffset":0,"componentType":5126,"count":400,"type":"VEC3"},{"bufferView":7,"byteOffset":0,"componentType":5126,"count":400,"type":"VEC2"},{"bufferView":8,"byteOffset":0,"componentType":5123,"count":618,"type":"SCALAR"},{"bufferView":9,"byteOffset":0,"componentType":5126,"count":380,"max":[0.0269693732261658,0.444498121738434,0.0595753192901611],"min":[-0.45879149436951,-0.51462721824646,-0.02999988012016],"type":"VEC3"},{"bufferView":10,"byteOffset":0,"componentType":5126,"count":380,"type":"VEC3"},{"bufferView":11,"byteOffset":0,"componentType":5126,"count":380,"type":"VEC2"}],"asset":{"generator":"FBX2glTF v0.13.1","version":"2.0"},"bufferViews":[{"buffer":0,"byteLength":1668,"byteOffset":0,"target":34963},{"buffer":0,"byteLength":5724,"byteOffset":1668,"target":34962},{"buffer":0,"byteLength":5724,"byteOffset":7392,"target":34962},{"buffer":0,"byteLength":3816,"byteOffset":13116,"target":34962},{"buffer":0,"byteLength":1344,"byteOffset":16932,"target":34963},{"buffer":0,"byteLength":4800,"byteOffset":18276,"target":34962},{"buffer":0,"byteLength":4800,"byteOffset":23076,"target":34962},{"buffer":0,"byteLength":3200,"byteOffset":27876,"target":34962},{"buffer":0,"byteLength":1236,"byteOffset":31076,"target":34963},{"buffer":0,"byteLength":4560,"byteOffset":32312,"target":34962},{"buffer":0,"byteLength":4560,"byteOffset":36872,"target":34962},{"buffer":0,"byteLength":3040,"byteOffset":41432,"target":34962}],"buffers":[{"byteLength":44472,"uri":"SM_Locker_Gray.bin"}],"images":[{"name":"New Palitra","uri":"New Palitra.jpg"}],"materials":[{"alphaMode":"OPAQUE","doubleSided":false,"extras":{"fromFBX":{"isTruePBR":false,"shadingModel":"Phong"}},"name":"Main","pbrMetallicRoughness":{"baseColorFactor":[1,1,1,1],"baseColorTexture":{"index":0,"texCoord":0},"metallicFactor":0.400000005960464,"roughnessFactor":1}}],"meshes":[{"name":"SM_Locker_Gray","primitives":[{"attributes":{"NORMAL":2,"POSITION":1,"TEXCOORD_0":3},"indices":0,"material":0,"mode":4}]},{"name":"SM_Locker_Door_Up_Gray","primitives":[{"attributes":{"NORMAL":6,"POSITION":5,"TEXCOORD_0":7},"indices":4,"material":0,"mode":4}]},{"name":"SM_Locker_Door_Bot_Gray","primitives":[{"attributes":{"NORMAL":10,"POSITION":9,"TEXCOORD_0":11},"indices":8,"material":0,"mode":4}]}],"nodes":[{"children":[1,2],"mesh":0,"name":"SM_Locker_Gray","rotation":[0,0,0,1],"scale":[1,1,1],"translation":[0,0,0]},{"mesh":1,"name":"SM_Locker_Door_Up_Gray","rotation":[0,0,0,1],"scale":[1,1,1],"translation":[0.229395389556885,1.61462700366974,0.270271301269531]},{"mesh":2,"name":"SM_Locker_Door_Bot_Gray","rotation":[0,0,0,1],"scale":[1,1,1],"translation":[0.229395389556885,0.65550172328949,0.270271301269531]}],"samplers":[{}],"scene":0,"scenes":[{"name":"Root Scene","nodes":[0]}],"textures":[{"name":"base_color_texture","sampler":0,"source":0}]}