{"accessors":[{"bufferView":0,"byteOffset":0,"componentType":5123,"count":1026,"type":"SCALAR"},{"bufferView":1,"byteOffset":0,"componentType":5126,"count":650,"max":[0.172203168272972,2.62649893760681,0.384759664535522],"min":[-0.17220316827297,2.41191053390503,0.199999988079071],"type":"VEC3"},{"bufferView":2,"byteOffset":0,"componentType":5126,"count":650,"type":"VEC3"},{"bufferView":3,"byteOffset":0,"componentType":5126,"count":650,"type":"VEC2"},{"bufferView":4,"byteOffset":0,"componentType":5123,"count":120,"type":"SCALAR"},{"bufferView":5,"byteOffset":0,"componentType":5126,"count":78,"max":[0.110643148422241,2.55205178260803,0.325073003768921],"min":[-0.01147925853729,2.45801329612732,0.21648682653904],"type":"VEC3"},{"bufferView":6,"byteOffset":0,"componentType":5126,"count":78,"type":"VEC3"},{"bufferView":7,"byteOffset":0,"componentType":5126,"count":78,"type":"VEC2"}],"asset":{"generator":"FBX2glTF v0.13.1","version":"2.0"},"bufferViews":[{"buffer":0,"byteLength":2052,"byteOffset":0,"target":34963},{"buffer":0,"byteLength":7800,"byteOffset":2052,"target":34962},{"buffer":0,"byteLength":7800,"byteOffset":9852,"target":34962},{"buffer":0,"byteLength":5200,"byteOffset":17652,"target":34962},{"buffer":0,"byteLength":240,"byteOffset":22852,"target":34963},{"buffer":0,"byteLength":936,"byteOffset":23092,"target":34962},{"buffer":0,"byteLength":936,"byteOffset":24028,"target":34962},{"buffer":0,"byteLength":624,"byteOffset":24964,"target":34962}],"buffers":[{"byteLength":25588,"uri":"SM_Light_C.bin"}],"images":[{"name":"New Palitra","uri":"Polygon_Texture2.png"}],"materials":[{"alphaMode":"OPAQUE","doubleSided":false,"extras":{"fromFBX":{"isTruePBR":false,"shadingModel":"Phong"}},"name":"Main","pbrMetallicRoughness":{"baseColorFactor":[1,1,1,1],"baseColorTexture":{"index":0,"texCoord":0},"metallicFactor":0.400000005960464,"roughnessFactor":1}},{"alphaMode":"OPAQUE","doubleSided":false,"extras":{"fromFBX":{"isTruePBR":false,"shadingModel":"Phong"}},"name":"Light","pbrMetallicRoughness":{"baseColorFactor":[0.800000011920929,0.800000011920929,0.800000011920929,1],"metallicFactor":0.400000005960464,"roughnessFactor":0.272165536880493}}],"meshes":[{"name":"SM_Light_C","primitives":[{"attributes":{"NORMAL":2,"POSITION":1,"TEXCOORD_0":3},"indices":0,"material":0,"mode":4},{"attributes":{"NORMAL":6,"POSITION":5,"TEXCOORD_0":7},"indices":4,"material":1,"mode":4}]}],"nodes":[{"mesh":0,"name":"SM_Light_C","rotation":[0,0,0,1],"scale":[1,1,1],"translation":[0,0,0]}],"samplers":[{}],"scene":0,"scenes":[{"name":"Root Scene","nodes":[0]}],"textures":[{"name":"base_color_texture","sampler":0,"source":0}]}