{"accessors":[{"bufferView":0,"byteOffset":0,"componentType":5123,"count":186,"type":"SCALAR"},{"bufferView":1,"byteOffset":0,"componentType":5126,"count":122,"max":[0.0345281064510345,3,0.0398697108030319],"min":[-0.03452816233039,2.32828950881958,-0.03986968100071],"type":"VEC3"},{"bufferView":2,"byteOffset":0,"componentType":5126,"count":122,"type":"VEC3"},{"bufferView":3,"byteOffset":0,"componentType":5126,"count":122,"type":"VEC2"},{"bufferView":4,"byteOffset":0,"componentType":5123,"count":156,"type":"SCALAR"},{"bufferView":5,"byteOffset":0,"componentType":5126,"count":104,"max":[0.0470191463828087,2.32828950881958,0.0542930774390697],"min":[-0.04701925069094,2.17384433746338,-0.05429307743907],"type":"VEC3"},{"bufferView":6,"byteOffset":0,"componentType":5126,"count":104,"type":"VEC3"},{"bufferView":7,"byteOffset":0,"componentType":5126,"count":104,"type":"VEC2"}],"asset":{"generator":"FBX2glTF v0.13.1","version":"2.0"},"bufferViews":[{"buffer":0,"byteLength":372,"byteOffset":0,"target":34963},{"buffer":0,"byteLength":1464,"byteOffset":372,"target":34962},{"buffer":0,"byteLength":1464,"byteOffset":1836,"target":34962},{"buffer":0,"byteLength":976,"byteOffset":3300,"target":34962},{"buffer":0,"byteLength":312,"byteOffset":4276,"target":34963},{"buffer":0,"byteLength":1248,"byteOffset":4588,"target":34962},{"buffer":0,"byteLength":1248,"byteOffset":5836,"target":34962},{"buffer":0,"byteLength":832,"byteOffset":7084,"target":34962}],"buffers":[{"byteLength":7916,"uri":"SM_Light_A.bin"}],"images":[{"name":"New Palitra","uri":"New Palitra.jpg"}],"materials":[{"alphaMode":"OPAQUE","doubleSided":false,"extras":{"fromFBX":{"isTruePBR":false,"shadingModel":"Phong"}},"name":"Main","pbrMetallicRoughness":{"baseColorFactor":[1,1,1,1],"baseColorTexture":{"index":0,"texCoord":0},"metallicFactor":0.400000005960464,"roughnessFactor":1}},{"alphaMode":"OPAQUE","doubleSided":false,"extras":{"fromFBX":{"isTruePBR":false,"shadingModel":"Phong"}},"name":"Light","pbrMetallicRoughness":{"baseColorFactor":[0.800000011920929,0.800000011920929,0.800000011920929,1],"metallicFactor":0.400000005960464,"roughnessFactor":0.272165536880493}}],"meshes":[{"name":"SM_Light_A","primitives":[{"attributes":{"NORMAL":2,"POSITION":1,"TEXCOORD_0":3},"indices":0,"material":0,"mode":4},{"attributes":{"NORMAL":6,"POSITION":5,"TEXCOORD_0":7},"indices":4,"material":1,"mode":4}]}],"nodes":[{"mesh":0,"name":"SM_Light_A","rotation":[0,0,0,1],"scale":[1,1,1],"translation":[0,0,0]}],"samplers":[{}],"scene":0,"scenes":[{"name":"Root Scene","nodes":[0]}],"textures":[{"name":"base_color_texture","sampler":0,"source":0}]}