{"accessors":[{"bufferView":0,"byteOffset":0,"componentType":5123,"count":816,"type":"SCALAR"},{"bufferView":1,"byteOffset":0,"componentType":5126,"count":462,"max":[0.75,2.69312977790833,0.100000008940697],"min":[-0.75,2.56580376625061,-0.09999999403954],"type":"VEC3"},{"bufferView":2,"byteOffset":0,"componentType":5126,"count":462,"type":"VEC3"},{"bufferView":3,"byteOffset":0,"componentType":5126,"count":462,"type":"VEC2"},{"bufferView":4,"byteOffset":0,"componentType":5123,"count":120,"type":"SCALAR"},{"bufferView":5,"byteOffset":0,"componentType":5126,"count":80,"max":[0.687587201595306,3,0.0128200193867087],"min":[-0.68758720159531,2.69312977790833,-0.01282001659274],"type":"VEC3"},{"bufferView":6,"byteOffset":0,"componentType":5126,"count":80,"type":"VEC3"},{"bufferView":7,"byteOffset":0,"componentType":5126,"count":80,"type":"VEC2"},{"bufferView":8,"byteOffset":0,"componentType":5123,"count":72,"type":"SCALAR"},{"bufferView":9,"byteOffset":0,"componentType":5126,"count":48,"max":[0.69389683008194,2.61983871459961,0.0480126552283764],"min":[-0.69389683008194,2.59416198730469,-0.0480126477778],"type":"VEC3"},{"bufferView":10,"byteOffset":0,"componentType":5126,"count":48,"type":"VEC3"},{"bufferView":11,"byteOffset":0,"componentType":5126,"count":48,"type":"VEC2"}],"asset":{"generator":"FBX2glTF v0.13.1","version":"2.0"},"bufferViews":[{"buffer":0,"byteLength":1632,"byteOffset":0,"target":34963},{"buffer":0,"byteLength":5544,"byteOffset":1632,"target":34962},{"buffer":0,"byteLength":5544,"byteOffset":7176,"target":34962},{"buffer":0,"byteLength":3696,"byteOffset":12720,"target":34962},{"buffer":0,"byteLength":240,"byteOffset":16416,"target":34963},{"buffer":0,"byteLength":960,"byteOffset":16656,"target":34962},{"buffer":0,"byteLength":960,"byteOffset":17616,"target":34962},{"buffer":0,"byteLength":640,"byteOffset":18576,"target":34962},{"buffer":0,"byteLength":144,"byteOffset":19216,"target":34963},{"buffer":0,"byteLength":576,"byteOffset":19360,"target":34962},{"buffer":0,"byteLength":576,"byteOffset":19936,"target":34962},{"buffer":0,"byteLength":384,"byteOffset":20512,"target":34962}],"buffers":[{"byteLength":20896,"uri":"SM_Light_B.bin"}],"images":[{"name":"New Palitra","uri":"Polygon_Texture2.png"}],"materials":[{"alphaMode":"OPAQUE","doubleSided":false,"extras":{"fromFBX":{"isTruePBR":false,"shadingModel":"Phong"}},"name":"Main","pbrMetallicRoughness":{"baseColorFactor":[1,1,1,1],"baseColorTexture":{"index":0,"texCoord":0},"metallicFactor":0.400000005960464,"roughnessFactor":1}},{"alphaMode":"OPAQUE","doubleSided":false,"extras":{"fromFBX":{"isTruePBR":false,"shadingModel":"Phong"}},"name":"Light","pbrMetallicRoughness":{"baseColorFactor":[0.800000011920929,0.800000011920929,0.800000011920929,1],"metallicFactor":0.400000005960464,"roughnessFactor":0.272165536880493}}],"meshes":[{"name":"SM_Light_B","primitives":[{"attributes":{"NORMAL":2,"POSITION":1,"TEXCOORD_0":3},"indices":0,"material":0,"mode":4},{"attributes":{"NORMAL":10,"POSITION":9,"TEXCOORD_0":11},"indices":8,"material":1,"mode":4}]},{"name":"SM_Light_Fastening","primitives":[{"attributes":{"NORMAL":6,"POSITION":5,"TEXCOORD_0":7},"indices":4,"material":0,"mode":4}]}],"nodes":[{"children":[1],"mesh":0,"name":"SM_Light_B","rotation":[0,0,0,1],"scale":[1,1,1],"translation":[0,0,0]},{"mesh":1,"name":"SM_Light_Fastening","rotation":[0,0,0,1],"scale":[1,1,1],"translation":[0,0,0]}],"samplers":[{}],"scene":0,"scenes":[{"name":"Root Scene","nodes":[0]}],"textures":[{"name":"base_color_texture","sampler":0,"source":0}]}