{"accessors":[{"bufferView":0,"byteOffset":0,"componentType":5123,"count":420,"type":"SCALAR"},{"bufferView":1,"byteOffset":0,"componentType":5126,"count":272,"max":[0.34779566526413,0.392428874969482,0.248615369200706],"min":[-0.34779566526413,0,-0.24983771145344],"type":"VEC3"},{"bufferView":2,"byteOffset":0,"componentType":5126,"count":272,"type":"VEC3"},{"bufferView":3,"byteOffset":0,"componentType":5126,"count":272,"type":"VEC2"},{"bufferView":4,"byteOffset":0,"componentType":5123,"count":342,"type":"SCALAR"},{"bufferView":5,"byteOffset":0,"componentType":5126,"count":212,"max":[0.53340083360672,0.196214437484741,0.077268011868],"min":[0,-0.19621443748474,-0.00466907024384],"type":"VEC3"},{"bufferView":6,"byteOffset":0,"componentType":5126,"count":212,"type":"VEC3"},{"bufferView":7,"byteOffset":0,"componentType":5126,"count":212,"type":"VEC2"},{"bufferView":8,"byteOffset":0,"componentType":5123,"count":267,"type":"SCALAR"},{"bufferView":9,"byteOffset":0,"componentType":5126,"count":140,"max":[0.419155120849609,0.100880891084671,0.00790554285049438],"min":[0.0821312814950943,-0.11157737672329,0],"type":"VEC3"},{"bufferView":10,"byteOffset":0,"componentType":5126,"count":140,"type":"VEC3"},{"bufferView":11,"byteOffset":0,"componentType":5126,"count":140,"type":"VEC2"}],"asset":{"generator":"FBX2glTF v0.13.1","version":"2.0"},"bufferViews":[{"buffer":0,"byteLength":840,"byteOffset":0,"target":34963},{"buffer":0,"byteLength":3264,"byteOffset":840,"target":34962},{"buffer":0,"byteLength":3264,"byteOffset":4104,"target":34962},{"buffer":0,"byteLength":2176,"byteOffset":7368,"target":34962},{"buffer":0,"byteLength":684,"byteOffset":9544,"target":34963},{"buffer":0,"byteLength":2544,"byteOffset":10228,"target":34962},{"buffer":0,"byteLength":2544,"byteOffset":12772,"target":34962},{"buffer":0,"byteLength":1696,"byteOffset":15316,"target":34962},{"buffer":0,"byteLength":534,"byteOffset":17012,"target":34963},{"buffer":0,"byteLength":1680,"byteOffset":17548,"target":34962},{"buffer":0,"byteLength":1680,"byteOffset":19228,"target":34962},{"buffer":0,"byteLength":1120,"byteOffset":20908,"target":34962}],"buffers":[{"byteLength":22028,"uri":"SM_Microwave.bin"}],"images":[{"name":"New Palitra","uri":"../../Textures/Polygon_Texture2.png"}],"materials":[{"alphaMode":"OPAQUE","doubleSided":false,"extras":{"fromFBX":{"isTruePBR":false,"shadingModel":"Phong"}},"name":"Main","pbrMetallicRoughness":{"baseColorFactor":[1,1,1,1],"baseColorTexture":{"index":0,"texCoord":0},"metallicFactor":0.400000005960464,"roughnessFactor":1}},{"alphaMode":"OPAQUE","doubleSided":false,"extras":{"fromFBX":{"isTruePBR":false,"shadingModel":"Phong"}},"name":"Main_Glass","pbrMetallicRoughness":{"baseColorFactor":[1,1,1,1],"baseColorTexture":{"index":0,"texCoord":0},"metallicFactor":0.400000005960464,"roughnessFactor":1}}],"meshes":[{"name":"SM_Microwave","primitives":[{"attributes":{"NORMAL":2,"POSITION":1,"TEXCOORD_0":3},"indices":0,"material":0,"mode":4}]},{"name":"SM_Microwave_Door","primitives":[{"attributes":{"NORMAL":6,"POSITION":5,"TEXCOORD_0":7},"indices":4,"material":0,"mode":4},{"attributes":{"NORMAL":10,"POSITION":9,"TEXCOORD_0":11},"indices":8,"material":1,"mode":4}]}],"nodes":[{"children":[1],"mesh":0,"name":"SM_Microwave","rotation":[0,0,0,1],"scale":[1,1,1],"translation":[0,0,0]},{"mesh":1,"name":"SM_Microwave_Door","rotation":[0,0,0,1],"scale":[1,1,1],"translation":[-0.34779548645019,0.196214437484741,0.194679260253906]}],"samplers":[{}],"scene":0,"scenes":[{"name":"Root Scene","nodes":[0]}],"textures":[{"name":"base_color_texture","sampler":0,"source":0}]}