{"accessors":[{"bufferView":0,"byteOffset":0,"componentType":5123,"count":63,"type":"SCALAR"},{"bufferView":1,"byteOffset":0,"componentType":5126,"count":43,"max":[0.14240550994873,0.098024956882,0.0343472175300121],"min":[-0.14240550994873,-0.09802484512329,0.00367441982962191],"type":"VEC3"},{"bufferView":2,"byteOffset":0,"componentType":5126,"count":43,"type":"VEC3"},{"bufferView":3,"byteOffset":0,"componentType":5126,"count":43,"type":"VEC2"}],"asset":{"generator":"FBX2glTF v0.13.1","version":"2.0"},"bufferViews":[{"buffer":0,"byteLength":126,"byteOffset":0,"target":34963},{"buffer":0,"byteLength":516,"byteOffset":128,"target":34962},{"buffer":0,"byteLength":516,"byteOffset":644,"target":34962},{"buffer":0,"byteLength":344,"byteOffset":1160,"target":34962}],"buffers":[{"byteLength":1504,"uri":"SM_Note_C.bin"}],"images":[{"name":"New Palitra","uri":"New Palitra.jpg"}],"materials":[{"alphaMode":"OPAQUE","doubleSided":false,"extras":{"fromFBX":{"isTruePBR":false,"shadingModel":"Phong"}},"name":"Main","pbrMetallicRoughness":{"baseColorFactor":[1,1,1,1],"baseColorTexture":{"index":0,"texCoord":0},"metallicFactor":0.400000005960464,"roughnessFactor":1}}],"meshes":[{"name":"SM_Note_C","primitives":[{"attributes":{"NORMAL":2,"POSITION":1,"TEXCOORD_0":3},"indices":0,"material":0,"mode":4}]}],"nodes":[{"mesh":0,"name":"SM_Note_C","rotation":[0,0,0,1],"scale":[1,1,1],"translation":[0,0,0]}],"samplers":[{}],"scene":0,"scenes":[{"name":"Root Scene","nodes":[0]}],"textures":[{"name":"base_color_texture","sampler":0,"source":0}]}