{"accessors":[{"bufferView":0,"byteOffset":0,"componentType":5123,"count":48,"type":"SCALAR"},{"bufferView":1,"byteOffset":0,"componentType":5126,"count":28,"max":[0.093202643096447,0.098024956882,0.0246793925762177],"min":[-0.09320264309645,-0.1620090007782,0.00367442239075899],"type":"VEC3"},{"bufferView":2,"byteOffset":0,"componentType":5126,"count":28,"type":"VEC3"},{"bufferView":3,"byteOffset":0,"componentType":5126,"count":28,"type":"VEC2"}],"asset":{"generator":"FBX2glTF v0.13.1","version":"2.0"},"bufferViews":[{"buffer":0,"byteLength":96,"byteOffset":0,"target":34963},{"buffer":0,"byteLength":336,"byteOffset":96,"target":34962},{"buffer":0,"byteLength":336,"byteOffset":432,"target":34962},{"buffer":0,"byteLength":224,"byteOffset":768,"target":34962}],"buffers":[{"byteLength":992,"uri":"SM_Note_A.bin"}],"images":[{"name":"New Palitra","uri":"../../Textures/Polygon_Texture2.png"}],"materials":[{"alphaMode":"OPAQUE","doubleSided":false,"extras":{"fromFBX":{"isTruePBR":false,"shadingModel":"Phong"}},"name":"Main","pbrMetallicRoughness":{"baseColorFactor":[1,1,1,1],"baseColorTexture":{"index":0,"texCoord":0},"metallicFactor":0.400000005960464,"roughnessFactor":1}}],"meshes":[{"name":"SM_Note_A","primitives":[{"attributes":{"NORMAL":2,"POSITION":1,"TEXCOORD_0":3},"indices":0,"material":0,"mode":4}]}],"nodes":[{"mesh":0,"name":"SM_Note_A","rotation":[0,0,0,1],"scale":[1,1,1],"translation":[0,0,0]}],"samplers":[{}],"scene":0,"scenes":[{"name":"Root Scene","nodes":[0]}],"textures":[{"name":"base_color_texture","sampler":0,"source":0}]}