{"accessors":[{"bufferView":0,"byteOffset":0,"componentType":5123,"count":1218,"type":"SCALAR"},{"bufferView":1,"byteOffset":0,"componentType":5126,"count":756,"max":[1.5154470205307,1.99999940395355,0.466825932264328],"min":[-1.50509119033813,0,-0.53483951091766],"type":"VEC3"},{"bufferView":2,"byteOffset":0,"componentType":5126,"count":756,"type":"VEC3"},{"bufferView":3,"byteOffset":0,"componentType":5126,"count":756,"type":"VEC2"}],"asset":{"generator":"FBX2glTF v0.13.1","version":"2.0"},"bufferViews":[{"buffer":0,"byteLength":2436,"byteOffset":0,"target":34963},{"buffer":0,"byteLength":9072,"byteOffset":2436,"target":34962},{"buffer":0,"byteLength":9072,"byteOffset":11508,"target":34962},{"buffer":0,"byteLength":6048,"byteOffset":20580,"target":34962}],"buffers":[{"byteLength":26628,"uri":"SM_Rack_A.bin"}],"images":[{"name":"New Palitra","uri":"New Palitra.jpg"}],"materials":[{"alphaMode":"OPAQUE","doubleSided":false,"extras":{"fromFBX":{"isTruePBR":false,"shadingModel":"Phong"}},"name":"Main","pbrMetallicRoughness":{"baseColorFactor":[1,1,1,1],"baseColorTexture":{"index":0,"texCoord":0},"metallicFactor":0.400000005960464,"roughnessFactor":1}}],"meshes":[{"name":"SM_Rack_A","primitives":[{"attributes":{"NORMAL":2,"POSITION":1,"TEXCOORD_0":3},"indices":0,"material":0,"mode":4}]}],"nodes":[{"mesh":0,"name":"SM_Rack_A","rotation":[0,0,0,1],"scale":[1,1,1],"translation":[0,0,0]}],"samplers":[{}],"scene":0,"scenes":[{"name":"Root Scene","nodes":[0]}],"textures":[{"name":"base_color_texture","sampler":0,"source":0}]}