{"accessors":[{"bufferView":0,"byteOffset":0,"componentType":5123,"count":1086,"type":"SCALAR"},{"bufferView":1,"byteOffset":0,"componentType":5126,"count":691,"max":[0.211893707513809,0.279730260372162,0.0688334852457047],"min":[-0.19249793887138,-0.00000000093132,-0.06044745445251],"type":"VEC3"},{"bufferView":2,"byteOffset":0,"componentType":5126,"count":691,"type":"VEC3"},{"bufferView":3,"byteOffset":0,"componentType":5126,"count":691,"type":"VEC2"},{"bufferView":4,"byteOffset":0,"componentType":5123,"count":132,"type":"SCALAR"},{"bufferView":5,"byteOffset":0,"componentType":5126,"count":80,"max":[0.168160736560822,0.0918679013848305,0.00801492761820555],"min":[-0.16816073656082,-0.00627386197448,-0.00801492948085],"type":"VEC3"},{"bufferView":6,"byteOffset":0,"componentType":5126,"count":80,"type":"VEC3"},{"bufferView":7,"byteOffset":0,"componentType":5126,"count":80,"type":"VEC2"},{"bufferView":8,"byteOffset":0,"componentType":5123,"count":180,"type":"SCALAR"},{"bufferView":9,"byteOffset":0,"componentType":5126,"count":116,"max":[0.00737452507019043,0.352854162454605,0.000000000931322574615479],"min":[-0.00737452507019,-0.01344284415245,-0.01913031935692],"type":"VEC3"},{"bufferView":10,"byteOffset":0,"componentType":5126,"count":116,"type":"VEC3"},{"bufferView":11,"byteOffset":0,"componentType":5126,"count":116,"type":"VEC2"}],"asset":{"generator":"FBX2glTF v0.13.1","version":"2.0"},"bufferViews":[{"buffer":0,"byteLength":2172,"byteOffset":0,"target":34963},{"buffer":0,"byteLength":8292,"byteOffset":2172,"target":34962},{"buffer":0,"byteLength":8292,"byteOffset":10464,"target":34962},{"buffer":0,"byteLength":5528,"byteOffset":18756,"target":34962},{"buffer":0,"byteLength":264,"byteOffset":24284,"target":34963},{"buffer":0,"byteLength":960,"byteOffset":24548,"target":34962},{"buffer":0,"byteLength":960,"byteOffset":25508,"target":34962},{"buffer":0,"byteLength":640,"byteOffset":26468,"target":34962},{"buffer":0,"byteLength":360,"byteOffset":27108,"target":34963},{"buffer":0,"byteLength":1392,"byteOffset":27468,"target":34962},{"buffer":0,"byteLength":1392,"byteOffset":28860,"target":34962},{"buffer":0,"byteLength":928,"byteOffset":30252,"target":34962}],"buffers":[{"byteLength":31180,"uri":"SM_Radio.bin"}],"images":[{"name":"New Palitra","uri":"../../Textures/Polygon_Texture2.png"}],"materials":[{"alphaMode":"OPAQUE","doubleSided":false,"extras":{"fromFBX":{"isTruePBR":false,"shadingModel":"Phong"}},"name":"Main","pbrMetallicRoughness":{"baseColorFactor":[1,1,1,1],"baseColorTexture":{"index":0,"texCoord":0},"metallicFactor":0.400000005960464,"roughnessFactor":1}}],"meshes":[{"name":"SM_Radio","primitives":[{"attributes":{"NORMAL":2,"POSITION":1,"TEXCOORD_0":3},"indices":0,"material":0,"mode":4}]},{"name":"SM_Radio_Handle","primitives":[{"attributes":{"NORMAL":6,"POSITION":5,"TEXCOORD_0":7},"indices":4,"material":0,"mode":4}]},{"name":"SM_Radio_Antenna","primitives":[{"attributes":{"NORMAL":10,"POSITION":9,"TEXCOORD_0":11},"indices":8,"material":0,"mode":4}]}],"nodes":[{"children":[1,2],"mesh":0,"name":"SM_Radio","rotation":[0,0,0,1],"scale":[1,1,1],"translation":[0,0,0]},{"mesh":1,"name":"SM_Radio_Handle","rotation":[0,0,0,1],"scale":[1,1,1],"translation":[0,0.270549803972244,0]},{"mesh":2,"name":"SM_Radio_Antenna","rotation":[0,0,0,1],"scale":[1,1,1],"translation":[0.137576580047607,0.196722596883774,-0.06044769287109]}],"samplers":[{}],"scene":0,"scenes":[{"name":"Root Scene","nodes":[0]}],"textures":[{"name":"base_color_texture","sampler":0,"source":0}]}