{"accessors":[{"bufferView":0,"byteOffset":0,"componentType":5123,"count":4074,"type":"SCALAR"},{"bufferView":1,"byteOffset":0,"componentType":5126,"count":2419,"max":[1.40438079833984,1.29881191253662,0.587794542312622],"min":[-1.38411521911621,0,-0.81681311130524],"type":"VEC3"},{"bufferView":2,"byteOffset":0,"componentType":5126,"count":2419,"type":"VEC3"},{"bufferView":3,"byteOffset":0,"componentType":5126,"count":2419,"type":"VEC2"}],"asset":{"generator":"FBX2glTF v0.13.1","version":"2.0"},"bufferViews":[{"buffer":0,"byteLength":8148,"byteOffset":0,"target":34963},{"buffer":0,"byteLength":29028,"byteOffset":8148,"target":34962},{"buffer":0,"byteLength":29028,"byteOffset":37176,"target":34962},{"buffer":0,"byteLength":19352,"byteOffset":66204,"target":34962}],"buffers":[{"byteLength":85556,"uri":"SM_Sofa_A.bin"}],"images":[{"name":"New Palitra","uri":"../../Textures/Polygon_Texture2.png"}],"materials":[{"alphaMode":"OPAQUE","doubleSided":false,"extras":{"fromFBX":{"isTruePBR":false,"shadingModel":"Phong"}},"name":"Main","pbrMetallicRoughness":{"baseColorFactor":[1,1,1,1],"baseColorTexture":{"index":0,"texCoord":0},"metallicFactor":0.400000005960464,"roughnessFactor":1}}],"meshes":[{"name":"SM_Sofa","primitives":[{"attributes":{"NORMAL":2,"POSITION":1,"TEXCOORD_0":3},"indices":0,"material":0,"mode":4}]}],"nodes":[{"mesh":0,"name":"SM_Sofa","rotation":[0,0,0,1],"scale":[1,1,1],"translation":[0,0,0]}],"samplers":[{}],"scene":0,"scenes":[{"name":"Root Scene","nodes":[0]}],"textures":[{"name":"base_color_texture","sampler":0,"source":0}]}