{"accessors":[{"bufferView":0,"byteOffset":0,"componentType":5123,"count":582,"type":"SCALAR"},{"bufferView":1,"byteOffset":0,"componentType":5126,"count":358,"max":[0.693771600723267,2.11305403709412,0.450743347406387],"min":[0.156476125121117,1.19652700424194,0.199999988079071],"type":"VEC3"},{"bufferView":2,"byteOffset":0,"componentType":5126,"count":358,"type":"VEC3"},{"bufferView":3,"byteOffset":0,"componentType":5126,"count":358,"type":"VEC2"},{"bufferView":4,"byteOffset":0,"componentType":5123,"count":264,"type":"SCALAR"},{"bufferView":5,"byteOffset":0,"componentType":5126,"count":172,"max":[0.268522948026657,0.371392965316772,0.0825435817241669],"min":[-0.00083383917809,-0.37139287590981,-0.00000001490116],"type":"VEC3"},{"bufferView":6,"byteOffset":0,"componentType":5126,"count":172,"type":"VEC3"},{"bufferView":7,"byteOffset":0,"componentType":5126,"count":172,"type":"VEC2"},{"bufferView":8,"byteOffset":0,"componentType":5123,"count":318,"type":"SCALAR"},{"bufferView":9,"byteOffset":0,"componentType":5126,"count":214,"max":[0.00937229115515947,0.532849013805389,0.0953783765435219],"min":[-0.27986979484558,-0.21888399124145,-0.00763854617253],"type":"VEC3"},{"bufferView":10,"byteOffset":0,"componentType":5126,"count":214,"type":"VEC3"},{"bufferView":11,"byteOffset":0,"componentType":5126,"count":214,"type":"VEC2"}],"asset":{"generator":"FBX2glTF v0.13.1","version":"2.0"},"bufferViews":[{"buffer":0,"byteLength":1164,"byteOffset":0,"target":34963},{"buffer":0,"byteLength":4296,"byteOffset":1164,"target":34962},{"buffer":0,"byteLength":4296,"byteOffset":5460,"target":34962},{"buffer":0,"byteLength":2864,"byteOffset":9756,"target":34962},{"buffer":0,"byteLength":528,"byteOffset":12620,"target":34963},{"buffer":0,"byteLength":2064,"byteOffset":13148,"target":34962},{"buffer":0,"byteLength":2064,"byteOffset":15212,"target":34962},{"buffer":0,"byteLength":1376,"byteOffset":17276,"target":34962},{"buffer":0,"byteLength":636,"byteOffset":18652,"target":34963},{"buffer":0,"byteLength":2568,"byteOffset":19288,"target":34962},{"buffer":0,"byteLength":2568,"byteOffset":21856,"target":34962},{"buffer":0,"byteLength":1712,"byteOffset":24424,"target":34962}],"buffers":[{"byteLength":26136,"uri":"SM_Shelf_02.bin"}],"images":[{"name":"New Palitra","uri":"../../Textures/Polygon_Texture2.png"}],"materials":[{"alphaMode":"OPAQUE","doubleSided":false,"extras":{"fromFBX":{"isTruePBR":false,"shadingModel":"Phong"}},"name":"Main","pbrMetallicRoughness":{"baseColorFactor":[1,1,1,1],"baseColorTexture":{"index":0,"texCoord":0},"metallicFactor":0.400000005960464,"roughnessFactor":1}}],"meshes":[{"name":"SM_Shelf_02","primitives":[{"attributes":{"NORMAL":2,"POSITION":1,"TEXCOORD_0":3},"indices":0,"material":0,"mode":4}]},{"name":"SM_Shelf_Door_L","primitives":[{"attributes":{"NORMAL":6,"POSITION":5,"TEXCOORD_0":7},"indices":4,"material":0,"mode":4}]},{"name":"SM_Shelf_Door_R","primitives":[{"attributes":{"NORMAL":10,"POSITION":9,"TEXCOORD_0":11},"indices":8,"material":0,"mode":4}]}],"nodes":[{"children":[1,2],"mesh":0,"name":"SM_Shelf_02","rotation":[0,0,0,1],"scale":[1,1,1],"translation":[0,0,0]},{"mesh":1,"name":"SM_Shelf_Door_L","rotation":[0,0,0,1],"scale":[1,1,1],"translation":[0.156476020812988,1.74166131019592,0.450742721557617]},{"mesh":2,"name":"SM_Shelf_Door_R","rotation":[0,0,0,1],"scale":[1,1,1],"translation":[0.693771362304688,1.57963013648987,0.450742721557617]}],"samplers":[{}],"scene":0,"scenes":[{"name":"Root Scene","nodes":[0]}],"textures":[{"name":"base_color_texture","sampler":0,"source":0}]}