{"accessors":[{"bufferView":0,"byteOffset":0,"componentType":5123,"count":2514,"type":"SCALAR"},{"bufferView":1,"byteOffset":0,"componentType":5126,"count":1555,"max":[0.867944478988647,1.25638473033905,0.677484333515167],"min":[-0.8538361787796,0,-0.59104686975479],"type":"VEC3"},{"bufferView":2,"byteOffset":0,"componentType":5126,"count":1555,"type":"VEC3"},{"bufferView":3,"byteOffset":0,"componentType":5126,"count":1555,"type":"VEC2"}],"asset":{"generator":"FBX2glTF v0.13.1","version":"2.0"},"bufferViews":[{"buffer":0,"byteLength":5028,"byteOffset":0,"target":34963},{"buffer":0,"byteLength":18660,"byteOffset":5028,"target":34962},{"buffer":0,"byteLength":18660,"byteOffset":23688,"target":34962},{"buffer":0,"byteLength":12440,"byteOffset":42348,"target":34962}],"buffers":[{"byteLength":54788,"uri":"SM_Sofa_B.bin"}],"images":[{"name":"New Palitra","uri":"New Palitra.jpg"}],"materials":[{"alphaMode":"OPAQUE","doubleSided":false,"extras":{"fromFBX":{"isTruePBR":false,"shadingModel":"Phong"}},"name":"Main","pbrMetallicRoughness":{"baseColorFactor":[1,1,1,1],"baseColorTexture":{"index":0,"texCoord":0},"metallicFactor":0.400000005960464,"roughnessFactor":1}}],"meshes":[{"name":"SM_Sofa_B","primitives":[{"attributes":{"NORMAL":2,"POSITION":1,"TEXCOORD_0":3},"indices":0,"material":0,"mode":4}]}],"nodes":[{"mesh":0,"name":"SM_Sofa_B","rotation":[0,0,0,1],"scale":[1,1,1],"translation":[0,0,0]}],"samplers":[{}],"scene":0,"scenes":[{"name":"Root Scene","nodes":[0]}],"textures":[{"name":"base_color_texture","sampler":0,"source":0}]}