{"accessors":[{"bufferView":0,"byteOffset":0,"componentType":5123,"count":747,"type":"SCALAR"},{"bufferView":1,"byteOffset":0,"componentType":5126,"count":439,"max":[1.99999976158142,1.78698301315308,0.501511871814728],"min":[0,1.56761634349823,0.199999988079071],"type":"VEC3"},{"bufferView":2,"byteOffset":0,"componentType":5126,"count":439,"type":"VEC3"},{"bufferView":3,"byteOffset":0,"componentType":5126,"count":439,"type":"VEC2"}],"asset":{"generator":"FBX2glTF v0.13.1","version":"2.0"},"bufferViews":[{"buffer":0,"byteLength":1494,"byteOffset":0,"target":34963},{"buffer":0,"byteLength":5268,"byteOffset":1496,"target":34962},{"buffer":0,"byteLength":5268,"byteOffset":6764,"target":34962},{"buffer":0,"byteLength":3512,"byteOffset":12032,"target":34962}],"buffers":[{"byteLength":15544,"uri":"SM_Shelf_01.bin"}],"images":[{"name":"New Palitra","uri":"New Palitra.jpg"}],"materials":[{"alphaMode":"OPAQUE","doubleSided":false,"extras":{"fromFBX":{"isTruePBR":false,"shadingModel":"Phong"}},"name":"Main","pbrMetallicRoughness":{"baseColorFactor":[1,1,1,1],"baseColorTexture":{"index":0,"texCoord":0},"metallicFactor":0.400000005960464,"roughnessFactor":1}}],"meshes":[{"name":"SM_Shelf_01","primitives":[{"attributes":{"NORMAL":2,"POSITION":1,"TEXCOORD_0":3},"indices":0,"material":0,"mode":4}]}],"nodes":[{"mesh":0,"name":"SM_Shelf_01","rotation":[0,0,0,1],"scale":[1,1,1],"translation":[0,0,0]}],"samplers":[{}],"scene":0,"scenes":[{"name":"Root Scene","nodes":[0]}],"textures":[{"name":"base_color_texture","sampler":0,"source":0}]}