{"accessors":[{"bufferView":0,"byteOffset":0,"componentType":5123,"count":168,"type":"SCALAR"},{"bufferView":1,"byteOffset":0,"componentType":5126,"count":114,"max":[0.111926756799221,0.289142191410065,0.128140583634377],"min":[-0.11160925030708,-0.00014018360525,-0.13119766116142],"type":"VEC3"},{"bufferView":2,"byteOffset":0,"componentType":5126,"count":114,"type":"VEC3"},{"bufferView":3,"byteOffset":0,"componentType":5126,"count":114,"type":"VEC2"},{"bufferView":4,"byteOffset":0,"componentType":5123,"count":1458,"type":"SCALAR"},{"bufferView":5,"byteOffset":0,"componentType":5126,"count":954,"max":[0.233389422297478,0.325745284557343,0.239444300532341],"min":[-0.23338954150677,-0.18490779399872,-0.14494059979916],"type":"VEC3"},{"bufferView":6,"byteOffset":0,"componentType":5126,"count":954,"type":"VEC3"},{"bufferView":7,"byteOffset":0,"componentType":5126,"count":954,"type":"VEC2"},{"bufferView":8,"byteOffset":0,"componentType":5123,"count":1188,"type":"SCALAR"},{"bufferView":9,"byteOffset":0,"componentType":5126,"count":792,"max":[0.162835210561752,0.162835255265236,0.0221738908439875],"min":[-0.16283521056175,-0.16283515095711,-0.02547077275813],"type":"VEC3"},{"bufferView":10,"byteOffset":0,"componentType":5126,"count":792,"type":"VEC3"},{"bufferView":11,"byteOffset":0,"componentType":5126,"count":792,"type":"VEC2"}],"asset":{"generator":"FBX2glTF v0.13.1","version":"2.0"},"bufferViews":[{"buffer":0,"byteLength":336,"byteOffset":0,"target":34963},{"buffer":0,"byteLength":1368,"byteOffset":336,"target":34962},{"buffer":0,"byteLength":1368,"byteOffset":1704,"target":34962},{"buffer":0,"byteLength":912,"byteOffset":3072,"target":34962},{"buffer":0,"byteLength":2916,"byteOffset":3984,"target":34963},{"buffer":0,"byteLength":11448,"byteOffset":6900,"target":34962},{"buffer":0,"byteLength":11448,"byteOffset":18348,"target":34962},{"buffer":0,"byteLength":7632,"byteOffset":29796,"target":34962},{"buffer":0,"byteLength":2376,"byteOffset":37428,"target":34963},{"buffer":0,"byteLength":9504,"byteOffset":39804,"target":34962},{"buffer":0,"byteLength":9504,"byteOffset":49308,"target":34962},{"buffer":0,"byteLength":6336,"byteOffset":58812,"target":34962}],"buffers":[{"byteLength":65148,"uri":"SM_Table_Fan.bin"}],"images":[{"name":"New Palitra","uri":"../../Textures/Polygon_Texture2.png"}],"materials":[{"alphaMode":"OPAQUE","doubleSided":false,"extras":{"fromFBX":{"isTruePBR":false,"shadingModel":"Phong"}},"name":"Main","pbrMetallicRoughness":{"baseColorFactor":[1,1,1,1],"baseColorTexture":{"index":0,"texCoord":0},"metallicFactor":0.400000005960464,"roughnessFactor":1}}],"meshes":[{"name":"SM_Table_Fan","primitives":[{"attributes":{"NORMAL":2,"POSITION":1,"TEXCOORD_0":3},"indices":0,"material":0,"mode":4}]},{"name":"SM_Table_Fan_Head","primitives":[{"attributes":{"NORMAL":6,"POSITION":5,"TEXCOORD_0":7},"indices":4,"material":0,"mode":4}]},{"name":"SM_Table_Fan_Blade","primitives":[{"attributes":{"NORMAL":10,"POSITION":9,"TEXCOORD_0":11},"indices":8,"material":0,"mode":4}]}],"nodes":[{"children":[1,2],"mesh":0,"name":"SM_Table_Fan","rotation":[0,0,0,1],"scale":[1,1,1],"translation":[0,0,0]},{"mesh":1,"name":"SM_Table_Fan_Head","rotation":[0,0,0,1],"scale":[1,1,1],"translation":[0.00017166137695312,0.289142191410065,0.036865234375]},{"mesh":2,"name":"SM_Table_Fan_Blade","rotation":[0,0,0,1],"scale":[1,1,1],"translation":[0.00017166137695312,0.359560966491699,0.175619125366211]}],"samplers":[{}],"scene":0,"scenes":[{"name":"Root Scene","nodes":[0]}],"textures":[{"name":"base_color_texture","sampler":0,"source":0}]}