{"accessors":[{"bufferView":0,"byteOffset":0,"componentType":5123,"count":3156,"type":"SCALAR"},{"bufferView":1,"byteOffset":0,"componentType":5126,"count":2011,"max":[0.999999761581421,0.937502861022949,0.499999940395355],"min":[-1.00000023841858,-0.00000002980232,-0.5],"type":"VEC3"},{"bufferView":2,"byteOffset":0,"componentType":5126,"count":2011,"type":"VEC3"},{"bufferView":3,"byteOffset":0,"componentType":5126,"count":2011,"type":"VEC2"},{"bufferView":4,"byteOffset":0,"componentType":5123,"count":780,"type":"SCALAR"},{"bufferView":5,"byteOffset":0,"componentType":5126,"count":520,"max":[0.990104198455811,0.0399285890161991,0.508904218673706],"min":[-1.00989580154419,-0.02256837114692,-0.49109575152397],"type":"VEC3"},{"bufferView":6,"byteOffset":0,"componentType":5126,"count":520,"type":"VEC3"},{"bufferView":7,"byteOffset":0,"componentType":5126,"count":520,"type":"VEC2"}],"asset":{"generator":"FBX2glTF v0.13.1","version":"2.0"},"bufferViews":[{"buffer":0,"byteLength":6312,"byteOffset":0,"target":34963},{"buffer":0,"byteLength":24132,"byteOffset":6312,"target":34962},{"buffer":0,"byteLength":24132,"byteOffset":30444,"target":34962},{"buffer":0,"byteLength":16088,"byteOffset":54576,"target":34962},{"buffer":0,"byteLength":1560,"byteOffset":70664,"target":34963},{"buffer":0,"byteLength":6240,"byteOffset":72224,"target":34962},{"buffer":0,"byteLength":6240,"byteOffset":78464,"target":34962},{"buffer":0,"byteLength":4160,"byteOffset":84704,"target":34962}],"buffers":[{"byteLength":88864,"uri":"SM_Wooden_Box_B.bin"}],"images":[{"name":"New Palitra","uri":"../../Textures/Polygon_Texture2.png"}],"materials":[{"alphaMode":"OPAQUE","doubleSided":false,"extras":{"fromFBX":{"isTruePBR":false,"shadingModel":"Phong"}},"name":"Main","pbrMetallicRoughness":{"baseColorFactor":[1,1,1,1],"baseColorTexture":{"index":0,"texCoord":0},"metallicFactor":0.400000005960464,"roughnessFactor":1}}],"meshes":[{"name":"SM_Wooden_Box_B","primitives":[{"attributes":{"NORMAL":2,"POSITION":1,"TEXCOORD_0":3},"indices":0,"material":0,"mode":4}]},{"name":"SM_Wooden_Box_B_Lid","primitives":[{"attributes":{"NORMAL":6,"POSITION":5,"TEXCOORD_0":7},"indices":4,"material":0,"mode":4}]}],"nodes":[{"children":[1],"mesh":0,"name":"SM_Wooden_Box_B","rotation":[0,0,0,1],"scale":[1,1,1],"translation":[0,0,0]},{"mesh":1,"name":"SM_Wooden_Box_B_Lid","rotation":[0,0,0,1],"scale":[1,1,1],"translation":[0.00989532470703125,0.96007114648819,-0.00890445709229]}],"samplers":[{}],"scene":0,"scenes":[{"name":"Root Scene","nodes":[0]}],"textures":[{"name":"base_color_texture","sampler":0,"source":0}]}