{"accessors":[{"bufferView":0,"byteOffset":0,"componentType":5123,"count":840,"type":"SCALAR"},{"bufferView":1,"byteOffset":0,"componentType":5126,"count":544,"max":[0.470529079437256,0.475203841924667,0.282934486865997],"min":[-0.47617155313492,0,-0.282934486866],"type":"VEC3"},{"bufferView":2,"byteOffset":0,"componentType":5126,"count":544,"type":"VEC3"},{"bufferView":3,"byteOffset":0,"componentType":5126,"count":544,"type":"VEC2"}],"asset":{"generator":"FBX2glTF v0.13.1","version":"2.0"},"bufferViews":[{"buffer":0,"byteLength":1680,"byteOffset":0,"target":34963},{"buffer":0,"byteLength":6528,"byteOffset":1680,"target":34962},{"buffer":0,"byteLength":6528,"byteOffset":8208,"target":34962},{"buffer":0,"byteLength":4352,"byteOffset":14736,"target":34962}],"buffers":[{"byteLength":19088,"uri":"SM_Wooden_Box_C.bin"}],"images":[{"name":"New Palitra","uri":"Polygon_Texture2.png"}],"materials":[{"alphaMode":"OPAQUE","doubleSided":false,"extras":{"fromFBX":{"isTruePBR":false,"shadingModel":"Phong"}},"name":"Main","pbrMetallicRoughness":{"baseColorFactor":[1,1,1,1],"baseColorTexture":{"index":0,"texCoord":0},"metallicFactor":0.400000005960464,"roughnessFactor":1}}],"meshes":[{"name":"SM_Wooden_Box_C","primitives":[{"attributes":{"NORMAL":2,"POSITION":1,"TEXCOORD_0":3},"indices":0,"material":0,"mode":4}]}],"nodes":[{"mesh":0,"name":"SM_Wooden_Box_C","rotation":[0,0,0,1],"scale":[1,1,1],"translation":[0,0,0]}],"samplers":[{}],"scene":0,"scenes":[{"name":"Root Scene","nodes":[0]}],"textures":[{"name":"base_color_texture","sampler":0,"source":0}]}