{"accessors":[{"bufferView":0,"byteOffset":0,"componentType":5123,"count":3156,"type":"SCALAR"},{"bufferView":1,"byteOffset":0,"componentType":5126,"count":2037,"max":[0.5,0.937502861022949,0.499999940395355],"min":[-0.5,-0.00000002980232,-0.5],"type":"VEC3"},{"bufferView":2,"byteOffset":0,"componentType":5126,"count":2037,"type":"VEC3"},{"bufferView":3,"byteOffset":0,"componentType":5126,"count":2037,"type":"VEC2"},{"bufferView":4,"byteOffset":0,"componentType":5123,"count":780,"type":"SCALAR"},{"bufferView":5,"byteOffset":0,"componentType":5126,"count":520,"max":[0.5,0.0399294495582581,0.508904218673706],"min":[-0.5,-0.02256751060486,-0.49109575152397],"type":"VEC3"},{"bufferView":6,"byteOffset":0,"componentType":5126,"count":520,"type":"VEC3"},{"bufferView":7,"byteOffset":0,"componentType":5126,"count":520,"type":"VEC2"}],"asset":{"generator":"FBX2glTF v0.13.1","version":"2.0"},"bufferViews":[{"buffer":0,"byteLength":6312,"byteOffset":0,"target":34963},{"buffer":0,"byteLength":24444,"byteOffset":6312,"target":34962},{"buffer":0,"byteLength":24444,"byteOffset":30756,"target":34962},{"buffer":0,"byteLength":16296,"byteOffset":55200,"target":34962},{"buffer":0,"byteLength":1560,"byteOffset":71496,"target":34963},{"buffer":0,"byteLength":6240,"byteOffset":73056,"target":34962},{"buffer":0,"byteLength":6240,"byteOffset":79296,"target":34962},{"buffer":0,"byteLength":4160,"byteOffset":85536,"target":34962}],"buffers":[{"byteLength":89696,"uri":"SM_Wooden_Box_A.bin"}],"images":[{"name":"New Palitra","uri":"Polygon_Texture2.png"}],"materials":[{"alphaMode":"OPAQUE","doubleSided":false,"extras":{"fromFBX":{"isTruePBR":false,"shadingModel":"Phong"}},"name":"Main","pbrMetallicRoughness":{"baseColorFactor":[1,1,1,1],"baseColorTexture":{"index":0,"texCoord":0},"metallicFactor":0.400000005960464,"roughnessFactor":1}}],"meshes":[{"name":"SM_Wooden_Box_A","primitives":[{"attributes":{"NORMAL":2,"POSITION":1,"TEXCOORD_0":3},"indices":0,"material":0,"mode":4}]},{"name":"SM_Wooden_Box_A_Lid","primitives":[{"attributes":{"NORMAL":6,"POSITION":5,"TEXCOORD_0":7},"indices":4,"material":0,"mode":4}]}],"nodes":[{"children":[1],"mesh":0,"name":"SM_Wooden_Box_A","rotation":[0,0,0,1],"scale":[1,1,1],"translation":[0,0,0]},{"mesh":1,"name":"SM_Wooden_Box_A_Lid","rotation":[0,0,0,1],"scale":[1,1,1],"translation":[0,0.960070312023163,-0.00890350341797]}],"samplers":[{}],"scene":0,"scenes":[{"name":"Root Scene","nodes":[0]}],"textures":[{"name":"base_color_texture","sampler":0,"source":0}]}