{"accessors":[{"bufferView":0,"byteOffset":0,"componentType":5123,"count":3414,"type":"SCALAR"},{"bufferView":1,"byteOffset":0,"componentType":5126,"count":2053,"max":[1.53750944137573,2.00251317024231,1.61508536338806],"min":[-1.31666481494904,0,-0.70809239149094],"type":"VEC3"},{"bufferView":2,"byteOffset":0,"componentType":5126,"count":2053,"type":"VEC3"},{"bufferView":3,"byteOffset":0,"componentType":5126,"count":2053,"type":"VEC2"},{"bufferView":4,"byteOffset":0,"componentType":5123,"count":1782,"type":"SCALAR"},{"bufferView":5,"byteOffset":0,"componentType":5126,"count":1728,"max":[0.128856897354126,0.0337816476821899,1.09873199462891],"min":[-0.08723842352629,-1.82063460350037,-1.09873199462891],"type":"VEC3"},{"bufferView":6,"byteOffset":0,"componentType":5126,"count":1728,"type":"VEC3"},{"bufferView":7,"byteOffset":0,"componentType":5126,"count":1728,"type":"VEC2"},{"bufferView":8,"byteOffset":0,"componentType":5123,"count":162,"type":"SCALAR"},{"bufferView":9,"byteOffset":0,"componentType":5126,"count":102,"max":[0.212004125118256,0.0164498090744019,0.119387738406658],"min":[-0.2120041847229,-0.1473680138588,-0.0551745891571],"type":"VEC3"},{"bufferView":10,"byteOffset":0,"componentType":5126,"count":102,"type":"VEC3"},{"bufferView":11,"byteOffset":0,"componentType":5126,"count":102,"type":"VEC2"},{"bufferView":12,"byteOffset":0,"componentType":5123,"count":294,"type":"SCALAR"},{"bufferView":13,"byteOffset":0,"componentType":5126,"count":188,"max":[0.232748746871948,0.119832992553711,0.1988844871521],"min":[-0.23785579204559,-0.0868706703186,0],"type":"VEC3"},{"bufferView":14,"byteOffset":0,"componentType":5126,"count":188,"type":"VEC3"},{"bufferView":15,"byteOffset":0,"componentType":5126,"count":188,"type":"VEC2"},{"bufferView":16,"byteOffset":0,"componentType":5123,"count":96,"type":"SCALAR"},{"bufferView":17,"byteOffset":0,"componentType":5126,"count":60,"max":[0.0817636251449585,0.0290704369544983,0.0879815146327019],"min":[-0.08176355808973,-0.0290704369545,0],"type":"VEC3"},{"bufferView":18,"byteOffset":0,"componentType":5126,"count":60,"type":"VEC3"},{"bufferView":19,"byteOffset":0,"componentType":5126,"count":60,"type":"VEC2"},{"bufferView":20,"byteOffset":0,"componentType":5123,"count":1470,"type":"SCALAR"},{"bufferView":21,"byteOffset":0,"componentType":5126,"count":970,"max":[0.577530980110168,2.35082077980042,0.428066372871399],"min":[-1.41546440124512,-0.00414419174194,-0.66003704071045],"type":"VEC3"},{"bufferView":22,"byteOffset":0,"componentType":5126,"count":970,"type":"VEC3"},{"bufferView":23,"byteOffset":0,"componentType":5126,"count":970,"type":"VEC2"},{"bufferView":24,"byteOffset":0,"componentType":5123,"count":168,"type":"SCALAR"},{"bufferView":25,"byteOffset":0,"componentType":5126,"count":108,"max":[-0.07924866676331,2.14978814125061,0.0976920127868652],"min":[-0.83889985084534,1.97809886932373,-0.3170690536499],"type":"VEC3"},{"bufferView":26,"byteOffset":0,"componentType":5126,"count":108,"type":"VEC3"},{"bufferView":27,"byteOffset":0,"componentType":5126,"count":108,"type":"VEC2"}],"asset":{"generator":"FBX2glTF v0.13.1","version":"2.0"},"bufferViews":[{"buffer":0,"byteLength":6828,"byteOffset":0,"target":34963},{"buffer":0,"byteLength":24636,"byteOffset":6828,"target":34962},{"buffer":0,"byteLength":24636,"byteOffset":31464,"target":34962},{"buffer":0,"byteLength":16424,"byteOffset":56100,"target":34962},{"buffer":0,"byteLength":3564,"byteOffset":72524,"target":34963},{"buffer":0,"byteLength":20736,"byteOffset":76088,"target":34962},{"buffer":0,"byteLength":20736,"byteOffset":96824,"target":34962},{"buffer":0,"byteLength":13824,"byteOffset":117560,"target":34962},{"buffer":0,"byteLength":324,"byteOffset":131384,"target":34963},{"buffer":0,"byteLength":1224,"byteOffset":131708,"target":34962},{"buffer":0,"byteLength":1224,"byteOffset":132932,"target":34962},{"buffer":0,"byteLength":816,"byteOffset":134156,"target":34962},{"buffer":0,"byteLength":588,"byteOffset":134972,"target":34963},{"buffer":0,"byteLength":2256,"byteOffset":135560,"target":34962},{"buffer":0,"byteLength":2256,"byteOffset":137816,"target":34962},{"buffer":0,"byteLength":1504,"byteOffset":140072,"target":34962},{"buffer":0,"byteLength":192,"byteOffset":141576,"target":34963},{"buffer":0,"byteLength":720,"byteOffset":141768,"target":34962},{"buffer":0,"byteLength":720,"byteOffset":142488,"target":34962},{"buffer":0,"byteLength":480,"byteOffset":143208,"target":34962},{"buffer":0,"byteLength":2940,"byteOffset":143688,"target":34963},{"buffer":0,"byteLength":11640,"byteOffset":146628,"target":34962},{"buffer":0,"byteLength":11640,"byteOffset":158268,"target":34962},{"buffer":0,"byteLength":7760,"byteOffset":169908,"target":34962},{"buffer":0,"byteLength":336,"byteOffset":177668,"target":34963},{"buffer":0,"byteLength":1296,"byteOffset":178004,"target":34962},{"buffer":0,"byteLength":1296,"byteOffset":179300,"target":34962},{"buffer":0,"byteLength":864,"byteOffset":180596,"target":34962}],"buffers":[{"byteLength":181460,"uri":"SM_Workbench.bin"}],"images":[{"name":"New Palitra","uri":"New Palitra.jpg"}],"materials":[{"alphaMode":"OPAQUE","doubleSided":false,"extras":{"fromFBX":{"isTruePBR":false,"shadingModel":"Phong"}},"name":"Main","pbrMetallicRoughness":{"baseColorFactor":[1,1,1,1],"baseColorTexture":{"index":0,"texCoord":0},"metallicFactor":0.400000005960464,"roughnessFactor":1}},{"alphaMode":"OPAQUE","doubleSided":false,"extras":{"fromFBX":{"isTruePBR":false,"shadingModel":"Phong"}},"name":"Light","pbrMetallicRoughness":{"baseColorFactor":[0.800000011920929,0.800000011920929,0.800000011920929,1],"metallicFactor":0.400000005960464,"roughnessFactor":0.272165536880493}}],"meshes":[{"name":"SM_Workbench","primitives":[{"attributes":{"NORMAL":2,"POSITION":1,"TEXCOORD_0":3},"indices":0,"material":0,"mode":4}]},{"name":"SM_Workbench_Curtain","primitives":[{"attributes":{"NORMAL":6,"POSITION":5,"TEXCOORD_0":7},"indices":4,"material":0,"mode":4}]},{"name":"SM_Workbench_Holder","primitives":[{"attributes":{"NORMAL":10,"POSITION":9,"TEXCOORD_0":11},"indices":8,"material":0,"mode":4}]},{"name":"SM_Workbench_Shelf_01","primitives":[{"attributes":{"NORMAL":14,"POSITION":13,"TEXCOORD_0":15},"indices":12,"material":0,"mode":4}]},{"name":"SM_Workbench_Shelf_02","primitives":[{"attributes":{"NORMAL":18,"POSITION":17,"TEXCOORD_0":19},"indices":16,"material":0,"mode":4}]},{"name":"SM_Workbench_Light","primitives":[{"attributes":{"NORMAL":22,"POSITION":21,"TEXCOORD_0":23},"indices":20,"material":0,"mode":4},{"attributes":{"NORMAL":26,"POSITION":25,"TEXCOORD_0":27},"indices":24,"material":1,"mode":4}]}],"nodes":[{"children":[1,2,3,4,5],"mesh":0,"name":"SM_Workbench","rotation":[0,0,0,1],"scale":[1,1,1],"translation":[0,0,0]},{"mesh":1,"name":"SM_Workbench_Curtain","rotation":[0,0,0,1],"scale":[1,1,1],"translation":[1.52494049072266,1.96121025085449,0.466087341308594]},{"mesh":2,"name":"SM_Workbench_Holder","rotation":[0,0,0,1],"scale":[1,1,1],"translation":[-1.01978969573975,1.01539373397827,0.286888122558594]},{"mesh":3,"name":"SM_Workbench_Shelf_01","rotation":[0,0,0,1],"scale":[1,1,1],"translation":[-0.99504804611206,1.22141242027283,-0.67950057983398]},{"mesh":4,"name":"SM_Workbench_Shelf_02","rotation":[0,0,0,1],"scale":[1,1,1],"translation":[-0.72473233938217,0.982577264308929,0.325613021850586]},{"mesh":5,"name":"SM_Workbench_Light","rotation":[0,0,0,1],"scale":[1,1,1],"translation":[0,0,0]}],"samplers":[{}],"scene":0,"scenes":[{"name":"Root Scene","nodes":[0]}],"textures":[{"name":"base_color_texture","sampler":0,"source":0}]}