{"accessors":[{"bufferView":0,"byteOffset":0,"componentType":5123,"count":1650,"type":"SCALAR"},{"bufferView":1,"byteOffset":0,"componentType":5126,"count":1087,"max":[2.01888418197632,4.1034369468689,0.507286071777344],"min":[0.98111617565155,3.0029764175415,-0.27656605839729],"type":"VEC3"},{"bufferView":2,"byteOffset":0,"componentType":5126,"count":1087,"type":"VEC3"},{"bufferView":3,"byteOffset":0,"componentType":5126,"count":1087,"type":"VEC2"},{"bufferView":4,"byteOffset":0,"componentType":5123,"count":1236,"type":"SCALAR"},{"bufferView":5,"byteOffset":0,"componentType":5126,"count":824,"max":[0.397719830274582,1.34797143936157,0.0527692623436451],"min":[-0.48883759975433,-1.65202844142914,-0.05971432477236],"type":"VEC3"},{"bufferView":6,"byteOffset":0,"componentType":5126,"count":824,"type":"VEC3"},{"bufferView":7,"byteOffset":0,"componentType":5126,"count":824,"type":"VEC2"}],"asset":{"generator":"FBX2glTF v0.13.1","version":"2.0"},"bufferViews":[{"buffer":0,"byteLength":3300,"byteOffset":0,"target":34963},{"buffer":0,"byteLength":13044,"byteOffset":3300,"target":34962},{"buffer":0,"byteLength":13044,"byteOffset":16344,"target":34962},{"buffer":0,"byteLength":8696,"byteOffset":29388,"target":34962},{"buffer":0,"byteLength":2472,"byteOffset":38084,"target":34963},{"buffer":0,"byteLength":9888,"byteOffset":40556,"target":34962},{"buffer":0,"byteLength":9888,"byteOffset":50444,"target":34962},{"buffer":0,"byteLength":6592,"byteOffset":60332,"target":34962}],"buffers":[{"byteLength":66924,"uri":"SM_Ladder_Top.bin"}],"images":[{"name":"New Palitra","uri":"../../../Textures/Polygon_Texture2.png"}],"materials":[{"alphaMode":"OPAQUE","doubleSided":false,"extras":{"fromFBX":{"isTruePBR":false,"shadingModel":"Phong"}},"name":"Main","pbrMetallicRoughness":{"baseColorFactor":[1,1,1,1],"baseColorTexture":{"index":0,"texCoord":0},"metallicFactor":0.400000005960464,"roughnessFactor":1}}],"meshes":[{"name":"SM_Ladder_Top","primitives":[{"attributes":{"NORMAL":2,"POSITION":1,"TEXCOORD_0":3},"indices":0,"material":0,"mode":4}]},{"name":"SM_Ladder","primitives":[{"attributes":{"NORMAL":6,"POSITION":5,"TEXCOORD_0":7},"indices":4,"material":0,"mode":4}]}],"nodes":[{"children":[1],"mesh":0,"name":"SM_Ladder_Top","rotation":[0,0,0,1],"scale":[1,1,1],"translation":[0,0,0]},{"mesh":1,"name":"SM_Ladder","rotation":[0,0,0,1],"scale":[1,1,1],"translation":[1.55054426193237,1.65500497817993,0.461421370506287]}],"samplers":[{}],"scene":0,"scenes":[{"name":"Root Scene","nodes":[0]}],"textures":[{"name":"base_color_texture","sampler":0,"source":0}]}