{"accessors":[{"bufferView":0,"byteOffset":0,"componentType":5123,"count":534,"type":"SCALAR"},{"bufferView":1,"byteOffset":0,"componentType":5126,"count":354,"max":[0.311836838722229,3,0.622961282730103],"min":[0.0542467199265957,0,0.0999512150883675],"type":"VEC3"},{"bufferView":2,"byteOffset":0,"componentType":5126,"count":354,"type":"VEC3"},{"bufferView":3,"byteOffset":0,"componentType":5126,"count":354,"type":"VEC2"}],"asset":{"generator":"FBX2glTF v0.13.1","version":"2.0"},"bufferViews":[{"buffer":0,"byteLength":1068,"byteOffset":0,"target":34963},{"buffer":0,"byteLength":4248,"byteOffset":1068,"target":34962},{"buffer":0,"byteLength":4248,"byteOffset":5316,"target":34962},{"buffer":0,"byteLength":2832,"byteOffset":9564,"target":34962}],"buffers":[{"byteLength":12396,"uri":"SM_Rainwater_Pipe_Center.bin"}],"images":[{"name":"New Palitra","uri":"Polygon_Texture2.png"}],"materials":[{"alphaMode":"OPAQUE","doubleSided":false,"extras":{"fromFBX":{"isTruePBR":false,"shadingModel":"Phong"}},"name":"Main","pbrMetallicRoughness":{"baseColorFactor":[1,1,1,1],"baseColorTexture":{"index":0,"texCoord":0},"metallicFactor":0.400000005960464,"roughnessFactor":1}}],"meshes":[{"name":"SM_Rainwater_Pipe_Center","primitives":[{"attributes":{"NORMAL":2,"POSITION":1,"TEXCOORD_0":3},"indices":0,"material":0,"mode":4}]}],"nodes":[{"mesh":0,"name":"SM_Rainwater_Pipe_Center","rotation":[0,0,0,1],"scale":[1,1,1],"translation":[0,0,0]}],"samplers":[{}],"scene":0,"scenes":[{"name":"Root Scene","nodes":[0]}],"textures":[{"name":"base_color_texture","sampler":0,"source":0}]}