{"accessors":[{"bufferView":0,"byteOffset":0,"componentType":5123,"count":90,"type":"SCALAR"},{"bufferView":1,"byteOffset":0,"componentType":5126,"count":60,"max":[0.000000370741219057891,3.97547483444214,0.400000154972076],"min":[-0.40000006556511,3,0.00000000000000509194872681459],"type":"VEC3"},{"bufferView":2,"byteOffset":0,"componentType":5126,"count":60,"type":"VEC3"},{"bufferView":3,"byteOffset":0,"componentType":5126,"count":60,"type":"VEC2"}],"asset":{"generator":"FBX2glTF v0.13.1","version":"2.0"},"bufferViews":[{"buffer":0,"byteLength":180,"byteOffset":0,"target":34963},{"buffer":0,"byteLength":720,"byteOffset":180,"target":34962},{"buffer":0,"byteLength":720,"byteOffset":900,"target":34962},{"buffer":0,"byteLength":480,"byteOffset":1620,"target":34962}],"buffers":[{"byteLength":2100,"uri":"SM_Roof_Pillar_Out.bin"}],"images":[{"name":"New Palitra","uri":"Polygon_Texture2.png"}],"materials":[{"alphaMode":"OPAQUE","doubleSided":false,"extras":{"fromFBX":{"isTruePBR":false,"shadingModel":"Phong"}},"name":"Main","pbrMetallicRoughness":{"baseColorFactor":[1,1,1,1],"baseColorTexture":{"index":0,"texCoord":0},"metallicFactor":0.400000005960464,"roughnessFactor":1}}],"meshes":[{"name":"SM_Roof_Pillar","primitives":[{"attributes":{"NORMAL":2,"POSITION":1,"TEXCOORD_0":3},"indices":0,"material":0,"mode":4}]}],"nodes":[{"mesh":0,"name":"SM_Roof_Pillar","rotation":[0,0,0,1],"scale":[1,1,1],"translation":[0,0,0]}],"samplers":[{}],"scene":0,"scenes":[{"name":"Root Scene","nodes":[0]}],"textures":[{"name":"base_color_texture","sampler":0,"source":0}]}