{"accessors":[{"bufferView":0,"byteOffset":0,"componentType":5123,"count":948,"type":"SCALAR"},{"bufferView":1,"byteOffset":0,"componentType":5126,"count":638,"max":[0.311836868524551,3.5484733581543,0.778474390506744],"min":[0.0542467422783375,0.202207118272781,0.0999512001872063],"type":"VEC3"},{"bufferView":2,"byteOffset":0,"componentType":5126,"count":638,"type":"VEC3"},{"bufferView":3,"byteOffset":0,"componentType":5126,"count":638,"type":"VEC2"}],"asset":{"generator":"FBX2glTF v0.13.1","version":"2.0"},"bufferViews":[{"buffer":0,"byteLength":1896,"byteOffset":0,"target":34963},{"buffer":0,"byteLength":7656,"byteOffset":1896,"target":34962},{"buffer":0,"byteLength":7656,"byteOffset":9552,"target":34962},{"buffer":0,"byteLength":5104,"byteOffset":17208,"target":34962}],"buffers":[{"byteLength":22312,"uri":"SM_Rainwater_Pipe_3m.bin"}],"images":[{"name":"New Palitra","uri":"Polygon_Texture2.png"}],"materials":[{"alphaMode":"OPAQUE","doubleSided":false,"extras":{"fromFBX":{"isTruePBR":false,"shadingModel":"Phong"}},"name":"Main","pbrMetallicRoughness":{"baseColorFactor":[1,1,1,1],"baseColorTexture":{"index":0,"texCoord":0},"metallicFactor":0.400000005960464,"roughnessFactor":1}}],"meshes":[{"name":"SM_Rainwater_Pipe_3m","primitives":[{"attributes":{"NORMAL":2,"POSITION":1,"TEXCOORD_0":3},"indices":0,"material":0,"mode":4}]}],"nodes":[{"mesh":0,"name":"SM_Rainwater_Pipe_3m","rotation":[0,0,0,1],"scale":[1,1,1],"translation":[0,0,0]}],"samplers":[{}],"scene":0,"scenes":[{"name":"Root Scene","nodes":[0]}],"textures":[{"name":"base_color_texture","sampler":0,"source":0}]}