{"accessors":[{"bufferView":0,"byteOffset":0,"componentType":5123,"count":714,"type":"SCALAR"},{"bufferView":1,"byteOffset":0,"componentType":5126,"count":476,"max":[0.311836868524551,3.5484733581543,0.62571793794632],"min":[0.0542467422783375,-0.00000005960464,0.0999512001872063],"type":"VEC3"},{"bufferView":2,"byteOffset":0,"componentType":5126,"count":476,"type":"VEC3"},{"bufferView":3,"byteOffset":0,"componentType":5126,"count":476,"type":"VEC2"}],"asset":{"generator":"FBX2glTF v0.13.1","version":"2.0"},"bufferViews":[{"buffer":0,"byteLength":1428,"byteOffset":0,"target":34963},{"buffer":0,"byteLength":5712,"byteOffset":1428,"target":34962},{"buffer":0,"byteLength":5712,"byteOffset":7140,"target":34962},{"buffer":0,"byteLength":3808,"byteOffset":12852,"target":34962}],"buffers":[{"byteLength":16660,"uri":"SM_Rainwater_Pipe_Top.bin"}],"images":[{"name":"New Palitra","uri":"Polygon_Texture2.png"}],"materials":[{"alphaMode":"OPAQUE","doubleSided":false,"extras":{"fromFBX":{"isTruePBR":false,"shadingModel":"Phong"}},"name":"Main","pbrMetallicRoughness":{"baseColorFactor":[1,1,1,1],"baseColorTexture":{"index":0,"texCoord":0},"metallicFactor":0.400000005960464,"roughnessFactor":1}}],"meshes":[{"name":"SM_Rainwater_Pipe_Top","primitives":[{"attributes":{"NORMAL":2,"POSITION":1,"TEXCOORD_0":3},"indices":0,"material":0,"mode":4}]}],"nodes":[{"mesh":0,"name":"SM_Rainwater_Pipe_Top","rotation":[0,0,0,1],"scale":[1,1,1],"translation":[0,0,0]}],"samplers":[{}],"scene":0,"scenes":[{"name":"Root Scene","nodes":[0]}],"textures":[{"name":"base_color_texture","sampler":0,"source":0}]}